<?xml version="1.0" encoding="utf-8"?>
<!-- Generator: Adobe Illustrator 23.1.1, SVG Export Plug-In . SVG Version: 6.00 Build 0)  -->
<svg version="1.1" id="Layer_1" xmlns="http://www.w3.org/2000/svg" xmlns:xlink="http://www.w3.org/1999/xlink" x="0px" y="0px"
	 viewBox="0 0 212 300" style="enable-background:new 0 0 212 300;" xml:space="preserve">
<style type="text/css">
	.st0{fill:#010101;}
</style>
<g id="layer1" transform="translate(-644.75 -427.78)">
	<path id="path3048" class="st0" d="M723.8,428c-1.4,0.3-3.1,1.1-3.7,1.6c-1.2,1-3.5,1.3-5.1,0.5c-0.5-0.3-2.2-0.7-3.7-0.9l-2.7-0.4
		l1.5,1.8c0.8,1,1.5,2.1,1.5,2.4c0,0.4,0.6,1.5,1.4,2.6c0.8,1,1.4,2.3,1.4,2.8c0,0.5,0.7,2.8,1.5,5c0.8,2.3,1.5,5.2,1.4,6.6
		c0,1.3,0.3,3.2,0.8,4.1c1.4,2.7,2,19.3,1.1,30.5c-0.5,6.4-0.8,13.1-1.1,27.6c-0.2,6,0,9,0.9,13c0.6,2.9,1.2,7.3,1.4,9.8
		c0.3,4.1,0.2,4.7-0.9,6.1c-0.7,0.8-1.7,1.5-2.2,1.5c-1.1,0-3-2.1-4.6-4.9c-0.6-1.2-1.4-1.7-2.2-1.7c-0.7,0-2-0.5-3-1
		c-0.9-0.6-2.6-1.2-3.7-1.4c-1.5-0.3-2.2-0.8-2.6-1.9c-0.3-0.8-0.6-1.2-0.6-0.8c-0.1,1.3-1.6,0.7-3-1.1c-2.3-3.1-2.8-4.5-3-8.3
		c-0.1-2-0.4-4.2-0.7-4.8c-0.4-0.8-0.4-2.2,0.3-5.2c0.5-2.3,0.9-6.1,0.8-8.6c0-2.5-0.1-7.5-0.1-11.3c0-3.8-0.2-6.8-0.5-6.8
		c-0.2,0-1,1-1.7,2.2c-0.9,1.7-1.2,2.7-0.9,4.1c0.3,1.5,0.1,2-0.6,2.5c-0.9,0.5-0.9,0.8,0.5,3.5c1.8,3.7,2,7.4,0.3,10.6
		c-1.3,2.6-2.3,2.3-3.3-0.8c-0.9-2.8-0.5-12.6,0.5-13.2c1.2-0.7,0.2-2.2-2.3-3.4c-2.2-1.1-3-0.3-1.1,1c1.2,0.8,1.2,1.1,0.9,6.7
		c-0.2,3.2-0.5,6.4-0.6,7.2c-0.4,1.7,1,6.5,3.4,11c2.4,4.6,2.6,6.7,0.5,7.4l-1.4,0.5l1.3,1.6c1.6,2.1,1.7,7,0.2,9.4
		c-0.9,1.3-0.9,2.6-0.7,12.1c0.2,5.8,0.4,10.8,0.6,11.2c0.5,0.8-0.7,2.9-1.4,2.5c-1.2-0.7-1.8-3.5-2.3-10.3c-0.3-3.8-0.5-8-0.5-9.2
		c0-2.5-1-5.4-3.1-8.5c-1.6-2.4-2.5-7.9-1.7-10.5c0.7-2.3,0.1-4.6-1.2-4.6c-0.5,0-1.3-0.3-1.7-0.7c-1.4-1.4-1.3,0.1,0.2,3.1
		c1.3,2.6,1.4,3.5,1.1,5.8c-0.2,1.6-0.1,3.2,0.2,3.8c0.3,0.6,0.7,2,0.9,3.1c0.2,1.1,0.9,2.7,1.5,3.6c1,1.3,1.2,2.3,1.3,6.6
		c0.1,3.8-0.1,5.3-0.8,6c-0.7,0.7-0.7,1.1-0.2,1.7c0.4,0.5,0.5,1.7,0.3,3.4c-0.3,2.1-0.2,2.7,0.6,3.3c0.6,0.4,0.8,1,0.6,1.4
		c-0.2,0.4-0.1,1.1,0.4,1.6c1,1.2,1.7,4.4,0.9,4.9c-0.8,0.5-3.9-1.9-3.9-2.9c0-0.5,0.4-1.2,0.9-1.5c0.8-0.6,0.7-1-0.8-4
		c-0.9-1.8-1.9-3.9-2.1-4.6c-0.4-1.1-0.6-1.1-1.6-0.4c-1.1,0.8-1.1,0.9-0.1,2.5c1.2,2.1,1.2,2.9,0.1,4.1c-0.6,0.6-0.7,1.1-0.3,1.9
		c0.5,1,0.1,4.3-0.6,4.3c-0.7,0-2.5-2.9-3.2-4.9c-0.5-1.5-0.9-2-1.3-1.5c-1,1-1.3,0.8-2.8-1.8c-1.5-2.7-2.8-7.5-2-8
		c0.3-0.2,0.5-0.9,0.5-1.6c0-0.7,0.4-1.4,0.8-1.6c0.5-0.2,0.7-0.6,0.6-1c-0.1-0.4-0.4-2.1-0.5-3.8c-0.1-1.7-0.4-3.6-0.6-4.3
		c-0.3-0.9-0.1-1.3,0.5-1.6c0.5-0.2,0.9-0.9,0.9-1.6c0-1.8,2.6-4.7,4.2-4.7c1.4,0,1.9-1.4,0.7-1.8c-0.4-0.1-0.7-0.8-0.8-1.6
		c-0.1-0.8-0.2-1.6-0.2-1.8c0-0.2-0.4-0.4-0.9-0.4c-0.9,0-1,0.4-0.9,3.1c0.1,1.1-0.2,1.9-0.8,2.1c-0.5,0.2-0.9,0.2-0.9-0.1
		c0-0.2-0.2-0.8-0.5-1.2c-0.4-0.7-0.7-0.6-1.9,0.5c-1.1,1-1.4,1.1-1.4,0.5c0-1.1-2.6-2.9-3.4-2.3c-0.6,0.4-0.4,2,0.4,4.6
		c0.5,1.6-1.2,2.4-2.3,1c-0.6-0.8-0.9-0.8-1.8-0.3c-1.6,1-2.9,0.3-3-1.6c0-0.9-0.2-2.1-0.5-2.7c-0.4-1-0.5-1-0.8-0.2
		c-0.2,0.5-0.2,1.2,0,1.6c0.2,0.3,0.1,1-0.3,1.4c-0.6,0.7-0.9,0.7-2.3,0c-2.3-1.2-2.9-0.6-2.4,2.5c0.5,3.2,1.4,11.8,1.5,14.9
		c0.1,1.3,0.4,2.6,0.7,3.1c2,2.6,2.7,10.7,1,13.2c-0.6,0.9-0.7,1.6-0.3,2.7c0.4,1,0.4,1.8,0,2.5c-0.3,0.6-0.6,1.9-0.6,2.9
		s-0.3,2.1-0.6,2.5c-0.4,0.4-0.4,1,0,2.1c0.3,0.8,0.6,2.1,0.6,2.8c0,0.7,0.4,2.1,0.9,3.1c0.7,1.4,0.8,2.1,0.3,2.9
		c-1,1.6-0.8,2.4,1.1,3.5c1,0.6,1.6,1.4,1.5,1.9c-0.3,1.4-1.8,1.1-2-0.3c-0.2-1.3-0.5-1.5-1.6-0.8c-0.5,0.3-0.6,1.1-0.3,2.2
		c0.3,1.4,0.6,1.8,1.6,1.8c1.2,0,1.3,0.2,1.3,3.2c0,1.8-0.3,4-0.6,4.9c-0.5,1.4-0.4,2.1,0.6,4.2c2.4,5,2.9,5.5,4.3,5.5
		c0.9,0,1.6,0.5,2.2,1.7c0.5,0.9,1.1,1.7,1.3,1.7c0.2,0,0.7,0.6,1,1.3c0.8,1.7,7.1,3.4,9.6,2.5c1.3-0.4,2-0.4,3.3,0.3
		c0.9,0.5,1.8,0.7,1.9,0.6s0.8,0,1.4,0.4c0.9,0.6,1,1,0.6,2c-0.3,0.7-0.5,1.9-0.5,2.7s-0.3,1.5-0.8,1.7c-0.6,0.2-0.6,0.8-0.2,2.8
		c0.5,2.1,0.4,2.6-0.4,3.6c-0.6,0.6-1.4,1.1-1.8,1.1c-0.4,0-0.7,0.6-0.7,1.4c0,1,0.3,1.4,1.1,1.4c1.2,0,2,2,1.5,3.7
		c-0.4,1.2,1,6.9,2.1,8.7c0.4,0.7,1,1.8,1.2,2.6c0.2,0.7,1,2.2,1.8,3.3c1.3,1.9,1.4,2.5,0.5,4.7c-0.3,0.8-0.2,1,0.9,0.7
		c1-0.3,1.7,0,2.7,1.1c1.2,1.3,1.4,1.9,1.3,4.9l-0.1,3.4l0.9-2c1.4-3.2,3.2-3.7,5.4-1.5c0.7,0.7,1.7,1.5,2.1,1.6
		c0.4,0.2,1,1.1,1.2,2.1c0.2,1,0.9,2.2,1.5,2.6c0.6,0.4,1.1,1.3,1.1,2c0,0.7,0.4,1.9,0.8,2.6c1,1.7,1,3.4,0.2,5.3
		c-0.9,1.9-2.1,1.8-2.1-0.2c0-0.9-0.3-1.7-0.7-1.9c-0.4-0.2-1.1-1.3-1.5-2.6c-0.4-1.3-1-2.4-1.2-2.6c-0.2-0.2-0.9,0.7-1.4,1.8
		c-0.5,1.2-1,2.3-1.2,2.5c-0.1,0.2,0.3,0.5,0.9,0.6c1.4,0.4,1.5,2,0.2,2.5c-0.6,0.2-1.2,0-1.7-0.7c-0.4-0.6-0.9-0.9-1.1-0.7
		c-0.6,0.6,0.8,3.9,2,4.7c1.2,0.8,1.5,3.7,0.6,5.2c-0.4,0.6,0.1,1.4,1.6,3.1c2.6,2.8,3.8,6.3,2.5,7.3c-1.1,0.8-1,1.5,0.3,2.4
		c1,0.7,1.1,1,0.8,3.3c-0.2,1.4-0.4,3.7-0.5,5.1c-0.1,2.2-0.2,2.5-1.5,2.7c-0.8,0.1-1.9-0.3-2.6-0.8c-1.9-1.5-5.2-8.2-5.2-10.4
		c0-1.1-0.4-3.1-0.9-4.5c-0.5-1.4-0.7-3-0.5-3.5c0.8-2.1,1.1-9.3,0.5-12.2c-0.3-1.6-0.2-1.9,1.4-2.8l1.7-1.1l-1.1-1.4
		c-0.6-0.8-1.3-2.3-1.4-3.3c-0.6-3.4-1-3.6-1.3-0.5c-0.3,2.4-0.2,3.2,0.5,3.7c0.8,0.6,0.8,0.8-0.2,1.7c-1,1-1.1,1-1.7-0.1
		c-0.8-1.4-3.2-3.7-3.8-3.7c-1,0-0.4,2.5,1,4.5c2.3,3.3,3.5,10.1,2.2,12.2c-0.7,1.2-2.4-0.4-4.1-4c-1.7-3.4-1.7-3.8-1.5-8.9
		c0.3-5.8,0-6.5-3.5-8.2c-1.7-0.9-1.5-3.6,0.3-3.8c1.8-0.3,2.1-1.7,0.4-2.4c-0.8-0.3-1.6-0.5-1.9-0.5c-0.3,0-0.7-0.8-1-1.7
		c-0.6-1.6-1.2-2.1-1.9-1.4c-0.2,0.2-0.1,1.2,0.2,2.3c0.7,2.7-0.1,3.5-1.7,1.5c-1.4-1.8-1.6-5.5-0.3-8.9c1-2.7,1-2.5,0-2.5
		c-1.3,0-1-2.6,0.4-4.6c1.4-1.9,2.6-5.1,2.6-6.7c0-1.7-1-0.5-1.3,1.6c-0.2,1.3-1,2.4-2,3.2c-1.1,0.8-1.6,1.7-1.6,2.7
		c0,0.9-0.4,1.7-1,1.9c-0.9,0.4-0.9,0.4,0,0.9c0.8,0.5,0.9,1,0.6,2.8c-0.2,1.4-0.1,2.7,0.3,3.6c0.6,1.2,0.6,1.5-0.5,2.5
		c-1.4,1.3-1.2,3.7,0.3,4.7c0.5,0.3,1.7,1.2,2.7,2.1c1,0.8,2.1,1.5,2.4,1.5c0.3,0,1.2,1.2,2.1,2.6c1.5,2.6,1.5,2.7,0.7,5.9
		c-0.7,3-0.8,3.2-1.8,2.5c-0.6-0.4-1.2-1.8-1.4-3.5c-0.3-1.9-0.7-2.8-1.2-2.8c-1.3,0-0.8,6.4,0.6,7.5c0.6,0.5,1.1,1.4,1.1,2.4
		c0,1.1,0.3,1.6,0.8,1.6c0.5,0,0.8,0.4,0.8,0.8c0,0.4,0.7,1.6,1.6,2.6c0.9,1,2.4,3.1,3.4,4.8c1.2,1.8,2.2,2.9,2.9,2.9
		c1.2,0,3.3,3.7,3.3,5.9c0,1.4-0.1,1.5-1.7,1.2c-1-0.2-1.7-0.1-1.7,0.2c0,1.1,1.8,3.2,3,3.5c0.7,0.2,1.8,1.3,2.6,2.4
		c2.3,3.6,6.3,7.4,7.7,7.4c1.5,0,3.5,0.9,4.2,1.9c0.2,0.3,0.4,1.2,0.4,1.9c0,1.5,2.7,3.1,4.9,2.8c1.6-0.2,1.6-0.4,2.7-6.8
		c0.3-1.8,0.6-2.2,1.9-2.4c0.9-0.2,1.6-0.6,1.7-0.9c0-0.3,0.1-1,0.1-1.5c0-0.5,0.5-0.9,1-1c1.1-0.2,2.3,2.1,1.7,3.5
		c-0.2,0.5,0.2,1.5,1.1,2.4c0.8,0.8,2.4,2.9,3.6,4.6c1.6,2.2,3.1,3.5,5.4,4.7c3.4,1.7,5.3,1.8,8.9,0.1c1.1-0.5,2.4-0.8,3.1-0.5
		c2.3,0.7,4.1-0.6,5.1-3.8c0.7-2.3,1.3-3.2,3.1-4.4c1.6-1.1,2.4-2.1,2.9-3.7c1.3-4.2,5.9-4.4,13.6-0.6c0.6,0.3,1.1,0.3,1.3-0.1
		c0.2-0.3,1.1-0.5,2.1-0.6c1.9,0,2.1-0.2,10.1-8.5c2.3-2.4,4.2-4.4,4.2-4.6c0-0.6-2-0.3-2.7,0.4c-0.6,0.6-0.7,0.3-0.3-1.3
		c0.9-4.4,1.5-6.1,2.4-6.8c0.9-0.6,0.9-1,0.3-3.5c-0.4-1.5-0.7-2.3-0.7-1.8c0,0.5-0.4,1.1-0.9,1.3c-0.5,0.2-0.8,1-0.8,2.1
		c0,1-0.3,2.1-0.8,2.5c-0.6,0.5-1.1,0.2-2.2-1.8c-0.8-1.4-1.5-2.7-1.5-3c0-0.3,0.7-1.5,1.7-2.6c2-2.6,2.5-3.9,1.8-5.2
		c-0.8-1.5,0.7-3.5,2.7-3.5c0.9,0,2.1-0.5,2.8-1c1.2-0.9,1.2-1.2,0.6-3.5c-0.6-2.2-0.5-2.6,0.4-3.5c1-1,1-1.2,0.2-2.8
		c-1.9-3.7-1.9-3.7-0.9-4.1c0.5-0.2,1.8-0.2,2.9,0c1.6,0.3,2,0.1,2.3-0.7c0.1-0.6,0.9-1.2,1.8-1.4c0.8-0.2,1.9-0.8,2.4-1.2
		c0.7-0.7,1.2-0.7,1.7-0.3c0.4,0.3,1.9,0.7,3.3,0.9s3.6,0.8,4.8,1.5c1.9,1.1,2.4,1.2,3.4,0.6c0.8-0.5,1.4-0.5,2.2-0.1
		c0.6,0.3,1.5,0.4,2.1,0.2c2.5-0.8,4.5-1.9,5.5-3c1.5-1.7,3.7-8.9,3.1-10.1c-0.4-0.7-0.2-1.2,0.5-1.9c1.2-1.1,2.1-1.2,2.4-0.3
		c0.3,0.8,2.7-0.6,2.7-1.5c0-0.9,2.8-3.3,3.8-3.3c0.5,0,1-0.6,1.1-1.4c0.4-3.1,0.7-3.9,1.8-3.9c0.6,0,1.3-0.4,1.4-1
		c0.2-0.5,0.5-1.4,0.8-1.9c0.3-0.5,0.5-1.3,0.5-1.7s0.4-1.1,0.8-1.5c0.7-0.6,0.9-0.5,1.2,0.2c0.2,0.5,0.7,1,1.2,1.2
		c0.7,0.3,0.8-0.1,0.5-2c-0.2-1.3-0.4-3.2-0.6-4.3c-0.1-1.1-0.4-2.5-0.6-3.1c-0.3-0.9,0.1-1.6,1.5-2.8c1.8-1.6,1.9-1.7,1.8-5.8
		c-0.1-5.5-0.1-5.6-1-3.5c-0.9,2-2.7,2.5-3.3,0.9c-0.3-0.7-0.5-0.8-1.2-0.2c-0.6,0.5-0.7,1.4-0.5,3.9c0.2,2.3,0.1,3.7-0.5,5.1
		c-1.3,3-1.6,4.9-0.8,6.1c0.6,0.9,0.5,1.6-0.8,4.2c-0.8,1.7-1.7,3.1-2,3.1c-0.3,0-1,1.2-1.6,2.7c-0.6,1.5-1.9,3.2-2.9,3.9l-1.7,1.3
		v-2.8c0-1.7,0.4-3.7,1-4.9c1.1-2.2,1.9-7.2,2-12.7c0-3.1,0.1-3.3,1.3-3.3c0.7,0,1.2-0.1,1.2-0.3s-0.2-1.4-0.5-2.8
		c-0.4-2.1-0.3-2.9,0.9-5.6c0.8-1.7,1.4-3.3,1.3-3.6c-0.1-0.3,0.3-1.3,0.8-2.4c1.1-2.2,0.9-4-0.4-4.8c-0.7-0.5-1.2-0.3-2.1,0.8
		c-1.4,1.7-1.4,2.3,0,4.1c1.1,1.4,1.1,1.6,0.3,2.8c-0.5,0.7-1.4,1.7-2.1,2c-1.1,0.6-1.4,0.5-2.4-0.9c-1.5-1.9-2.1-5.2-1.3-7.3
		c0.4-0.9,0.4-1.7,0.1-1.8c-0.7-0.4-0.4-4.3,0.4-6.3c0.7-1.7,2.5-2.6,5.3-2.6c1.4,0,2.1-0.4,3-1.7c1.4-1.9,2.6-2.1,3.4-0.6
		c0.9,1.6,2.4,1.5,1.9-0.1c-0.2-0.7-0.6-1.5-0.9-1.8c-0.3-0.3-0.5-0.7-0.5-0.9c0-0.6,3.1-1.7,4.3-1.6c1.6,0.2,4.7-0.7,4.9-1.4
		c0.1-0.3,0.3-1.6,0.5-2.7c0.5-2.8,1.4-2.1,1.4,1c0,1.4,0.2,2.5,0.5,2.5c0.9,0,1.8-3.4,1.2-4.5c-0.3-0.6-0.5-1.5-0.5-2.1
		c0-0.6-0.4-1.2-0.9-1.4c-1.5-0.6-0.6-2.7,1.9-4.4c1.9-1.2,2.4-1.9,2.4-3.2c0-0.9,0.3-1.7,0.7-1.9c0.5-0.2,0.8-1.6,0.8-4.1
		c0.2-5.7,0.7-9,1.8-11.6c1.5-3.5,0.5-12.4-1.6-13c-0.9-0.3-1,4.1-0.1,4.6c0.8,0.5,0.7,4.6-0.2,7.2c-0.4,1.2-1,3.5-1.2,4.9
		c-0.2,1.5-0.8,3.2-1.4,3.8c-0.9,0.9-1,1.3-0.4,2.5c0.8,1.7-0.1,2.9-2.2,3.2c-1.3,0.1-1.6,0.6-2.5,3.2c-0.9,2.8-1.7,3.9-2.8,3.9
		c-0.7,0-0.4-4.1,0.4-5.6c1-1.8,1-5,0.1-6.3c-0.4-0.5-1.3-1-2-1s-2.1-0.8-3.1-1.8c-1.6-1.5-1.9-1.6-2.2-0.8
		c-0.2,0.6,0.1,1.6,0.9,2.6c0.7,0.9,1.1,1.8,0.9,2c-0.2,0.2,0.2,1.3,0.9,2.6c0.9,1.8,1,2.5,0.5,3.3c-0.3,0.5-0.6,1.5-0.6,2.1
		s-0.3,1.1-0.6,1.1s-0.6-0.6-0.6-1.3c0-1.7-0.5-2.1-1.8-1.4c-1.6,0.9-2.8-0.3-2.1-2.1c0.6-1.6,0.2-1.7-1.2-0.5
		c-0.9,0.8-1,0.8-1.8-0.7c-0.7-1.4-0.7-2,0-5.2c1-4.1,2.3-6.9,3-6.4c0.3,0.2,0.5,0.7,0.5,1.1c0,0.9,1.8,0.8,4-0.3
		c1.4-0.7,1.5-0.9,1.2-3.3c-0.2-1.4-0.4-2.6-0.5-2.7c-0.1-0.1-0.8,0.1-1.6,0.4c-1.1,0.4-1.5,0.9-1.5,2.2c0,1.3-0.2,1.7-1.1,1.7
		c-0.9,0-1.1-0.4-1.1-1.8c0-2.1-0.8-1.6-1.9,1.3c-1,2.8-3.1,6.1-4,6.1c-0.4,0-0.9-0.4-1-0.8c-0.2-0.5-0.8-0.8-1.4-0.8
		c-1.3,0-2.6-1.4-2-2.3c0.2-0.4,1.1-0.5,2-0.3c1.6,0.3,1.6,0.3,1.3-1.3c-0.3-1.4-0.1-1.9,1.4-3.1c1.4-1.2,1.7-1.9,1.7-3.6
		c0-1.2,0.2-2.5,0.3-3c0.4-1,2.5-1.2,3.4-0.3c0.4,0.4,0.7,0.4,1,0c0.2-0.4-0.1-1.1-0.8-1.7c-0.9-0.8-1.1-1.5-0.8-2.7
		c0.2-1,0-2.1-0.5-2.8c-0.5-0.7-0.7-1.7-0.6-2.3c0.2-0.8,0-1.1-0.9-1.1c-0.9,0-1.2-0.3-1.2-1.4c0-1.7,0.9-2.3,2.1-1.3
		c0.8,0.7,0.9,0.5,0.6-1.8c-0.2-1.7-0.1-3,0.5-4.1c0.4-0.9,1-2.6,1.1-3.9c0.2-1.3,0.8-3,1.4-3.9c0.9-1.2,1-1.7,0.4-2.4
		c-0.9-1-3.9-1.1-3.9,0c0,0.4-0.4,1.5-0.8,2.4s-0.8,2.2-0.8,2.9c0,0.7-0.6,3.5-1.3,6.1c-1.3,4.6-1.6,8.6-0.8,9.9
		c0.7,1.1,0.1,7.4-0.8,8.7c-0.5,0.8-0.7,2-0.6,3.1c0.2,1.6,0.1,1.9-1.7,2.6c-1.1,0.5-2.1,1.3-2.3,1.9c-0.4,1.2-1.8,1.9-2.6,1.4
		c-0.3-0.2-0.5-1.6-0.3-3.5c0.2-2,0-3.8-0.4-4.9c-0.5-1.1-0.5-1.9-0.2-2.3c0.3-0.3,0.6-4.7,0.7-10c0.1-6.2,0.3-9.8,0.8-10.7
		c1.6-2.9,2.9-8.6,2.7-11.4c-0.1-1.6-0.3-3.5-0.3-4.2c0-1.1-0.3-1.2-1.4-0.9c-1.1,0.3-1.5,0-2.2-1.4c-1.5-2.9-1.6-6.5-0.4-9
		c1.1-2.2,1.1-2.2,0-2.8c-0.6-0.3-1.1-1-1.1-1.5c0-1.3-0.8-0.3-0.9,1.1c-0.1,0.7-0.4,2.2-0.7,3.4c-0.3,1.2-0.4,3.9-0.3,5.9
		c0.3,3.3,0.2,4-1.4,7.2c-0.9,2-1.6,3.8-1.5,4.2s0.3,2,0.5,3.7c0.1,1.7,0.5,4.4,0.9,6.1c0.9,4.4,1.4,13.1,1.2,20.8
		c-0.1,2-0.9,1.9-2.7-0.1c-1.7-2-2.2-2.1-2.7-0.5c-0.3,0.8,0,1.4,0.8,2c0.6,0.5,1.2,1.4,1.2,2.1s0.4,1.5,0.9,1.6
		c1.2,0.5,2.7,4.2,2,5c-0.3,0.4-0.5,1.3-0.5,2c0,1.8-1,6.6-1.7,8.4c-0.3,0.8-0.4,2.1-0.3,2.8c0.3,1.6-1.1,3.4-2.5,3.2
		c-1.2-0.2-2.6-5.1-1.8-6.5c0.3-0.6,0.4-1.8,0.2-2.7c-0.3-1.6,1.6-6.3,2.5-6.3c0.5,0,0.4-6.8-0.2-7.7c-0.6-1-1.6-0.2-1.1,0.9
		c0.2,0.5,0.4,1.5,0.3,2.3c-0.2,3.4-2.6,6.3-3.3,3.9c-0.2-0.8-0.6-1-1.2-0.7c-0.5,0.2-1.8,0.5-2.9,0.6c-2,0.2-2,0.2-2.4-1.9
		c-0.5-3-1.6-4.4-4.3-5.8c-2.3-1.2-3.5-1.1-2.3,0.2c0.4,0.4,0.7,1.1,0.7,1.6c0,0.6,0.5,1,1.3,1.1c1,0.1,1.3,0.6,1.4,2
		c0.1,1.5-0.1,1.9-1.3,2.5c-1.1,0.5-1.4,1.1-1.4,2.4c0,1-0.3,2-0.6,2.4c-0.5,0.5-0.5,0.9,0,1.4c1.5,1.8,1.4,4.7-0.3,8.7
		c-1.2,2.8-1.5,4.2-1.1,4.8c0.7,1.3,0.1,1.8-1.2,1c-0.9-0.6-1.2-0.4-2.2,1.3c-0.6,1.1-1.5,1.9-1.8,1.9c-0.4,0-1.2,0.6-1.8,1.4
		c-0.6,0.8-1.8,1.5-2.5,1.5c-0.8,0.1-1.7,0.4-2,0.9c-0.5,0.6-1,0.7-2.5,0.2c-1-0.3-2.8-0.8-3.8-1c-1-0.2-1.9-0.7-2-1
		c-0.1-0.7,7-1.4,7.8-0.8c0.7,0.6,3-1.9,3-3.3c0-0.9,2.8-5.2,4.1-6.3c1.5-1.3,1.1-2.3-1.1-2.3c-2.4,0-3.2-1.4-1.5-2.5
		c0.7-0.5,1-1.2,0.9-1.9c-0.2-0.6,0-1.2,0.3-1.4c0.3-0.2,0.6-0.8,0.6-1.3s0.3-1.3,0.7-1.6c0.9-0.9,2.1-4.6,1.8-5.4
		c-0.1-0.4,0.4-2,1.2-3.7c0.8-1.6,1.4-3.3,1.4-3.6c0-0.4,0.4-0.8,0.9-1c0.7-0.3,0.8-0.5,0.2-1.2c-0.9-1.1-0.3-3.5,1-3.9
		c1.1-0.3,2.9-4.2,2.9-6.3c0-0.7,0.2-1.3,0.5-1.5c0.3-0.2,0.7-1.4,0.9-2.7c0.2-1.3,0.6-3,0.8-3.8c0.7-2.1,1.1-10,0.5-10
		c-0.3,0-0.5,0.6-0.5,1.4c0,0.7-0.3,1.5-0.6,1.7s-0.6,1.3-0.6,2.5c0,2.8-0.8,3.3-2.6,1.6l-1.4-1.3l0.4,1.5c0.3,1.3,0.1,1.8-1.2,2.9
		c-1.3,1.1-1.4,1.5-0.9,2.4c0.3,0.6,1.3,1.1,2.2,1.3c2.1,0.4,2.3,1.8,0.5,3.3c-0.8,0.6-2,2.1-2.7,3.3c-2.6,4.6-2.4,4.4-3.4,3.2
		c-0.8-1.1-1.2-4.6-1-8.8c0.1-1.1-0.1-2.1-0.4-2.1c-1.3,0-1.7,4.1-0.8,9.2c0.8,4.4,1,6.7,0.8,9.3c0,0.4,0.1,1.4,0.3,2.2
		c0.5,2.1-1.4,8.1-2.7,8.5c-0.5,0.2-1,0.7-1,1.1s-0.5,1.1-1.1,1.5c-0.6,0.4-1.1,1.3-1.3,2.1c-0.2,1.7-1.5,2.1-2,0.8
		c-0.2-0.6-0.8-1.6-1.4-2.4c-1.2-1.7-2.1-5.6-2.5-10.9c-0.2-3.2,0-4.6,1.1-7.8c1.2-3.3,1.3-4.6,1.1-8.9c-0.2-4.6-0.1-5.3,1.2-7.9
		c1.9-3.7,2.7-4.4,4.1-3.5c1.4,0.9,2.6,0.4,3.6-1.5c0.8-1.7,3.1-2.7,2.5-1c-0.2,0.5-0.4,1.6-0.4,2.3c0,0.9-0.4,1.5-1.1,1.7
		c-1.2,0.3-1.3,0.4-0.8,2.9l0.3,1.7l1-1.3c0.6-0.7,1-1.6,1-2c0-0.3,0.6-0.9,1.4-1.3c1.1-0.5,1.4-1,1.4-2.4c0-0.9,0.2-3,0.4-4.5
		c0.4-2.2,0.7-2.8,1.5-2.7c0.8,0.1,0.9-0.2,0.7-1.3c-0.2-0.8-0.1-1.7,0.2-2c0.3-0.4,0.7-1.5,0.9-2.5c0.4-2,2.4-5.6,4.8-8.6
		c0.8-1,1.7-2.5,2.1-3.3c0.4-0.8,1.1-1.5,1.6-1.5c0.7,0,0.8-0.4,0.6-1.6c-0.3-1.6,1.8-7.4,3-8.2c0.6-0.4,0.2-4.2-0.5-5
		c-0.2-0.3-0.6,0.8-0.8,2.2c-0.4,2.8-1.7,5.5-2.8,6c-1,0.4-1.6-6.2-0.7-7.3c1.6-1.9,2.9-18.6,1.6-19.4c-0.3-0.2-0.6,0.4-0.6,1.4
		c0,2.3-1.6,2.1-2.8-0.3l-0.8-1.7l-0.2,1.9c-0.1,1,0.3,3.1,0.8,4.5c1.3,3.3,1.1,10.4-0.3,12c-1,1.1-1.1,3.2-0.4,10.5
		c0.5,5.4-0.3,8.8-2.6,10.8c-2,1.7-3,1.7-3.8,0.3c-1-1.8-0.7-3.7,1.1-7c0.9-1.7,1.7-3.4,1.7-3.7c0-0.8-4.7,4.1-5.2,5.3
		c-0.2,0.6-0.7,0.9-1.2,0.7c-1-0.4-1.6,0.5-1,1.5c0.2,0.4,0.5,1.3,0.5,2.1c0,0.8,0.4,2.4,0.8,3.6c1.4,4.8,1,10.3-0.8,10.3
		c-0.4,0-1,0.4-1.4,0.9c-0.4,0.5-1.4,1.2-2.2,1.7c-2.1,1.1-4.2,0.1-4.7-2.2c-0.3-1.4,0-1.9,1.4-3.1c1.6-1.3,1.7-1.6,1-2.7
		c-0.4-0.7-1.2-1.2-1.7-1.2c-1.7,0-2.6-1.9-3-6.4c-0.4-4.4-0.4-4.4,1.2-5.7c1.3-1,1.6-1.8,1.7-4c0.1-1.5,0.7-3.8,1.4-5.1
		c0.8-1.6,1.1-2.8,0.8-3.8c-0.2-0.8-0.6-2.8-1-4.4c-0.4-1.8-0.9-2.9-1.4-2.9c-0.6,0-0.7,0.9-0.6,4.3c0.2,3.5,0,4.5-0.8,5.4
		c-0.5,0.6-1.4,2.9-1.9,5.1c-0.5,2.2-1.4,4.4-2,4.9c-0.9,0.8-1,1.7-0.8,6.9c0.1,3.3,0.5,7.4,0.8,9.3c0.7,3.9,0.1,12.6-0.8,12.9
		c-0.4,0.1-1.1-1.1-1.8-2.7c-0.6-1.6-1.8-4.1-2.6-5.5s-1.4-3-1.4-3.6c0-0.6-0.4-2.7-0.8-4.7s-1.1-5.5-1.5-7.8
		c-0.7-4.2-0.7-4.2-1.1-2c-0.3,1.2-0.9,2.6-1.3,3.2c-0.8,0.9-0.8,1.2,0.2,3.1c1.4,2.7,2.5,10,1.7,11.4c-0.7,1.2-1.9,1.3-2.4,0.2
		c-0.2-0.5-0.7-0.8-1.2-0.8c-0.5,0-1.1-0.5-1.4-1.1c-0.7-1.3-0.8-4.9-0.1-5.3c0.3-0.2,0.4-1.4,0.4-2.7c-0.2-3.4-0.2-3.4-1.2-2.6
		c-0.5,0.4-1,0.5-1.2,0.3c-0.2-0.2-0.1-0.6,0.3-0.8c0.4-0.2,1.2-1.4,1.9-2.6c1-1.9,1.1-2.6,0.7-6.9c-0.3-2.6-0.5-5.5-0.5-6.4
		c0-1.4-1.5-3.2-2.2-2.6c-0.1,0.1-0.1,2.1,0.2,4.4c0.5,4.2,0,6.7-1.1,6.7c-0.4,0-0.5,0.7-0.2,2.2c0.3,2,0.2,2.3-1.2,3
		c-1.4,0.7-1.7,1.3-2.3,5.1c-0.4,2.8-0.5,4.6-0.2,5.3c0.3,0.6,0.3,2.2,0,4.4c-0.5,3-0.4,3.7,0.6,5.7c1.1,2.1,1.1,2.4,0.3,3.9
		c-0.5,0.9-1.2,1.7-1.7,1.7c-1,0-2.7-2.6-4-6.1c-0.5-1.4-1.4-3-1.9-3.7c-0.6-0.6-1-1.8-1-2.6c0-0.8-0.3-1.6-0.6-1.8
		c-0.3-0.2-0.6-0.8-0.6-1.4c0-0.6-0.3-1.2-0.6-1.4c-0.5-0.3-0.5,0.2-0.3,1.9c0.2,1.3,0.1,3-0.2,3.8c-0.5,1.4-0.6,1.4-1.6,0.6
		c-1.7-1.5-1.8-0.3-0.3,2.3c1.4,2.4,1.4,2.6,0.6,4.6c-1,2.5-0.4,3.7,1.4,2.7c1.5-0.8,2.7-0.2,2.7,1.3c0,1.5-2.9,4.9-4.2,4.9
		c-1.2,0-1.1,1.2,0.2,2.4c1.1,0.9,1.2,1.6,1.4,6.8c0,0.9,0.3,2.1,0.5,2.6c0.7,1.5,0.1,2.9-1.3,3.3c-0.8,0.2-2.3,0.7-3.3,1.2
		c-1.1,0.5-2.3,0.7-2.8,0.6c-2-0.7-4-2.5-4.3-3.9c-0.2-0.8-0.6-1.8-0.9-2.1c-2.1-2.7-3.1-22.5-1.5-31.1c0.3-1.5,0.6-4.2,0.8-5.9
		c0.1-1.7,0.6-3.9,1-4.7c0.8-1.8,0.8-28.2,0.1-44.5c-0.5-10.3,0-15.6,1.7-17.4c1-1.1,0.9-1.1-1.4-1.8c-1.3-0.4-3-0.8-3.8-0.8
		c-0.8,0-1.9-0.2-2.5-0.4C726.9,427.5,725.2,427.6,723.8,428L723.8,428z M820.5,503c1.5,2.7,1.5,2.8,0.6,5.4c-1.3,3.8-2,5.3-3.1,6
		c-1.4,0.9-2,0-2.7-3.8c-0.5-2.8-0.4-3.5,0.5-5c0.6-0.9,1.2-2.5,1.4-3.5C817.8,499.5,818.7,499.8,820.5,503z M759.3,503.7
		c0.1,0.7,0.4,2,0.6,2.8c0.3,1.5-0.7,5.4-1.4,5.4c-0.7,0-2.2-4-2.2-5.7c0-1.7,1.3-3.8,2.3-3.8C758.8,502.5,759.1,503,759.3,503.7
		L759.3,503.7z M766.1,510.4c0.9,0.4,1.4,0.4,2,0c0.6-0.5,0.9-0.5,1.1,0.2c0.6,1.6,0.4,2.1-0.8,1.8c-1.9-0.5-2.8,0.9-2,3.1
		c0.9,2.5,1.4,3.2,2.3,3.2c0.5,0,0.7-0.5,0.7-1.5c-0.1-0.8,0.2-1.6,0.5-1.7c0.8-0.3,1.5,2.7,1,4.4c-0.3,1-0.2,1.1,0.5,0.9
		c1-0.4,1.2,0.2,0.3,1.1c-0.3,0.3-0.9,1.2-1.3,1.9c-0.5,0.9-1.1,1.3-2.3,1.3c-1.5,0-1.7-0.2-1.8-1.8c-0.1-1.3-0.5-2-1.4-2.3
		c-0.7-0.3-2-1.3-2.9-2.2c-1.6-1.7-1.6-1.8-0.9-4.1c0.4-1.3,0.8-3,0.9-3.8c0.1-0.8,0.2-1.5,0.2-1.6
		C762.4,509,764.7,509.7,766.1,510.4L766.1,510.4z M760.1,522.4c0.3,0.5,0.7,2.4,0.9,4.1c0.4,3,0.3,3.2-1.1,4.1
		c-0.8,0.5-1.8,1.7-2.3,2.5c-1.1,2.1-1.8,2-2.4-0.5c-1.5-5.7-1.5-6,1.1-8.7C758.9,521.2,759.3,521,760.1,522.4L760.1,522.4z
		 M750.3,523.8c0.5,1.9,0.4,2.9-0.4,4.1c-0.7,0.9-0.9,0.9-1.7,0.3c-1.1-0.9-1.1-2.8,0-4.4C749.3,522.2,749.9,522.2,750.3,523.8z
		 M667,530.8c0,0.8-0.5,0.9-1.6,0.2c-0.7-0.4-0.7-0.6,0-1.4c0.6-0.7,0.8-0.8,1.2-0.2C666.8,529.7,667,530.4,667,530.8L667,530.8z
		 M772.6,530.6c0.9,0.3,0.9,0.4,0.1,1.7c-1.3,2-1.4,13.6,0,17.2c0.8,2.1,0.8,2.9,0.3,3.5c-0.5,0.6-0.5,1.1,0.3,2.2
		c0.6,0.9,0.8,2,0.6,3c-0.2,1.1,0,2.4,0.8,4c0.6,1.3,1.1,2.4,1.1,2.5c0,0-0.9,1-1.9,2.2c-1.6,1.8-2.1,2.1-3.4,1.8
		c-1.1-0.3-1.9,0-3.3,1c-1,0.8-2.2,1.4-2.6,1.4c-0.5,0-0.4-0.3,0.3-0.8c0.9-0.7,1-1,0.4-1.9c-0.4-0.6-0.7-1.9-0.7-2.8
		c0-1.6-0.1-1.6-1.4-1c-1.5,0.7-1.7,1.1-0.9,2.6c0.3,0.5,0.6,2,0.8,3.2c0.1,1.2,0.3,2.5,0.4,2.8c0.4,1.5,0,2.1-1.4,1.7
		c-1.8-0.4-2.5,1-1.2,2.4c0.8,0.9,0.7,1-0.8,1.7c-1.3,0.6-1.8,0.6-2.3,0.1c-0.9-0.9-1-11.1-0.1-12.6c0.4-0.6,0.8-1.8,1-2.5
		c0.2-0.8,1.5-2.6,2.9-4c2.8-2.9,3-3.2,1.4-3.2c-0.6,0-1.1-0.4-1.1-0.8c0-0.5-0.3-0.8-0.7-0.8c-0.7,0-2.6,3.7-2.6,5.1
		c0,1-1.1,2.2-2.1,2.2c-1.6,0-0.2-5.4,2.1-8c2.1-2.4,3.7-6.3,2.9-7.2c-0.3-0.4-0.7-1.7-0.9-2.9c-0.2-1.2-0.5-2.7-0.7-3.2
		c-0.2-0.6,0-1,0.6-1c0.6,0,0.9-0.5,0.9-1.6c0-2.4,2.9-3.3,3.6-1c0.3,1.2,0.4,1.2,1.1,0.3c0.4-0.6,0.6-1.5,0.5-2
		c-0.3-1.2,3.4-5.7,4.5-5.4C771.3,530.1,772,530.4,772.6,530.6L772.6,530.6z M764,539.8c-1.2,2.2-1.5,8.4-0.6,10.8
		c1.1,2.9,1.6,1.3,1.6-5.2c0-3.7-0.1-6.7-0.2-6.7C764.7,538.7,764.4,539.2,764,539.8L764,539.8z M765.7,561.8c0,0.5,0.3,0.8,0.6,0.8
		s0.6-0.4,0.6-0.8c0-0.5-0.3-0.8-0.6-0.8S765.7,561.4,765.7,561.8z M768.6,563.4c-0.4,0.4-0.7,1.2-0.7,1.9c0,1.1,0.3,1.2,2.1,1.1
		c2.4-0.1,3-1.4,1.5-2.8C770.5,562.5,769.5,562.4,768.6,563.4L768.6,563.4z M653.8,532.9c-0.1,1,0.3,2.2,1,3.2
		c1,1.2,1.1,1.7,0.5,2.3c-1,1.2-1.5,1-2.5-0.8c-0.9-1.7-1.2-5.7-0.5-6.4C653.2,530.4,653.9,531.3,653.8,532.9L653.8,532.9z
		 M660.7,532.1c0.2,0.4,1.4,0.5,3.1,0.3c1.5-0.2,2.7-0.1,2.7,0.2c0,0.3,0.2,0.9,0.3,1.4c0.2,0.6-0.1,1-1.1,1.4
		c-1.7,0.6-1.8,1.2-0.7,3c0.6,0.9,0.8,2.9,0.7,7.1c-0.1,7.1,0.4,9.7,2.2,11.5c0.7,0.7,1.3,1.6,1.3,1.9s0.5,1.3,1.1,2.1
		c1.6,2.2,1.8,10.6,0.3,13.7c-0.8,1.7-0.9,2.4-0.4,3.2c0.8,1.2,0.9,2.7,0.2,2.7c-0.3,0-0.7,0.6-1.1,1.4c-0.8,1.7-3,3.2-4.2,2.8
		c-1.1-0.4-1.2-3-0.2-4c1.1-1.1-0.4-2.2-1.7-1.4c-0.9,0.6-1.1,0.4-1.7-1.6c-0.6-1.9-0.6-2.7,0.2-5.5c0.9-3.3,1.2-7.3,0.6-7.3
		c-0.7,0-1.8,2-1.9,3.4c0,2-1.6,4.1-2.5,3.3c-1.2-1-2.2-5.4-1.5-6.3c0.3-0.4,0.5-1.3,0.3-1.9c-0.2-0.7,0.1-2,0.8-3.1
		c0.8-1.4,1-2.1,0.5-2.5c-0.3-0.3-0.4-0.8-0.2-1s0.7,0,1,0.5c0.3,0.5,0.7,1,1,1c0.7,0,0.7-7.4,0-8.2c-0.3-0.4-0.4-1.2-0.2-1.8
		c0.4-1.2-0.5-2.1-1.1-1.2c-0.2,0.3-0.9,0.6-1.5,0.6c-0.9,0-1-0.2-0.7-1c0.2-0.5,0.5-1.4,0.7-2c0.3-1.2,0.9-1.2,1.8-0.1
		c0.9,1,1.5,0.7,1.9-1.2c0.2-0.9,0.1-1.8-0.4-2.4c-0.8-0.9-1.1-3.1-1-7.5C659.2,531.5,659.9,530.8,660.7,532.1L660.7,532.1z
		 M660.9,560.7c0,0.1,0.3,0.4,0.6,0.6c0.3,0.2,0.6,0.1,0.6-0.2s-0.3-0.6-0.6-0.6C661.1,560.4,660.9,560.6,660.9,560.7z M699,536.1
		c0.3,0.4,1.6,0.9,2.9,1.1c1.2,0.2,2.5,0.8,2.9,1.3c0.8,1.2,0.9,6.2,0.1,8.4c-1.2,3.4-4.2,3.7-3.6,0.5c0.2-1.1,0.1-2-0.3-2.2
		c-1.1-0.6-1.3,0.1-1.2,3.4c0.1,2.3-0.2,3.4-0.8,4.2c-0.7,0.7-0.8,1.6-0.6,2.9c0.5,2.6-2.5,11.3-4,11.3c-1.2,0-1.6-3.1-0.8-6.8
		c0.6-2.7-0.3-7.9-1.8-10.8c-0.6-1.1-0.6-2.9-0.2-7.8c0.3-3.5,0.7-7,1-7.6l0.5-1.2l2.6,1.3C697.2,534.7,698.7,535.7,699,536.1
		L699,536.1z M699.9,540.1c0,0.1,0.3,0.4,0.6,0.6c0.3,0.2,0.6,0.1,0.6-0.2c0-0.3-0.3-0.6-0.6-0.6
		C700.2,539.8,699.9,539.9,699.9,540.1z M751.5,534.6c0.4,2.1-0.3,3.4-1.4,2.8c-0.7-0.4-0.8-3.8-0.2-4.4
		C750.7,532.2,751.2,532.6,751.5,534.6L751.5,534.6z M709.9,543.3c1.1,1.1,0.8,2.4-1,3.7c-2.1,1.5-2.4,1.4-1.3-0.8
		c0.5-0.9,0.7-2.1,0.5-2.6C707.6,542.4,708.8,542.2,709.9,543.3L709.9,543.3z M753.7,544.8c0.2,0.3,0.7,0.5,1.2,0.4
		c1.6-0.3,1.8,2,0.5,4.8c-1.5,3.1-2.7,4.5-5.2,6c-1.4,0.9-2.1,1-2.5,0.5c-1.2-1.2-1.5-0.6-1.5,2.1c0,3.2-0.6,3.8-2,2.3
		c-0.5-0.6-1.2-1-1.5-0.8c-0.8,0.5-0.6,2.3,0.4,3c1.5,1.2,1,3.7-1.2,6.1c-1.1,1.2-2.3,2.2-2.7,2.2s-1.6-0.8-2.8-1.8
		c-1.6-1.4-2.2-2.5-2.8-5c-0.9-4.1-0.2-11.3,1.4-13c0.6-0.6,1.2-1.7,1.4-2.3c0.2-0.8,1.5-1.8,3.4-2.7c4.9-2.4,9.7-1.1,8.8,2.5
		c-0.2,0.7-0.1,1.2,0.2,1.2c0.9,0,2.4-2.7,2.4-4.4c0-1.3,0.2-1.7,1.1-1.7C752.9,544.3,753.5,544.5,753.7,544.8L753.7,544.8z
		 M750.1,552.1c0,0.3,0.3,0.6,0.6,0.6s0.6-0.3,0.6-0.6s-0.3-0.6-0.6-0.6S750.1,551.8,750.1,552.1z M745.2,553.6
		c0.3,1.4,1.6,1.6,1.6,0.2c0-0.7-0.4-1.2-0.9-1.2C745.4,552.6,745.1,553,745.2,553.6z M714.8,546.6c0.4,0.4,2,1.3,3.6,2.2
		c2.9,1.5,3,1.6,3.1,4.2c0.2,3.3-0.8,8-1.9,9.3c-0.5,0.5-1.1,2.2-1.4,3.6c-0.3,1.8-0.9,3-1.9,3.7c-0.8,0.6-1.4,1.3-1.4,1.7
		c0,1.7-6.5,6.3-8.1,5.7c-1.1-0.4-1-1,0.4-2.8c1-1.3,1.3-1.4,1.7-0.6c0.6,1.1,1.6,1.2,1.6,0.1c0-0.4-0.5-1.1-1.1-1.4
		c-1.5-0.8-1.4-2.7,0.1-4.3c0.9-1,1.2-2.1,1.3-5.2c0.1-2.1,0.3-4.1,0.4-4.4c0.2-0.2-0.2-1.4-0.7-2.6c-1.2-2.6-0.8-5.7,1.1-8.1
		C713.2,545.9,713.9,545.6,714.8,546.6L714.8,546.6z M716.7,560.1c0,0.1,0.3,0.4,0.6,0.6s0.6,0.1,0.6-0.2c0-0.3-0.3-0.6-0.6-0.6
		S716.7,560,716.7,560.1z M804.3,551.6c0.2,1.7,0.6,3.8,0.7,4.7c0.6,3.3,0.4,9.9-0.4,10.6c-1.6,1.6-2.3,0-2.8-6
		c-0.2-3.2-0.4-5.8-0.5-5.9c0-0.1-0.4-0.1-0.8-0.1c-0.4,0-1-0.5-1.2-1.2c-0.3-0.8-0.5-1-1-0.6s-0.4,0.8,0.1,1.4
		c0.4,0.5,0.6,1.4,0.4,2.3c-0.2,0.8-0.1,1.4,0.2,1.4c0.7,0,1.7,3.1,1.7,5.1c0,2.3-1.5,5.5-2.5,5.5c-0.5,0-0.9-0.4-0.9-0.8
		c0-0.5-0.5-0.8-1.1-0.8c-1.4,0-1.5-1.8-0.3-2.8c0.5-0.5,0.8-1.2,0.6-2.2c-0.2-0.8,0.1-2.1,0.5-2.8c0.7-1.2,0.7-1.5,0-2
		c-0.7-0.6-2-8.1-1.5-8.7c0.3-0.3,2.2,1.9,2.5,2.9c0.2,0.5,0.5,0.4,1.2-0.3c0.5-0.5,1.3-1,1.7-1s0.9-0.5,1-1.2
		C802.7,547.2,803.9,548.4,804.3,551.6L804.3,551.6z M705.5,552.2c0,0.8-1.6,2.7-2.3,2.7c-0.8,0-0.5-1.2,0.5-2.3
		C704.7,551.4,705.5,551.2,705.5,552.2L705.5,552.2z M823,553.9c1.3,1.3,0.8,2.1-1,1.4c-0.9-0.3-1.7-1-1.7-1.3
		C820.4,553,822.1,553,823,553.9z M707.5,557.4c-0.2,0.7-0.1,1.5,0.2,1.6c0.9,0.5,0.7,2.3-0.3,2.7c-0.5,0.2-0.8,1-0.8,2.2
		c0,2.3-2,5.1-3.2,4.6c-0.5-0.2-1.2,0.1-1.6,0.8c-0.9,1.3-2.4,1.5-3.4,0.5c-0.9-0.9-0.8-2.4,0.1-4.3c0.4-0.8,1-2.2,1.3-3.1
		c0.6-2,3.3-3.3,4.1-1.9c0.4,0.6,0.7,0.6,1.1,0.2c0.5-0.5,0.4-0.9-0.1-1.8c-0.7-1.1-0.6-1.3,0.6-2.3
		C707,555.2,707.9,555.6,707.5,557.4L707.5,557.4z M780,560.2c0.4,1.7-0.1,3.3-0.9,2.8c-0.7-0.4-0.7-4.2,0-4.2
		C779.4,558.8,779.8,559.4,780,560.2L780,560.2z M818.7,560.8c0,0.5-0.3,0.7-0.6,0.5s-0.6-0.6-0.6-0.9c0-0.3,0.3-0.5,0.6-0.5
		S818.7,560.3,818.7,560.8z M832.1,563.2c0,0.6-0.3,1.2-0.6,1.4c-0.3,0.2-0.6-0.3-0.6-1.1c0-0.8,0.3-1.4,0.6-1.4
		S832.1,562.6,832.1,563.2z M826.5,563.8c0,0.3-0.3,0.6-0.6,0.6s-0.6-0.3-0.6-0.6c0-0.3,0.3-0.6,0.6-0.6S826.5,563.5,826.5,563.8z
		 M818.6,565c1,1,0.8,2.1-0.4,2.1c-0.8,0-1.1-0.4-1.1-1.4C817,564.2,817.5,564,818.6,565z M815.3,566c0,0.3-0.3,0.6-0.6,0.6
		c-0.3,0-0.6-0.3-0.6-0.6s0.3-0.6,0.6-0.6C815.1,565.5,815.3,565.7,815.3,566z M835.2,567.7c0.6,1.5,0.5,1.8-0.5,2.5
		c-0.9,0.6-1.4,0.7-1.9,0.2c-0.7-0.6-2.1,0-3.1,1.5c-0.3,0.4-0.6,0.4-1,0c-0.7-0.7,1.2-3,2.5-3c0.4,0,0.8-0.3,0.8-0.7
		c0-0.9,1.1-2.1,1.9-2.1C834.3,566,834.9,566.8,835.2,567.7L835.2,567.7z M678.5,569.1c0.5,0.8,1.4,1.4,2.2,1.4c1,0,1.5,0.4,1.9,1.5
		c0.3,0.8,1,2,1.5,2.5c0.7,0.8,0.7,1.1,0.2,1.6c-0.8,0.8-0.8,2.4,0,3.8c0.5,0.9,0.5,1.5-0.3,3.1c-0.5,1.1-1,2.4-1,2.8
		c0,1.2-0.7,1-4.6-0.9c-5.1-2.5-5.4-3-5.4-6.5c0-3.6,1.1-10.1,1.8-11.1C675.7,566.4,677.3,567.2,678.5,569.1L678.5,569.1z
		 M805.3,569.3c0,0.7-1.1,1.4-1.5,1c-0.4-0.4,0.3-1.5,1-1.5C805.1,568.8,805.3,569,805.3,569.3z M817,569.4c1.2,0.6,2.4,4.4,1.9,5.8
		c-0.2,0.5-0.8,1.2-1.4,1.5c-0.6,0.3-1,1.1-1,1.8c0.2,2.9-0.2,4.4-1.5,5.7c-0.8,0.8-1.4,1.8-1.4,2.2c0,1-1.3,1.6-2.5,1.2
		c-0.7-0.3-0.5-0.6,0.6-1.8c1.3-1.3,1.4-1.5,0.5-2c-0.6-0.4-1.2-0.3-1.8,0.1c-1,0.9-1.2,0.7-1.6-1.8c-0.3-1.7-0.2-2.1,0.7-2.6
		c1.1-0.6,2-3.8,1.1-4.3c-0.7-0.4-0.6-2.5,0.1-2.5c0.3,0,0.7,0.5,0.9,1.1c0.2,0.6,0.6,1.1,1,1.1c0.8,0,1.6-3.5,1.1-5
		c-0.3-0.8-0.1-1.1,0.8-1.1C815.4,568.8,816.5,569.1,817,569.4L817,569.4z M686.4,571.6l0.1,1.9l-1.1-1.3c-1.4-1.6-1.5-3-0.1-2.8
		C686,569.6,686.3,570.3,686.4,571.6L686.4,571.6z M704.7,570.8c-0.2,0.5-0.5,1.5-0.7,2.2c-0.4,1.5-1.7,1.8-2.3,0.5
		c-0.2-0.5,0.2-1.4,1-2.2C704.2,569.7,705.2,569.5,704.7,570.8L704.7,570.8z M843.7,573.3c-0.2,2.3-1,2.4-1.7,0.3
		c-0.4-1.1-0.3-1.8,0.2-2.4C843.1,570.1,843.9,571.1,843.7,573.3L843.7,573.3z M693.6,571.9c0.9,0.6,1.3,1.6,1.5,3.8
		c0.2,1.6,0.5,4,0.7,5.3c0.3,1.9,0.2,2.4-0.5,2.4c-0.5,0-1.3-0.7-1.9-1.5c-0.5-0.8-1.7-2.3-2.6-3.2c-1.4-1.5-1.6-1.9-1.2-4.2
		c0.2-1.4,0.5-2.7,0.6-3C690.7,570.8,692.4,571,693.6,571.9z M658.1,573.1c0.5,0.5,0.9,2,1,4c0.1,1.8,0.1,3.4,0.1,3.6
		c0,0.2,0.4,0.7,0.8,1.2c0.4,0.4,1,2.5,1.2,4.7c0.4,3.6,0.3,4-0.8,4.6c-1.5,0.8-1.5,1.7-0.1,1.7c1.4,0,1.6,0.8,1.3,4.3
		c-0.2,2.4-0.1,3,0.9,3.9c0.7,0.6,1.2,1.4,1.2,1.8c0,1,3.7,4.5,4.7,4.5c0.7,0,1.8,2.1,2.1,4.2c0.1,0.8,0.7,1.2,1.8,1.3
		c2.8,0.3,3.2,0.5,2.6,1.7c-0.5,0.9-0.9,1-3.7,0.6c-3.5-0.5-3.9-0.8-6.5-4.7c-1-1.5-2.3-2.8-2.9-2.9c-1.8-0.3-4-3.1-4.4-5.7
		c-0.3-2-0.2-2.4,0.7-2.6c1.4-0.4,1.9-3,0.8-4.2c-0.6-0.7-0.8-1.7-0.6-3.9c0.3-2.9-0.5-6.5-2.1-9.5c-0.4-0.8-0.8-2.2-0.8-3.1
		c0-0.9-0.2-1.9-0.5-2.2c-0.3-0.3-0.4-1.5-0.2-2.6c0.3-1.8,0.5-2,1.5-1.7C656.7,572.1,657.7,572.6,658.1,573.1L658.1,573.1z
		 M737.5,578.8c0.4,0,1.1,0.5,1.6,1.1c0.5,0.6,1.5,1.1,2.1,1.1c1.3,0,1.4,0.7,0.5,3.2c-0.5,1.4-0.4,2.1,0.6,3.8
		c1.3,2.4,1.6,5.5,0.5,5.1c-0.4-0.1-0.9-1-1.2-1.9c-0.3-0.9-0.7-2.1-1-2.6s-0.5-1.4-0.5-1.9c0-0.6-0.3-0.8-0.9-0.6
		c-0.5,0.2-1,0.3-1.1,0.3c-0.1,0-0.2,0.4-0.2,0.8c0,0.5,0.3,0.8,0.6,0.8s0.6,0.7,0.6,1.6c0,0.9,0.5,2.2,1.1,3
		c1.2,1.6,1.4,3.8,0.5,5.5c-0.5,0.8-0.4,1.4,0.3,2.4c0.5,0.7,0.9,2.3,0.8,3.4s0.1,3.1,0.3,4.4c0.5,3.2-0.7,4.2-3.4,2.9
		c-1.1-0.5-1.9-1.2-1.9-1.5s-0.7-0.9-1.5-1.3c-1-0.5-1.6-1.2-1.7-2.1c-0.1-0.8-0.6-3.1-1.2-5.3c-2.4-8.6-3.9-19.9-2.8-21.2
		c0.4-0.5,0.7-2,0.8-3.5c0.1-4.4,0.7-4.6,3.8-1C735.6,577.4,737.1,578.8,737.5,578.8L737.5,578.8z M735.3,581.1
		c-0.5,0.8,0.6,1.9,1.4,1.4c0.3-0.2,0.6-0.7,0.6-1.2C737.3,580.4,735.9,580.2,735.3,581.1L735.3,581.1z M748.7,573.6
		c0.4,1.1,0,1.9-1.1,1.9c-0.4,0-0.8-0.5-0.8-1C746.8,572.7,748.1,572.1,748.7,573.6L748.7,573.6z M827.3,574.1
		c1.2,0.8,1.4,0.8,1.8,0c0.3-0.5,0.9-0.8,1.4-0.5c1.2,0.4,1.2,1.9,0.1,1.9c-1,0-1.1,0.8-0.1,1.6c1.1,0.9,1.7,4.4,0.9,5.4
		c-0.4,0.4-1.2,0.8-1.9,0.8c-0.7,0-1.5,0.5-1.9,1.1c-0.4,0.6-1.2,1.1-1.8,1.1c-0.9,0-1.1-0.4-1.1-2.4c0-1.3-0.2-3.8-0.4-5.6
		c-0.3-2.5-0.2-3.4,0.4-3.8C825.9,573.1,825.8,573.1,827.3,574.1L827.3,574.1z M753.4,576.3c1,1.8,0.4,3.2-1.2,3
		c-1.4-0.2-2-2.3-1-3.6C752.2,574.6,752.6,574.7,753.4,576.3z M796,575.2c0.2,0.2,0,0.9-0.3,1.6c-0.4,0.9-1.2,1.4-2.3,1.5
		c-2.1,0.2-2.3,1.8-0.3,1.8c0.8,0,1.7,0.5,2,1.1c0.9,1.6-0.4,6.4-2,7.5c-1.2,0.8-1.4,0.7-2.6-0.8c-0.7-0.9-1.3-2-1.3-2.4
		c0-0.4-0.8-1.5-1.7-2.3c-1.5-1.4-1.7-1.9-1.5-4c0.1-1.9,0.4-2.4,1.3-2.6c0.6-0.1,1.6-0.4,2.2-0.7
		C791.5,575.1,795.3,574.6,796,575.2L796,575.2z M806.4,576.4c0,0.8-1.3,2.4-2,2.4c-0.9,0-1,0.5-0.3,1.6c0.8,1.3-0.3,6.8-1.6,8.3
		c-0.7,0.7-1.6,1.3-1.9,1.3c-0.4,0-1,0.4-1.3,0.8c-0.4,0.4-1,0.7-1.5,0.5c-1.2-0.4-1-2.2,0.3-3.4c0.8-0.8,1-1.5,0.8-2.4
		c-0.2-1,0-1.7,0.8-2.4c0.8-0.7,1.1-1.7,1.1-3.4c0-1.7,0.3-2.6,0.9-2.9C802.8,576.2,806.4,575.9,806.4,576.4L806.4,576.4z
		 M770.8,579.5c-0.1,0.4-0.2,1.4-0.1,2.1c0.1,1.1-0.1,1.2-0.6,0.7c-0.7-0.7-1.1-2.9-0.6-3.6C769.9,577.9,771,578.6,770.8,579.5
		L770.8,579.5z M716.8,579.6c0.2,0.4-0.1,1.4-0.7,2.1c-0.6,0.7-1.5,2.4-2.2,3.7c-0.9,1.9-1.5,2.4-2.6,2.4c-1.5,0-3.5-1.9-3.5-3.5
		c0-0.5-0.3-1.1-0.6-1.3c-1.4-0.9-0.3-1.3,3.3-1.2c3.6,0.1,3.9,0,3.9-1.1C714.4,578.8,716.2,578,716.8,579.6L716.8,579.6z
		 M694.4,586.3c1.2,2.5,1.5,3.5,1,4.3c-0.4,0.8-0.3,1.4,0.3,2.3c1.8,2.5,0.5,5.1-1.9,3.8c-0.5-0.3-1.9-1.6-3.1-2.9
		c-2.1-2.3-2.1-2.4-1.8-5.9c0.2-2.4,0.1-3.9-0.3-4.6c-0.5-0.9-0.5-1.3,0-1.9c0.6-0.8,0.9-0.7,2.4,0.4
		C692.1,582.5,693.5,584.5,694.4,586.3L694.4,586.3z M775.8,582.4c1-0.9,1.2-0.9,1.6-0.3c0.3,0.4,1.3,1.2,2.3,1.7
		c1.1,0.5,1.9,1.4,2,2.1c0.2,1.2,2.7,3.5,3.9,3.5c1.1,0,2.3,2.5,2.3,4.5c0,2.1-1.3,5.8-2.2,6.4c-0.3,0.2-0.6,0.9-0.6,1.6
		c0,0.7-0.4,1.8-0.9,2.5c-0.6,0.9-0.8,2-0.6,3.6c0.3,2.2,0.1,2.6-3,6.8c-3,4.1-3.5,4.5-6,5c-4.2,1-4.7,0.6-4.4-3
		c0.1-1.7,0.4-3.6,0.7-4.2c0.3-0.8,0.2-1-0.4-0.8c-0.4,0.1-0.9,1-1,1.9c-0.3,2.3-1.6,3.7-2.9,3c-0.6-0.3-2-0.5-3.3-0.5
		c-1.9,0-2.3-0.2-2.3-1.1c0-0.6,0.4-1.1,0.8-1.1c0.5,0,0.8-0.5,0.8-1.1c0-0.6,0.3-1.1,0.6-1.1c1.1,0,0.5-1.4-0.8-2
		c-1.3-0.6-1.5-0.5-2.7,1.7c-0.7,1.3-1.5,2.7-1.7,3.3c-0.2,0.5-0.7,1-1.1,1c-0.4,0-1.2,0.6-1.7,1.4c-0.5,0.8-1.4,1.4-2,1.4
		c-2.5,0-0.4-7.1,2.7-9.3c0.7-0.5,1.2-1.3,1.2-1.8s0.4-1.3,0.9-1.7c0.6-0.5,0.8-1.2,0.6-2.4c-0.2-1.2,0-2,1-3.2
		c1.1-1.3,1.3-2,1.1-3.7c-0.2-1.7,0-2.5,1.1-3.8l1.4-1.7l0.1,1.4c0.1,1.3,0.1,1.3,0.6-0.3c0.3-0.9,0.4-2.2,0.2-2.9
		c-0.2-0.7,0-1.3,0.4-1.4c0.5-0.2,0.5-0.5,0-1.4c-0.5-0.9-0.5-1.5,0-2.6c0.8-1.7,2.1-1.9,2.1-0.4c0,0.6,0.6,1.8,1.4,2.8
		c1.6,1.9,1.7,4.3,0.2,4.1c-0.7-0.1-0.8,0.2-0.6,1.3c0.2,0.8,0.6,1.6,1,1.7s1,1.2,1.4,2.2c0.5,1.6,0.5,2.3-0.4,4.2
		c-0.7,1.6-0.8,2.3-0.4,2.5c0.4,0.1,1.2,1.1,1.8,2.1c1.4,2.3,2.2,2.4,2.2,0.3c0-0.9,0.6-2.8,1.4-4.3c1.5-2.9,1.8-4.7,0.8-4.7
		c-0.3,0-0.6,0.6-0.6,1.3c0,1.7-1.1,2.8-2,2c-1-0.8-0.9-2.4,0.1-3.3c1.2-1,1.1-2.8-0.2-2.8c-0.6,0-1.2-0.2-1.3-0.4
		c-0.5-0.8,0.8-3,2-3.3l1.2-0.3l-1.2-0.4c-1-0.4-1.1-0.8-1-2.8c0.1-1.3,0.2-2.8,0.3-3.2c0-0.6,0.2-0.6,0.9,0.2
		C774.6,583.5,774.7,583.5,775.8,582.4L775.8,582.4z M777.4,592.9c0,1,0.1,1.1,0.5,0.4c0.7-1.1,0.7-1.7,0-1.7
		C777.7,591.7,777.4,592.2,777.4,592.9z M783.6,594.7c0,0.5,0.3,0.8,0.7,0.7c0.8-0.3,0.7-1.2-0.1-1.4
		C783.8,593.9,783.6,594.2,783.6,594.7z M763.4,596c-0.2,1.1,0.4,4.5,0.9,5c0.5,0.5,0.7,0,1.1-2.5c0.3-2,0.2-2.4-0.7-2.9
		C763.8,595.1,763.5,595.2,763.4,596z M762.2,604.1c-0.4,2.2,0.1,3.9,1,3.6c1-0.3,1-2.2,0.2-3.9l-0.8-1.5L762.2,604.1L762.2,604.1z
		 M701.9,582.6c0.3,0.2,0.8,1.6,1,3.1c0.3,2.3,0.8,3.1,2.7,4.9c1.9,1.7,2.2,2.4,2,3.5c-0.4,1.7-1.4,2.1-5.5,2.3
		c-2.8,0.2-3.2,0.1-3.2-0.8c0-0.5,0.4-1.5,0.9-2.2c0.5-0.7,0.7-1.5,0.4-1.9c-0.7-1.1-1.8-7.8-1.5-8.6
		C699,582.1,700.9,581.9,701.9,582.6L701.9,582.6z M749,586.3c0.9,2,1.7,4.1,1.7,4.7c0,2.3,1,4,2.4,4c1.6,0,2,1.1,2,6l0,3.5
		l-2.2-0.3l-2.2-0.3l-0.4,3.8c-0.2,2.1-0.8,4.7-1.3,5.7c-0.5,1.1-0.9,2.6-1,3.5c-0.2,2.4-0.6,2.4-2,0.3c-0.7-1.1-1.8-2.1-2.4-2.4
		c-1.5-0.7-1.7-3-0.3-4.7c1-1.2,1.2-1.3,2.2-0.7c1.3,0.8,1.4,0.6,0.7-0.8c-0.3-0.5-0.8-1.9-1.1-3c-0.6-1.8-0.5-2.3,0.5-3.6
		c1-1.3,1-1.9,0.6-4.2c-0.3-1.7-0.3-3.7,0-5.5c0.8-4.1,0.7-4.8-0.6-5.2c-1.8-0.6-1.3-4.2,0.6-4.2C747.1,582.7,747.8,583.7,749,586.3
		L749,586.3z M822,583.6c0,0.5-0.3,0.8-0.6,0.8s-0.6-0.4-0.6-0.8c0-0.5,0.3-0.8,0.6-0.8S822,583.1,822,583.6z M677.2,586.9
		c1.1,0.8,2.1,1.7,2.1,2c0,0.3-0.6,1.5-1.2,2.6s-1.4,3.1-1.5,4.5c-0.4,3-2,3.9-2.5,1.3c-0.2-0.9-0.6-2.3-0.9-3.3
		c-0.9-2.9-0.7-7.4,0.4-8C674.9,585.4,674.9,585.3,677.2,586.9L677.2,586.9z M669.7,588c0.2,2.9,1.1,8.3,1.9,10.8
		c0.8,2.7,2.1,3.5,4.7,2.8c2.1-0.6,2.5-1.3,2.5-4.1c0-2.9,1.6-6.1,3.1-6.1c1.4,0,3.7,3.9,3.3,5.8c-0.1,0.8-0.4,3.9-0.5,7
		c-0.5,9.3-0.7,10.3-2.1,10.3c-1.2,0-3.1-2-3.5-3.6c-0.3-1.3-0.6-1.5-2-1.3c-1.4,0.2-2.2-0.3-5.8-3.9c-2.3-2.3-4.2-4.6-4.2-5.2
		s-0.3-1.2-0.6-1.4c-1.2-0.8-2.7-4.6-3.1-8.2c-0.5-4.3,0.1-5,3.9-4.8C669.4,586.4,669.6,586.5,669.7,588L669.7,588z M686.7,587.5
		c1,2.1-0.3,3.1-1.5,1.2c-0.9-1.4-0.8-2.6,0.3-2.6C685.8,586.1,686.3,586.7,686.7,587.5z M753.5,586.9c0,0.5-0.2,0.8-0.5,0.8
		c-0.3,0-0.6-0.4-0.8-0.8c-0.2-0.5,0-0.8,0.5-0.8C753.1,586.1,753.5,586.5,753.5,586.9z M760.6,588.1c1,2.1,0.8,3.1-0.7,5
		c-1.6,1.9-1.9,1.7-3.1-2.1c-0.7-2.1-0.7-2.3,0.6-3.3C759.2,586.3,759.9,586.4,760.6,588.1L760.6,588.1z M809,589.2
		c0.5,2.2-0.1,3.2-1.4,2.5c-1.3-0.7-1.4-1.3-0.5-2.8C807.8,587.4,808.6,587.5,809,589.2L809,589.2z M819.9,588.9
		c0.8,0.4,1.1,1.2,1.1,2.8c0,2.5-1.1,3.4-2.8,2.3c-1.3-0.8-1.7-0.2-1.4,2.1c0.1,1.2,1.1,2.7,2.8,4.4c2.6,2.6,2.6,2.7,2.3,5.5
		c-0.3,3.2,0.4,4.4,2.4,3.9c1.6-0.4,1.4,1-0.6,4.2c-1.6,2.5-1.8,2.6-2.7,1.9c-0.5-0.5-1.3-0.9-1.6-0.9c-0.4,0-1.1-1.1-1.7-2.4
		c-0.9-2.1-1.1-2.2-1.1-0.9c-0.1,3.1-0.7,3.5-1.5,1c-0.5-1.8-0.6-2.6-0.1-3.2c0.5-0.5,0.5-0.9,0-1.4c-0.8-0.8-4,2.1-4,3.6
		c0,0.5-0.5,1.2-1.2,1.6c-1,0.5-1.3,0.5-1.9-0.3c-1-1.4,0.1-3.6,1.8-3.6c1.5,0,1.7-1,0.5-2.5c-0.4-0.6-0.7-1.4-0.5-1.9
		c0.3-1.3-0.8-3.9-1.7-3.9c-1.8,0-3.4-4.4-2-5.3c0.3-0.2,1.3,0.3,2.2,1.1c1.3,1.2,1.6,1.3,1.9,0.6c0.2-0.5,0.2-1.3,0-1.7
		c-0.2-0.6,0-1,0.8-1.2c0.6-0.2,1.5-0.9,1.9-1.7c0.4-0.8,1.5-1.8,2.5-2.2c0.9-0.4,2-1.1,2.4-1.6
		C818.4,588.2,818.5,588.2,819.9,588.9L819.9,588.9z M818.1,602.2c0,0.6-0.3,1.2-0.6,1.4c-0.3,0.2-0.4,0.9-0.2,1.6
		c0.2,0.7,0.1,1.5-0.3,1.7c-0.3,0.2-0.6,0.9-0.6,1.5c0,0.9,0.2,1,1.1,0.5c0.7-0.4,1.1-1.2,1.1-2c0-0.8,0.2-1.9,0.5-2.4
		c0.6-1.1,0.2-3.4-0.6-3.4C818.4,601.1,818.1,601.6,818.1,602.2L818.1,602.2z M813.1,605c0,0.3,0.3,0.6,0.6,0.6s0.6-0.3,0.6-0.6
		c0-0.3-0.3-0.6-0.6-0.6S813.1,604.7,813.1,605z M719.7,598.4c0.1,5.3,0.7,9,2,13.5c0.3,1,0.3,2-0.1,2.7c-0.3,0.6-0.7,3.5-0.8,6.4
		c-0.3,5.5-0.8,7.4-2.2,7.4c-0.5,0-0.8-0.6-0.8-1.8c0-1-0.1-3.7-0.1-6s0.1-5.6,0.3-7.2c0.3-2.7,0.2-3.3-0.9-4.7
		c-1.8-2.2-2.9-1.5-1.8,1.2c0.5,1.2,0.6,2.2,0.3,2.6c-0.7,0.9-0.9,4.1-0.4,7.7c0.3,2.3,0.3,3.4-0.2,4c-0.4,0.5-0.5,1.2-0.4,1.7
		c0.2,0.6-0.1,0.8-1.1,0.8c-1.3,0-1.4,0.2-1.1,1.7c0.4,2-0.4,2.2-2.6,0.4c-0.9-0.7-1.6-1.9-1.6-2.6c0-0.7-0.3-1.9-0.7-2.7
		c-0.5-1.1-0.4-1.5,0.9-2.6c1.2-1,1.6-2,1.9-4.6c0.4-3.3,0.4-3.3-1.8-5.5c-2-2.1-7.6-5.2-9.3-5.2c-1.2,0-2.1-1.2-2.1-2.9
		c0-1.7-0.1-1.7,4.7-1.6c3.4,0.1,5.2-0.5,9.5-3.1c1.2-0.7,2.7-1.6,3.3-1.9s1.7-1.3,2.4-2.3s1.6-1.7,1.9-1.6
		C719.4,592.5,719.7,594.8,719.7,598.4L719.7,598.4z M796.6,597.1c0.2,0.3,0.5,2.6,0.9,5.2c0.6,4.5,0.5,4.7-0.6,5.6
		c-1.1,0.8-1.1,1.1-0.5,3.7c0.5,1.9,0.5,3.5,0.1,5.1c-0.7,3-0.9,3.3-2.2,2.1c-1-0.9-1.1-0.8-1.7,0.5c-0.4,0.8-0.6,2-0.6,2.6
		c0,2-1.8,5.5-2.9,5.5c-0.7,0-1.1,0.6-1.4,2.6c-0.4,2.9-3,6.3-4.8,6.3c-1.4,0-4.6-3-5.8-5.4c-1.6-3.3-2.5-7.5-1.9-8.3
		c0.3-0.4,1.3-0.8,2.2-1c1-0.2,2.1-1.1,2.9-2.2c1.4-2.1,4.4-4.9,5.1-4.9c0.3,0,1,0.6,1.7,1.4c1.3,1.5,2.1,1.4,2.2-0.4
		c0-0.7,0.5-1.8,1.1-2.6c1.2-1.5,1.4-3.1,0.6-3.6c-1.1-0.7-0.5-1.4,1.9-2.5c3-1.4,3.7-2.6,1.7-3.4c-2.1-0.8-2.4-0.7-2,0.7
		c0.2,0.8,0,1.5-0.7,2c-1.6,1.2-1.7,1-1.8-2.3c-0.1-2.2,0.1-3.1,0.7-3.3c0.4-0.2,0.8-0.8,0.8-1.3s0.3-1.3,0.7-1.7
		C792.8,596.6,796.2,596.4,796.6,597.1L796.6,597.1z M792.5,600c0,0.3,0.3,0.6,0.6,0.6s0.6-0.3,0.6-0.6s-0.3-0.6-0.6-0.6
		S792.5,599.7,792.5,600z M792.5,615.6c0,0.6,0.2,1.1,0.5,1.1c0.3,0,0.4-0.5,0.2-1.1c-0.2-0.6-0.4-1.1-0.5-1.1
		C792.6,614.5,792.5,615,792.5,615.6z M788,620.1c0,0.6,0.3,1.1,0.6,1.1s0.6-0.4,0.6-0.8s-0.3-1-0.6-1.1S788,619.4,788,620.1z
		 M801.9,599.2c0.3-0.2,1.4,0.5,2.5,1.6c1.8,1.9,1.8,2,1.2,4.5c-0.4,1.4-0.9,2.8-1.3,3.2c-0.4,0.4-0.7,1.5-0.7,2.5
		c0,1.4-0.5,2.3-1.8,3.5c-1.7,1.5-3.7,2.4-2.3,1c0.4-0.4,0.4-1.2,0-2.5c-0.5-1.7-0.4-2.1,0.7-3.3c1.3-1.4,1.3-1.5,0.5-3.2
		c-2.3-4.8-2.3-4.8-1.7-5.6c0.5-0.6,0.5-0.9-0.2-1.5c-1.3-1.1-0.4-1.8,1.1-0.8C800.8,599.2,801.6,599.4,801.9,599.2L801.9,599.2z
		 M690.9,601.3c2,2.9,2.6,7.7,1.4,11.6c-0.4,1.4-0.8,3.2-0.8,4c0,1.9-1.6,2.1-3.1,0.4c-0.6-0.6-1.5-1.1-2-1.1
		c-1.1,0-1.5-1.9-0.4-2.5c0.4-0.2,0.5-2.1,0.5-4.9c-0.1-2.7,0.1-5,0.5-5.8c0.4-0.7,0.7-1.7,0.7-2.3c0-1.1,0.5-1.8,1.2-1.8
		C689.1,598.9,690,600,690.9,601.3L690.9,601.3z M697.1,608.7c0.4,0.5,1.2,0.8,1.8,0.8c1.4,0,7.1,3.2,7.5,4.2c0.2,0.4,0,1.3-0.4,1.9
		c-0.6,1.2-0.7,1.2-1.5-0.4c-0.5-0.9-1.1-1.8-1.3-2.1c-0.7-0.8-0.7,1.7,0.1,3.1c0.5,1,0.4,1.4-1.1,2.9c-1.5,1.5-1.9,1.6-2.7,1
		c-0.5-0.4-1.4-0.9-2-1c-1.7-0.6-2.6-3.2-2.6-7.4C694.9,607.7,695.6,606.8,697.1,608.7L697.1,608.7z M836.9,615.5
		c-0.6,0.6-1-0.3-0.6-1c0.4-0.6,0.5-0.6,0.7,0C837.1,614.8,837.1,615.3,836.9,615.5L836.9,615.5z M733.9,616.1
		c0,1.5-0.9,2.9-1.7,2.9c-0.9,0-1-1.9-0.2-3.1C733.1,614.1,733.9,614.2,733.9,616.1L733.9,616.1z M679.3,617.1
		c0,0.1-0.3,0.2-0.6,0.2s-0.6-0.3-0.6-0.6c0-0.3,0.3-0.4,0.6-0.2S679.3,616.9,679.3,617.1z M809.2,617.1c0.5,0.7,0.6,1,0.1,1.5
		c-0.8,0.8-2.7-0.8-2.1-1.8C807.8,616,808.4,616,809.2,617.1L809.2,617.1z M811.9,619.5l-0.8,1.2l-0.4-1.5c-0.2-0.9-0.1-1.8,0.3-2.3
		C812.1,615.5,812.9,618,811.9,619.5z M805.2,620.4c0.2,3.2-1.1,7-2.5,7c-0.7,0-0.8,0.4-0.5,2.1c0.3,1.9,0.2,2.3-1.5,3.9l-1.9,1.8
		l-1.2-1.7c-0.7-0.9-1.6-1.7-2.1-1.7c-0.8,0-0.8,0.1-0.1,1c1.3,1.5,1.7,6.6,0.6,7.1c-1.2,0.5-2.1-0.2-3.8-2.7
		c-1.9-2.8-1.8-5.9,0.2-6.8c1.1-0.5,1.3-0.8,1-2.6c-0.2-1.2-0.1-2.2,0.2-2.4c0.3-0.2,1.9-1.9,3.4-3.8c3.2-3.8,3.9-4.3,6.3-4.1
		C805,617.6,805,617.7,805.2,620.4L805.2,620.4z M823.4,618.4c1.2,1.3,1,4.2-0.2,4.2c-1.1,0-2.4-2.8-2-4.2
		C821.7,617,822.2,617,823.4,618.4L823.4,618.4z M690.5,621.2c1.4,0.7,2.8,3.2,2.8,4.9c0,1.9-1.7,6.8-2.4,6.8c-2.2,0-6.6-6-6.6-9.1
		c0-3.4,0.4-3.9,3-3.4C688.6,620.6,690,621,690.5,621.2L690.5,621.2z M742.8,620.6c0,0.3,0.7,0.6,1.6,0.6c3.3,0,5.3,5.3,2.9,7.5
		c-1.3,1.2-4.2,1-4.3-0.2c0-0.5-0.2-1.4-0.5-2.1c-0.2-0.7-0.2-1.7,0.1-2.2c0.4-0.7,0.2-1.2-0.6-1.9c-0.6-0.5-1-1.2-0.7-1.6
		C741.9,619.9,742.8,619.9,742.8,620.6L742.8,620.6z M766.6,622.7c0.7,1.1,0.7,1.5,0.2,2.2c-1,1.2-2.8,1.1-2.8-0.3
		c0-1-0.2-1-1.4-0.6c-1.9,0.7-1.9,0.8-1.9-1.1c0-1.1,0.3-1.7,1-1.8C763.6,620.7,765.8,621.4,766.6,622.7L766.6,622.7z M808.1,621.2
		c0,0.3-0.3,0.7-0.6,0.9c-0.3,0.2-0.6,0-0.6-0.5s0.3-0.9,0.6-0.9C807.8,620.6,808.1,620.9,808.1,621.2z M812,622.6
		c0,0.8-0.7,1.1-1.3,0.5c-0.5-0.5,0.2-1.9,0.8-1.6C811.8,621.7,812,622.2,812,622.6z M733.8,623.4c1,0.6,1.8,1.4,1.8,1.7
		s0.5,0.6,1.1,0.6c0.6,0,1.1,0.4,1.1,0.8c0,0.5-0.3,0.8-0.6,0.8c-1,0-0.6,1.6,0.5,1.9c1.1,0.4,2.1,3.2,1.4,4.2c-1,1.6-5-0.4-5.8-2.9
		c-0.3-1-1.1-2.3-1.7-2.8c-0.6-0.5-1-1.3-0.8-1.6c0.2-0.3,0.4-1.3,0.3-2.2C731.2,622,731.4,622,733.8,623.4L733.8,623.4z
		 M757.5,626.4c-0.1,1.3-0.5,2.9-0.9,3.6c-0.5,1-0.4,1.5,0.3,2.3c0.5,0.6,0.9,1.3,0.9,1.7c0,0.9-1.5,0.8-1.9,0
		c-0.5-1.3-1.5,0.8-1.2,2.5c0.4,1.8-0.6,2.7-1.1,1c-0.4-1.1-0.8-1.3-2.7-1.2c-1.2,0.1-1.3-1.8-0.1-2.8c0.5-0.4,0.8-1.2,0.8-1.8
		c0-0.6,0.9-2.1,2-3.4c1.1-1.3,2-2.6,2-2.9c0-0.8,1.2-2,1.7-1.7C757.6,623.9,757.7,625.1,757.5,626.4L757.5,626.4z M773.6,625.7
		c0.7,1,1.1,2.5,1.2,4.6c0.1,2.7,0.4,3.4,2,5.2c1.1,1.1,2,2.2,2.1,2.4c0.1,0.2,1.9,0.3,3.9,0.3c3.4,0,3.7,0.1,3.5,1.1
		c-0.1,0.6-0.4,2.7-0.6,4.7c-0.4,3.7-1.9,6.9-3.1,6.5c-0.3-0.1-0.6-0.7-0.6-1.2c0-0.7-0.6-1.2-1.8-1.5c-1.1-0.3-2.2-1.1-2.9-2.4
		c-0.6-1.1-1.4-1.9-1.6-1.9c-1.1,0-2.2,2-1.9,3.5c0.3,1.3,0.5,1.5,1.7,1.2c0.7-0.2,1.6-0.2,1.9,0c0.8,0.5-0.9,1.9-2.2,1.9
		c-1.5,0-1.7,1.5-0.6,4.2c1.1,2.5,0.9,3.3-0.7,2.8c-0.8-0.3-1.1-0.1-1.1,0.9c0,1.8-2.2,4.8-4,5.5c-0.8,0.3-1.5,0.8-1.5,1.1
		c0,0.9-1.5,0.7-1.9-0.3c-0.5-1.3-0.4-3,0.2-3c0.5,0,1.2-3.9,1.6-8.5c0-0.5,0.5-1,0.9-1c0.9,0,2.2-2,1.7-2.8c-0.2-0.3,0.3-1.2,1-2.1
		c1.4-1.7,1.5-4.1,0.1-3c-1.3,1.1-2.7-1.8-2.8-6.2c-0.1-2.1-0.4-4.3-0.7-4.9c-0.8-1.5-0.7-3,0.2-5.2c0.4-1,0.9-2.3,1.1-2.8
		C769.2,623.4,772.3,623.9,773.6,625.7L773.6,625.7z M821.4,628.5c1.2,2.8,1,4.9-0.4,5.8c-0.3,0.2-0.6,0.9-0.6,1.5
		c0,2.1-2.8,7.5-4.2,8.2c-1.2,0.6-1.4,0.5-1.9-0.9c-0.8-2-0.3-3,1.5-3h1.5l-1.4-1.1c-0.8-0.6-1.6-1.6-1.8-2.2
		c-0.4-1.4-1.4-0.9-1.4,0.7c0,0.6-0.4,1.5-1,1.9c-0.8,0.6-0.9,0.9-0.3,2.2c0.9,2,0.9,3.1-0.2,2.7c-0.6-0.2-0.8-1.1-0.8-2.7
		c0-1.3-0.3-2.6-0.6-2.8c-1.3-0.8-1.7-3.1-0.8-4.5c0.5-0.8,0.7-1.8,0.5-2.5c-0.2-0.6-0.1-1.5,0.3-1.9c0.9-1,2.8-1.1,2.8,0
		c0,1,1.3,2,2,1.6c0.3-0.2,1.4-1.6,2.4-3c1-1.5,2.1-2.6,2.5-2.6C819.9,625.7,820.7,626.9,821.4,628.5L821.4,628.5z M700.5,629.2
		c0,1-0.4,3.3-0.9,5.1c-0.8,3-0.8,3.4,0.1,4c0.6,0.4,0.8,1.1,0.6,1.8c-0.2,0.6-0.1,1.7,0.3,2.3c0.5,0.9,0.5,1.5,0,2.4
		c-0.3,0.7-0.9,2.4-1.3,3.9c-1.3,5.1-3.4,4.7-6.2-1c-1.6-3.3-1.9-5.3-0.8-6.3c0.4-0.4,0.6-1.9,0.5-3.4c-0.1-2.3,0.1-3,1.2-4.1
		c0.7-0.7,1.5-2.2,1.7-3.2c0.5-2.7,2.4-4.6,3.8-3.9C700.1,627.2,700.5,628,700.5,629.2L700.5,629.2z M685.6,631.4
		c2.6,3.2,3.9,6.1,3.1,6.6c-1,0.6-0.4,9.1,0.8,10.4c1.1,1.2,1.3,3.4,0.3,5.4c-0.5,1.1-0.8,1.3-1.4,0.8c-0.4-0.3-0.7-1-0.7-1.4
		c0-0.4-0.4-0.8-0.8-0.8c-1.3,0-3.1-2.1-3.1-3.5c0-0.7-0.6-2.1-1.3-3.1c-1.2-1.6-1.3-2.3-1.1-6.4c0.1-2.5,0.3-5.4,0.4-6.5
		c0.1-1.1,0.3-2.4,0.3-2.9C682.1,628.3,683.6,628.9,685.6,631.4L685.6,631.4z M808.3,630.1c0.2,0.3-0.3,1.9-1,3.5
		c-1.9,4.2-2.3,6.6-1,7.5c0.8,0.6,1,1.5,0.9,5c-0.1,4-0.2,4.4-2,6.2c-1.5,1.5-2.2,1.9-3.4,1.7c-0.9-0.2-1.7,0-2.2,0.5
		c-0.4,0.5-1.3,0.8-2.1,0.7c-2.1-0.2-2.3-3.2-0.4-5.8c1.3-1.7,1.6-1.8,2.8-1.3c2.2,1,3-0.2,1.5-2.3c-1.3-1.7-1.7-5.3-0.6-5.9
		c0.3-0.2,0.4-1.1,0.2-2.2c-0.2-1.3-0.1-2,0.6-2.6c0.5-0.4,1.3-1.6,1.7-2.6c0.5-1.2,1.2-1.9,1.9-1.9c0.6,0,1.3-0.3,1.5-0.6
		C807.1,629.4,807.9,629.4,808.3,630.1L808.3,630.1z M704.5,634.6c0.3,0.9,0.9,1.7,1.3,1.7s1.1,0.5,1.5,1c0.7,1.1,3.1,2.5,4.1,2.6
		c0.7,0,1.9,2.5,2,3.8c0,1.1-1.4,1.3-1.8,0.3c-0.2-0.5-0.4-0.5-0.9-0.1c-0.5,0.4-0.3,1.2,0.6,2.8c1.1,2.1,1.1,2.3,0.3,3.8
		c-0.5,0.9-0.9,2.2-0.9,3s-0.3,1.5-0.7,1.7c-0.6,0.2-0.6,0.9-0.3,3c0.5,3.1,0.8,3.8,2.3,4.9c0.6,0.4,1,1.1,1,1.5
		c0,0.9,2.3,1.6,3,0.9c0.3-0.3,1.1-0.5,1.9-0.5c1.1,0,1.3,0.2,1,1.3c-0.2,0.7-0.3,1.6-0.3,2c0,0.4-0.4,0.7-0.8,0.7
		c-0.5,0-0.8,0.5-0.8,1.1c0,1.5-2.6,2.6-6.8,3l-3.2,0.3l-1.1-2.6c-0.6-1.4-1.1-3.1-1.1-3.8c0-0.7-0.5-1.7-1.1-2.2s-1.1-1.7-1.1-2.5
		c0-1-0.5-1.9-1.4-2.6l-1.4-1l1.1-4.7c0.6-2.8,1.5-5,2-5.4c0.5-0.4,0.8-1.1,0.6-1.5c-0.2-0.5-0.1-1.7,0.3-2.9
		c0.5-1.9,0.4-2.2-1.1-3.8c-1.6-1.7-1.9-3.4-0.9-6.3C701.8,632.2,703.9,632.9,704.5,634.6L704.5,634.6z M763.9,635.9
		c0.4,1.4,0.3,2.2-0.6,3.6c-1,1.7-1,1.8,0.1,4.7c0.9,2.4,1,3.5,0.7,5.9c-0.3,1.6-0.6,3.1-0.9,3.3c-0.8,0.8-2.5-2.2-2.6-4.3
		c0-1.1-0.5-3.5-1.1-5.3c-1.3-3.9-1.4-6.5-0.3-8.7C760.7,632.4,763.1,632.7,763.9,635.9L763.9,635.9z M745.1,638.2
		c-0.9,1-1.1,1.5-0.7,2.6c0.3,0.7,0.8,2.7,1.2,4.4c0.4,1.7,1.1,3.7,1.5,4.4c1,1.6,0.6,4.6-0.8,5.8c-1.4,1.2-5,2.3-6.6,1.9
		c-1.4-0.4-4.2-3.9-4.2-5.3c0-0.4-0.5-1.3-1.1-2c-1.3-1.4-2.9-5.4-3.2-8.3c-0.3-2.4,0.6-3.2,2.5-2.1c1.3,0.7,7.5-0.6,9-1.9
		C745,635.9,746.9,636.3,745.1,638.2L745.1,638.2z M752.6,639.3c0.3,0.6,1.2,2,1.9,3.2c1.5,2.5,1.5,3.5,0.2,5.7
		c-1.3,2.3-2.7,2.5-3.2,0.5c-0.2-0.9-1-2.9-1.7-4.5c-1.3-3-1.6-5.2-0.9-5.9C749.6,637.6,751.9,638.2,752.6,639.3L752.6,639.3z
		 M790.1,639.7c0.7,0.7,0.9,3.4,0.3,4c-0.5,0.5-3-1.9-3-3C787.5,639,788.9,638.5,790.1,639.7L790.1,639.7z M723,641.2
		c0.2,0.9,0.3,1.8,0.2,2.1c-0.1,0.3,0.1,1.2,0.3,2.1c0.6,2-0.4,3.1-1.6,2.1c-1-0.8-1.7-0.4-1.2,0.8c0.2,0.5,0.7,0.7,1.5,0.5
		c1-0.3,1.1,0,1.1,1.6c0,1-0.3,2.2-0.7,2.6c-0.8,0.8-2.8,0.9-3.6,0.1c-0.8-0.8-1.3,0.7-1.1,3.3c0.1,1.3-0.1,2-0.9,2.4
		c-1.5,0.8-1.6,0.5-1.6-3.4c0-2.5,0.4-4.2,1.5-6.6c0.9-1.9,1.6-4.3,1.6-5.7c0-2.1,0.2-2.5,1.4-2.9
		C722.4,639.4,722.7,639.6,723,641.2L723,641.2z M717.8,650.7c0,0.3,0.3,0.7,0.6,0.9c0.3,0.2,0.6,0.1,0.6-0.2c0-0.3-0.3-0.7-0.6-0.9
		C718,650.3,717.8,650.4,717.8,650.7z M792.8,650.9c-0.5,0.7-0.9,1.6-0.9,2.1c0,0.9-2.4,2.2-3.9,2.2c-0.5,0-1.3,0.6-1.8,1.3
		c-0.7,1-1,1.1-1.5,0.6c-1.2-1.1-0.1-3.2,2.5-5.1c1.4-1,2.7-1.8,2.9-1.8s1-0.5,1.8-1.2c1.3-1,1.5-1,1.7-0.3
		C793.6,649.2,793.3,650.2,792.8,650.9L792.8,650.9z M815.1,651.5c0.8,1.2,0.8,1.5-0.3,3.3c-0.7,1.1-1.5,2-2,2
		c-0.4,0-0.8,0.3-0.8,0.6c0,0.3-0.6,0.5-1.3,0.4c-1-0.1-1.3-0.6-1.4-1.9c-0.1-1,0.2-2,0.6-2.4c0.4-0.3,1.5-1.2,2.3-2
		c0.9-0.8,1.7-1.4,1.8-1.4C814.1,650.2,814.6,650.8,815.1,651.5L815.1,651.5z M760.1,656c0,0.9,0.1,2.4,0.3,3.2
		c0.3,1.1,0.2,1.5-0.4,1.5c-1.2,0-5.7,2.4-7.2,3.7c-1.3,1.2-3.4,1.3-4.7,0.1c-0.3-0.3-1.2-0.3-2.1-0.1c-1.2,0.2-1.7,0.1-1.9-0.6
		c-0.4-1.1,0.7-2.6,2-2.6c0.5,0,1.6-0.9,2.4-1.9c1.9-2.4,3.1-2.8,5.7-1.7c2.9,1.2,3.2,1.1,2.8-0.9c-0.2-1.2-0.1-2.2,0.6-3.2
		c0.9-1.3,0.9-1.4,1.7-0.3C759.8,653.9,760.1,655.1,760.1,656L760.1,656z M751.2,661.3c0,0.7,1.4,1.8,1.9,1.4
		c0.4-0.4-0.6-1.9-1.4-1.9C751.4,660.8,751.2,661,751.2,661.3L751.2,661.3z M695,655.4c0.4,0.7,0.9,1.4,1.1,1.6
		c0.7,0.5,0.9,4.5,0.2,4.8c-0.3,0.1-1.5-0.6-2.6-1.6l-2.1-1.8l1-2.1C693.7,653.8,694.1,653.7,695,655.4L695,655.4z M733.3,661.7
		c0.1,1.2,0.8,2.1,2.4,3.3c1.2,0.9,2.2,1.9,2.2,2.3c0,1.1-1.9,0.8-2.6-0.4c-1.4-2.3-2.3-1.4-3,3.1c-0.3,1.7,2.2,1.9,2.8,0.2l0.5-1.2
		l1.1,1.4c2.2,2.8,0.2,7.5-2.5,6c-1.2-0.7-1.7-0.3-1.7,1.4c0,1.6-0.9,2.2-2,1.3c-0.7-0.5-1-0.3-1.7,1.6c-0.7,1.8-1.2,2.3-2.2,2.3
		c-1.9,0-3.3,0.6-2.5,1.1c0.5,0.3,0.4,0.8-0.3,1.9c-1,1.5-1,1.5,0.3,2.5c1.1,0.9,1.2,1.2,0.8,3.4c-0.4,2.1-0.7,2.5-1.7,2.4
		c-0.9,0-1.2,0.2-0.9,0.7c0.2,0.4,0.1,1.4,0,2.2c-0.3,1.2-0.5,1.3-1.2,0.7c-0.5-0.4-1.2-1.6-1.6-2.6c-0.7-1.6-0.7-2,0.1-3.2
		c0.6-0.9,0.8-2,0.5-3.9c-0.3-2.1-0.1-2.9,0.8-4.2c0.7-0.9,1.2-2.2,1.2-3c0-1.8,0.9-4.3,2.2-5.6c0.6-0.6,1.4-2.6,1.9-4.4
		c0.5-1.8,1.6-4,2.5-4.9c0.9-0.9,1.8-2.6,2-3.7C730.9,659.3,733,658.7,733.3,661.7L733.3,661.7z M780.5,664.7
		c1.4,1.5,1.6,2.1,1.5,4.5c-0.2,3.9-0.5,4.7-2.5,5.7c-1.8,0.9-2.6,0.5-2.6-1.2c0-1-0.6-0.9-1.4,0.3c-0.7,0.9-0.8,0.9-1.8-0.1
		c-2.1-1.9-2.2-6.5-0.2-6.5c0.5,0,1.7,1,2.7,2.3c1.6,2,1.8,2.2,2.3,1.3c0.6-1.1-0.7-4.4-1.6-3.8c-0.8,0.5-2.8-0.8-2.8-1.9
		C774.1,662.5,778,662.2,780.5,664.7L780.5,664.7z M762.8,669.3c-0.1,2.4-0.4,3-1.4,3.5c-0.7,0.3-1.3,1-1.3,1.7
		c0,0.7-0.4,1.5-0.8,1.8c-0.6,0.5-1.1,0.3-2.2-0.9c-0.8-0.9-1.4-2-1.4-2.5c0-0.5-0.1-1.7-0.3-2.6c-0.3-1.3-0.1-1.8,0.7-2
		c0.5-0.2,1.2-0.1,1.6,0.2c0.8,0.8,1.5,0.7,1.5-0.2c0-0.9,1.5-1.9,3-2C762.8,666.4,763,666.8,762.8,669.3L762.8,669.3z M745.5,670.2
		c0.5,0.3,1.6,0.7,2.4,0.8c1,0.2,1.7,1.1,2.6,3c1.5,3.2,1.6,4,0.4,4c-0.5,0-0.8,0.4-0.8,0.8c0,0.5,0.5,0.8,1.3,0.7
		c0.9-0.1,1.3,0.2,1.4,1.1c0.1,0.7,0.5,1.3,1,1.3c1.4,0,2.1,2.2,1.4,3.8c-0.4,0.8-0.9,3.1-1.1,5.1c-0.3,2.6-0.9,4.4-2.3,6.6
		c-2,3.2-2.7,3.5-1.7,0.6c0.3-1,0.6-2.4,0.6-3s0.2-1.3,0.5-1.5c0.3-0.1,0.6-2.9,0.8-6.2c0.2-4.6,0.1-6-0.5-6c-0.8,0-1.4,1.7-1.4,4.4
		c0,2-1.3,3.9-2.6,3.9c-0.9,0-1,1.2-0.1,2.1c0.5,0.5,0.5,1-0.1,2c-0.7,1.3-0.7,1.8,0.4,7c0.5,2.4,0.5,2.6-1.9,5.8
		c-1.3,1.8-3.4,4.1-4.7,5s-2.4,2.3-2.6,3c-0.2,0.7-0.7,1.3-1.1,1.3c-1.2,0-0.7-11.1,0.5-12c0.9-0.7,1.3-2,0.5-1.9
		c-0.2,0-1.1,0.6-1.9,1.3c-1.5,1.2-1.5,1.4-1.6,7.4c0,3.4,0.1,6.8,0.3,7.6c0.6,2.2-2.5,6.6-4.6,6.6c-1.6,0-5.7-3.7-6.4-5.8
		c-0.4-1.1,0.7-3.7,2.1-4.8c0.5-0.4,0.9-1.6,0.9-2.8c0-1.6,0.4-2.5,1.8-3.9c1-1,2.1-2.6,2.4-3.5c0.4-1.3,0.9-1.8,2.1-1.9
		c2-0.2,2.7-2.2,1.2-3.3c-1.2-0.9-1.2-3.6,0.1-5.6c0.5-0.7,0.8-2.4,0.7-4.2c-0.1-4.5,0.4-7,1.7-8.4c2-2.2,3.5-5.4,2.8-6.3
		c-0.8-1-0.2-2.4,1.1-2.4c0.6,0,1.2-0.5,1.4-1.1C742.8,669.6,744,669.4,745.5,670.2L745.5,670.2z M766.9,675
		c-0.2,3.3-0.4,3.6-1.7,3.6c-1.4,0-1.9-1.7-1.1-4.5c0.5-1.9,0.8-2.3,1.8-2.1C766.9,672.2,767,672.5,766.9,675L766.9,675z
		 M774.1,678.2c0,0.6-0.3,1-0.7,0.8c-1.1-0.4-1.8-1.9-1.3-3c0.4-1,0.4-1,1.2,0C773.7,676.7,774.1,677.7,774.1,678.2z M707,680.4
		c0.5,0.5,1,0.5,2.1,0c0.8-0.4,1.8-0.7,2.2-0.7c1.2,0,2.2,3.1,1.8,5.4c-0.2,1.1-0.4,3.2-0.5,4.6c-0.1,2.3-0.2,2.5-1.5,2.4
		c-1.1-0.1-1.7,0.3-2.7,2.2l-1.3,2.3l-1.3-1.5c-0.7-0.8-1.4-2.2-1.6-3c-0.2-0.8-0.5-2.3-0.8-3.2c-0.6-2.1-0.1-5,1.4-7.4
		C705.9,679.6,706.1,679.5,707,680.4L707,680.4z M774.1,681.4c0,0.8-1,1.3-1.3,0.7c-0.3-0.5,0.1-1.2,0.9-1.2
		C773.9,680.9,774.1,681.1,774.1,681.4z M770.5,685.9c0.2,0.6-0.1,1.8-0.8,2.9c-0.6,1-1.2,2.8-1.2,3.9c0,1.1-0.4,2.9-0.8,4
		c-1.1,2.7-1.1,3.4,0.3,2.1c0.6-0.6,1.6-2.6,2.2-4.4c1.2-3.9,2.9-4.9,2.9-1.8c0,1.2,0.4,2.2,1.1,2.8c0.6,0.5,1.1,1.6,1.1,2.4
		c0,1.9-1.4,4.5-2.8,5.3c-0.7,0.4-1.1,1.2-1.1,2c0,1-0.8,2.3-2.5,3.9c-2.5,2.5-2.5,2.5-4.2,1.6c-0.9-0.5-1.9-1.3-2.3-1.8
		c-0.5-0.9-0.6-0.9-1.2-0.1c-0.5,0.7-0.7,0.7-1.4-0.2c-0.7-0.9-0.7-1.3,0-2.6c0.6-1.2,1.3-1.6,2.9-1.7c1.7-0.1,2.1-0.4,2.5-1.7
		c0.3-1.2,0.2-1.5-0.5-1.5c-0.5,0-1.3-0.2-1.7-0.5c-0.7-0.4-0.7-0.8-0.1-2.1c0.6-1.3,0.6-1.6-0.2-2.2c-0.8-0.6-0.8-1-0.2-3.3
		c0.6-2.2,0.6-2.7-0.1-3.1c-0.6-0.4-0.7-0.6-0.1-1.2c0.4-0.4,0.7-1.2,0.7-1.9c0-1.1,0.9-2.5,1.7-2.5c0.2,0,0.5,0.5,0.7,1.2
		c0.2,0.6,0.6,1,0.9,0.8c0.3-0.2,0.4-0.7,0.2-1.2s0-1.1,0.4-1.3C767.8,683.1,770,684.5,770.5,685.9L770.5,685.9z M759,685
		c0.8,0.9,0.3,3.6-0.6,3.6c-0.3,0-0.8-0.7-1.1-1.5C756.4,684.7,757.5,683.3,759,685L759,685z M727.2,685.9c0,0.3-0.4,0.6-0.8,0.6
		c-0.5,0-0.8-0.3-0.8-0.6s0.4-0.6,0.8-0.6C726.9,685.3,727.2,685.6,727.2,685.9z M728.7,692.1c0.6,1.2,0.8,2.2,0.5,3.2
		c-0.2,0.8-0.5,2.4-0.5,3.4c-0.1,2.4-1.4,5.6-2.3,5.6c-1.1,0-1.4-1.1-0.5-1.5c1.2-0.4,1.1-1.9-0.1-2.8c-0.9-0.7-0.9-0.8,0.1-2.7
		c0.7-1.3,1-2.6,0.8-3.8C726,690.1,727.2,689.3,728.7,692.1L728.7,692.1z M758.4,696.9c0,2.4-1.2,7.7-2.1,9.3
		c-0.3,0.6-1.2,1.7-2,2.4c-1.2,1.1-1.6,1.2-2.6,0.7c-1.3-0.7-1.4-1.5-0.5-4.7c0.8-2.7,1.9-4.2,3.3-4.2c0.7,0,1.1-0.6,1.3-2.3
		C756.6,693.9,758.5,693.1,758.4,696.9L758.4,696.9z M710,700c0,0.7,0.4,1.9,0.9,2.6c0.7,1,0.8,1.5,0.3,2.3
		c-0.4,0.6-0.6,1.4-0.6,1.8c0,2.8-3.6,5.6-5.3,4.2c-2-1.7-1.3-4.4,1.2-4.4c1.5,0,1.5-0.3,0.7-3.8c-0.6-2.7-0.1-4,1.8-4
		C709.6,698.7,710,699.1,710,700L710,700z M723.7,709.4l1.4,2.1l-1.3,1.1c-1.2,1-1.4,1-2.3,0.2c-0.5-0.5-1-1.4-1-2.1
		s-0.3-1.5-0.6-1.8c-0.3-0.3-0.5-1-0.3-1.5C720.1,706.1,722.2,707,723.7,709.4L723.7,709.4z M748.4,709.6c0.4,1.1,0.3,1.8-0.5,2.9
		c-0.5,0.8-1.3,2-1.6,2.6c-0.3,0.6-1.1,1.2-1.7,1.3s-1.2,0.5-1.4,0.8c-0.5,0.8-2.1-0.5-2.1-1.7c0-0.9,0.6-1.6,2.8-3.7
		c0.6-0.6,1.7-1.7,2.4-2.4C747.9,707.9,747.8,707.9,748.4,709.6L748.4,709.6z M704.9,712.7c0,0.3-0.3,0.5-0.6,0.5
		c-0.3,0-0.6-0.4-0.6-0.9c0-0.5,0.3-0.7,0.6-0.5C704.7,712,704.9,712.4,704.9,712.7z M706,719.3c0,0.3-0.3,0.6-0.6,0.6
		s-0.6-0.3-0.6-0.6c0-0.3,0.3-0.6,0.6-0.6S706,719,706,719.3z M742.3,722.4c0,0.8-1.2,1.1-1.9,0.4c-0.5-0.5,0.7-1.9,1.4-1.5
		C742.1,721.5,742.3,722,742.3,722.4z M776.7,438.7c-0.6,0.6-0.5,2.4,0.1,2.4c0.3,0,0.7-0.2,0.9-0.6
		C778.1,439.9,777.2,438.2,776.7,438.7L776.7,438.7z M778.4,445.5c-1.8,2.1-1.8,5.7,0.1,5.7c0.8,0,0.9-0.4,0.7-2.2
		c-0.1-1.2,0.1-2.6,0.4-3C780.6,444.8,779.4,444.3,778.4,445.5L778.4,445.5z M782.5,447c0,0.8,1,2.2,1.3,1.9
		c0.2-0.2-0.1-0.8-0.5-1.4C782.8,446.9,782.5,446.7,782.5,447L782.5,447z M748.1,451.7c-0.4,0.7,0.1,1.7,0.9,1.7
		c0.3,0,0.5-0.5,0.5-1.1C749.5,451.1,748.7,450.8,748.1,451.7z M751,455.9c-0.2,0.5-0.8,0.8-1.4,0.8c-0.6,0-1.4,0.5-1.7,1.1
		c-0.6,1.2-0.8,7.4-0.3,15c0.1,1.4-0.1,2.9-0.4,3.4c-0.4,0.6-0.2,1.4,0.4,2.6c1.1,2.1,1.7,2.2,2.6,0.7c0.5-0.8,0.4-1.4-0.2-2.2
		c-0.6-0.8-0.7-1.8-0.3-3.7c0.3-1.6,0.3-3.4-0.1-5c-0.5-2-0.5-2.6,0.1-3.4c0.4-0.5,1-2.6,1.4-4.6c0.3-2,0.8-4.1,1-4.7
		c0.2-0.6,0.2-1-0.1-1C751.6,455.1,751.2,455.4,751,455.9L751,455.9z M778.3,458.8c0.2,0.5,0.5,1.9,0.5,2.9c0.1,2.4,1.4,2.6,2.5,0.4
		c0.7-1.5,0.7-1.7-0.8-2.9C778.5,457.6,777.7,457.5,778.3,458.8L778.3,458.8z M693.8,458.9c0,0.3,0.3,0.7,0.6,0.9
		c0.3,0.2,0.6,0.1,0.6-0.2s-0.3-0.7-0.6-0.9S693.8,458.6,693.8,458.9z M679.5,461.5c-0.2,0.5-0.1,1.5,0.3,2.2
		c0.7,1.6,0.4,2.8-1.2,4.6c-1.4,1.5-0.6,2.8,1,1.6c1.1-0.8,2.2-6.5,1.6-8.3C680.8,460.4,679.9,460.3,679.5,461.5L679.5,461.5z
		 M693.5,462.9c-0.2,0.7-0.1,1.5,0.2,1.8c0.7,0.7,1,0.5,1.3-1.2C695.2,461.8,694,461.3,693.5,462.9L693.5,462.9z M672,463.1
		c0,0.1,0.3,0.4,0.6,0.6s0.6,0.1,0.6-0.2s-0.3-0.6-0.6-0.6S672,463,672,463.1z M762.1,465.4c0.4,2.3,1.2,3.5,1.8,2.9
		c0.6-0.6-0.6-4.5-1.4-4.8C761.8,463.3,761.7,463.7,762.1,465.4L762.1,465.4z M670.9,467.6c0,0.7,0.2,1.4,0.5,1.6s0.6,1.1,0.8,2
		c0.7,3.7,1.9,0.8,1.5-3.9c0-0.3-0.7-0.6-1.4-0.8C671.2,466.4,670.9,466.6,670.9,467.6L670.9,467.6z M693.3,467.5
		c-0.3,0.4-0.5,1.5-0.3,2.4c0.2,1.1-0.1,2.6-1.1,4.7c-1.5,3.2-1.9,5.6-0.8,5.6c0.3,0,0.5-0.5,0.4-1.1c-0.1-0.6,0.3-1.4,0.8-1.8
		c1.1-0.8,2.1-3.8,2.5-7.8C695,466.8,694.5,466.1,693.3,467.5L693.3,467.5z M764,472.6c0,0.5,0.3,0.9,0.6,0.9c0.3,0,0.6-0.2,0.6-0.5
		s-0.3-0.7-0.6-0.9C764.3,471.9,764,472.1,764,472.6z M795.6,473.9c-0.5,0.8,0.1,4.8,0.7,5c0.4,0.1,0.6-0.7,0.6-2.3
		C796.9,474.2,796.3,472.9,795.6,473.9L795.6,473.9z M672.9,476.9c-0.2,0.5-0.2,1.4,0,2c0.4,0.9,0.4,0.9,0.7,0c0.1-0.5,0.1-1.4,0-2
		C673.3,476,673.3,476,672.9,476.9z M673.2,481.8c0,0.3,0.3,0.7,0.6,0.9s0.6,0.1,0.6-0.2c0-0.3-0.3-0.7-0.6-0.9
		S673.2,481.5,673.2,481.8z M784.7,482.6c0,1,0.9,1.6,1.6,1.2c0.7-0.5,0.1-2-0.9-2C785,481.8,784.7,482.2,784.7,482.6z M757.9,483.7
		c0,0.6,0.1,0.9,0.3,0.7c0.2-0.2,0.2-0.7,0-1.1C758.1,482.9,758,483.1,757.9,483.7L757.9,483.7z M820.1,484.6
		c-0.2,0.3-0.1,0.6,0.2,0.6c0.3,0,0.6-0.3,0.6-0.6s-0.1-0.6-0.2-0.6C820.5,484.1,820.3,484.3,820.1,484.6z M674.8,487.1
		c0,1.1,0.3,2,0.6,2s0.6-0.7,0.6-1.6c0-0.9-0.3-1.8-0.6-2C675.1,485.3,674.8,485.9,674.8,487.1z M784,488.3
		c-0.7,0.7-1.1,0.8-1.7,0.3c-0.6-0.5-0.9-0.5-1.2-0.1c-0.6,0.9,0.3,1.8,1.4,1.4c0.7-0.2,1.2,0,1.4,0.6c0.3,0.9,0.4,0.9,1.1-0.1
		c0.8-1.1,1-3,0.3-3C785.1,487.4,784.5,487.8,784,488.3L784,488.3z M782.4,494.6c0,0.6,0.3,1.2,0.6,1.4c0.7,0.4,0.8,0.3,1.3-1.3
		c0.3-1,0.2-1.3-0.8-1.3C782.8,493.5,782.4,493.9,782.4,494.6L782.4,494.6z M812,500.7c0,0.3,0.3,0.7,0.6,0.9
		c0.3,0.2,0.6,0.1,0.6-0.2s-0.3-0.7-0.6-0.9S812,500.4,812,500.7z M785.2,502.2c0,0.1,0.3,0.4,0.6,0.6c0.3,0.2,0.6,0.1,0.6-0.2
		c0-0.3-0.3-0.6-0.6-0.6S785.2,502,785.2,502.2z M808.7,505.5c0,0.6,0.1,0.9,0.3,0.7s0.2-0.7,0-1.1
		C808.8,504.7,808.7,504.8,808.7,505.5L808.7,505.5z M830.4,506.4c0,0.3,0.3,0.6,0.6,0.6c0.3,0,0.6-0.3,0.6-0.6s-0.3-0.6-0.6-0.6
		C830.6,505.8,830.4,506.1,830.4,506.4z M808.1,508.5c-0.3,0.6-0.5,2.2-0.3,3.6c0.3,1.9,0.1,2.5-0.5,2.8c-0.6,0.2-0.9,1.4-0.9,4.4
		c0,2.2-0.3,5-0.6,6.2c-0.4,1.8-0.3,2.3,0.9,3.5c0.7,0.8,1.3,1.9,1.3,2.5c0,1.1,1.4,2.8,2.3,2.8c0.3,0,0.5-0.4,0.5-1
		c0-1-1.4-5.7-2.4-7.8c-0.5-1-0.3-1.8,0.7-4c1.4-3.1,1.5-4.2,0.7-9.7C809.2,507.4,809,506.9,808.1,508.5L808.1,508.5z M703.7,518.2
		c-0.2,1-0.2,1.9-0.1,2.1c0.4,0.4,1.8-1.9,1.9-2.9C705.5,515.6,704,516.3,703.7,518.2L703.7,518.2z M664.6,521.8
		c-0.7,0.7-0.4,1.8,0.5,1.5c0.5-0.2,0.8-0.7,0.8-1.1C665.9,521.4,665.2,521.2,664.6,521.8L664.6,521.8z M841.3,521.9
		c-0.2,0.3,0.2,0.8,0.8,1.2c1,0.5,1.2,0.5,1-0.3C842.9,521.6,841.8,521.1,841.3,521.9L841.3,521.9z M842.7,529
		c0,0.5,0.3,0.7,0.6,0.5c0.3-0.2,0.6-0.6,0.6-0.9c0-0.3-0.3-0.5-0.6-0.5C842.9,528.1,842.7,528.5,842.7,529z M710.5,532.5
		c0,0.3,0.3,0.7,0.6,0.9s0.6,0,0.6-0.5s-0.3-0.9-0.6-0.9S710.5,532.3,710.5,532.5z M841.8,534.9c-0.6,1.3-1.5,3-2.1,3.9
		c-1.4,2-1.3,2.9,0.2,2.5c0.7-0.2,1.6,0,2.2,0.6c0.5,0.5,1.1,0.8,1.3,0.6c0.6-0.6,0.5-9.5,0-9.7
		C843.1,532.7,842.4,533.6,841.8,534.9L841.8,534.9z M842.6,538.5c0,0.1-0.3,0.2-0.6,0.2s-0.6-0.3-0.6-0.6c0-0.3,0.3-0.4,0.6-0.2
		S842.6,538.3,842.6,538.5z M644.2,541.7c0,0.6,0.1,0.9,0.3,0.7c0.2-0.2,0.2-0.7,0-1.1C644.3,540.9,644.2,541.1,644.2,541.7
		L644.2,541.7z M841.8,548.7c-0.4,0.7,0.2,2.3,0.8,2.3c0.3,0,0.5-0.4,0.5-0.8v-1.3C843.2,548.2,842.2,548.1,841.8,548.7z
		 M672.9,551.6c-0.5,1.9-0.4,3.2,0.2,3.2c0.3,0,0.7-0.8,0.9-1.7C674.4,551.1,673.5,549.7,672.9,551.6L672.9,551.6z M833.1,552.1
		c0,0.6,0.3,1.1,0.6,1.1s0.6-0.5,0.6-1.1c0-0.6-0.3-1.1-0.6-1.1S833.1,551.5,833.1,552.1z M644.1,552.6c0,0.3,0.5,0.9,1.1,1.5
		c0.9,0.8,1.1,0.8,1.1,0.2c0-0.9-1.1-2.1-1.8-2.1C644.3,552.1,644.1,552.3,644.1,552.6L644.1,552.6z M845.1,582.5
		c-0.4,1,0.2,2.1,0.9,1.7c0.7-0.4,0.7-2.5-0.1-2.5C845.6,581.6,845.2,582,845.1,582.5L845.1,582.5z M839.8,585.7
		c0,1,0.6,1.5,1.2,1.2c0.6-0.3,0-1.9-0.7-1.9C840.1,585,839.8,585.3,839.8,585.7z M834.6,602c-0.2,0.6,0.3,1.5,1.4,2.5
		c1.8,1.6,2.9,1.8,1.6,0.3c-0.4-0.4-0.6-1.4-0.5-2.1c0.1-1-0.1-1.3-1-1.5C835.5,601.2,834.8,601.5,834.6,602z M831.5,605.3
		c0,0.1,0.3,0.4,0.6,0.6c0.3,0.2,0.6,0.1,0.6-0.2s-0.3-0.6-0.6-0.6C831.7,605.1,831.5,605.2,831.5,605.3z M662,622
		c-0.3,0.4-0.5,0.9-0.3,1.1c0.5,0.5,2.4-0.6,2.4-1.3C664.2,621,662.7,621.1,662,622L662,622z M670.5,638.2c-0.4,1.1,0.1,2.5,0.9,2.5
		c0.7,0,0.8-2.6,0-3.1C671.1,637.5,670.7,637.7,670.5,638.2z M666.7,639.1c-0.2,0.3,0,1,0.3,1.4c0.6,0.8,0.8,0.8,1.2,0
		C669,639,667.5,637.7,666.7,639.1L666.7,639.1z M669.2,642.6c0,0.5,0.4,0.9,0.9,0.9c1,0,0.8-1.2-0.2-1.5
		C669.5,641.9,669.2,642.2,669.2,642.6z M677.5,653.3c0,0.5,0.3,0.7,0.6,0.5s0.6-0.6,0.6-0.9c0-0.3-0.3-0.5-0.6-0.5
		S677.5,652.8,677.5,653.3z M683.6,662.6c-0.7,0.6-0.7,1-0.2,2.6c0.6,1.7,0.7,1.8,1.1,0.8c0.2-0.6,0.6-1.6,0.9-2.1
		C686.4,662.2,685.2,661.3,683.6,662.6L683.6,662.6z M683.1,669.1c0,0.3,0.3,0.7,0.6,0.9s0.6,0,0.6-0.5c0-0.5-0.3-0.9-0.6-0.9
		S683.1,668.8,683.1,669.1z"/>
</g>
</svg>
