<?xml version="1.0" encoding="utf-8"?>
<!-- Generator: Adobe Illustrator 23.1.1, SVG Export Plug-In . SVG Version: 6.00 Build 0)  -->
<svg version="1.1" id="Layer_1" xmlns="http://www.w3.org/2000/svg" xmlns:xlink="http://www.w3.org/1999/xlink" x="0px" y="0px"
	 viewBox="0 0 150 300" style="enable-background:new 0 0 150 300;" xml:space="preserve">
<style type="text/css">
	.st0{fill:#010101;}
</style>
<g transform="translate(0 279) scale(0.1 -0.1)">
	<path class="st0" d="M1391.7-142c-28.1,92-102.2,255.6-125.2,277.3c-8.9,7.7-38.3,31.9-63.9,51.1c-37.1,26.8-46,30.7-39.6,12.8
		c19.2-53.7-16.6,5.1-77.9,125.2c-43.4,88.2-79.2,141.8-108.6,163.6l-44.7,33.2l10.2-31.9c5.1-17.9,11.5-103.5,14.1-191.7l3.8-159.7
		l-10.2,148.2c-11.5,168.7-46,272.2-116.3,355.2c-24.3,28.1-46,51.1-49.8,51.1c-8.9,1.3,7.7-235.1,26.8-356.5
		c17.9-124,66.4-300.3,108.6-393.6c19.2-39.6,39.6-84.3,46-98.4c7.7-17.9,3.8-16.6-11.5,5.1C874.1-42.3,796.2,256.7,770.6,550.6
		l-15.3,171.2l-80.5,99.7c-92,115-154.6,217.2-198.1,325.8c-49.8,125.2-57.5,126.5-77.9,7.7c-14.1-80.5,2.6-193,28.1-193
		c6.4,0,11.5-8.9,11.5-19.2c0-10.2,3.8-19.2,10.2-19.2c5.1,0,23-12.8,40.9-26.8l31.9-26.8L478,894.3c-26.8,14.1-56.2,46-72.8,80.5
		l-29.4,57.5v-57.5c0-61.3,8.9-117.6,42.2-293.9c40.9-222.3,75.4-291.3,147-295.2c30.7-2.6,30.7-2.6,5.1-7.7
		c-48.6-8.9-100.9,39.6-124,115c-80.5,270.9-100.9,562.3-48.6,722c23,71.6,24.3,88.2,10.2,171.2l-15.3,90.7l-16.6-54.9
		c-23-76.7-28.1-57.5-6.4,25.6c10.2,38.3,17.9,112.5,16.6,166.1c0,92-1.3,94.6-19.2,57.5c-198.1-420.4-299-659.4-299-715.6
		c0-16.6-5.1-33.2-11.5-38.3c-6.4-3.8-19.2-38.3-26.8-76.7S10.3,767.8,5.2,764c-12.8-7.7,40.9,195.5,83.1,316.9
		c17.9,51.1,63.9,157.2,102.2,237.7c38.3,80.5,67.7,148.2,65.2,150.8c-2.6,2.6-20.4-15.3-39.6-39.6c-17.9-24.3-52.4-56.2-74.1-71.6
		c-38.3-25.6-37.1-23,8.9,20.4c70.3,67.7,124,139.3,164.8,218.5c38.3,77.9,40.9,90.7,11.5,66.4c-19.2-16.6-19.2-15.3-5.1,11.5
		c8.9,15.3,21.7,25.6,29.4,20.4c7.7-5.1,11.5-1.3,7.7,8.9s6.4,43.4,21.7,75.4c15.3,31.9,37.1,95.8,48.6,141.8s24.3,95.8,29.4,108.6
		c5.1,14.1-20.4-2.6-60.1-39.6l-67.7-63.9l70.3,76.7c103.5,116.3,236.4,430.6,250.5,596.8c8.9,98.4-8.9,155.9-51.1,170
		c-48.6,15.3,107.3,31.9,196.8,20.4c80.5-8.9,81.8-10.2,37.1-21.7c-56.2-16.6-92-77.9-127.8-216c-33.2-130.3-33.2-250.5,0-324.6
		c14.1-30.7,23-58.8,20.4-62.6c-14.1-12.8,51.1-113.7,115-177.6c53.7-54.9,106.1-86.9,237.7-150.8c93.3-46,166.1-83.1,161-83.1
		c-21.7,0-270.9,115-329.7,153.3c-138,88.2-233.8,241.5-253,402.5l-10.2,89.4l-35.8-76.7c-46-98.4-40.9-147,29.4-290.1
		c28.1-60.1,52.4-116.3,52.4-125.2c0-10.2,10.2-29.4,23-43.4c20.4-25.6,20.4-25.6,0-8.9c-21.7,15.3-23,12.8-23-46
		c0-54.9,7.7-74.1,65.2-155.9c69-98.4,95.8-115,181.5-117.6l53.7-2.6l-44.7-7.7c-37.1-6.4-40.9-10.2-24.3-20.4
		c11.5-7.7,69-58.8,127.8-115s90.7-92,71.6-79.2s-71.6,58.8-115,103.5c-94.6,93.3-209.6,161-145.7,85.6
		c25.6-30.7,85.6-173.8,84.3-200.6c0-14.1-8.9-1.3-19.2,26.8c-24.3,69-72.8,159.7-84.3,159.7c-6.4,0-10.2,6.4-10.2,15.3
		c0,8.9-15.3,38.3-34.5,66.4l-35.8,51.1l-7.7-51.1l-7.7-49.8l-2.6,57.5c-1.3,39.6-12.8,76.7-35.8,112.5
		c-31.9,48.6-35.8,51.1-57.5,33.2c-14.1-14.1-33.2-17.9-56.2-12.8c-31.9,8.9-33.2,10.2-11.5,33.2c12.8,14.1,33.2,25.6,46,25.6
		c20.4,0,17.9,10.2-19.2,79.2c-24.3,44.7-52.4,113.7-63.9,154.6c-10.2,42.2-21.7,77.9-25.6,81.8c-7.7,7.7-29.4-42.2-40.9-95.8
		c-5.1-26.8-3.8-30.7,6.4-15.3c11.5,15.3,12.8,10.2,6.4-19.2c-5.1-21.7-15.3-46-23-56.2c-7.7-10.2-14.1-70.3-14.1-140.6
		c0-152.1,28.1-239,131.6-410.2c39.6-67.7,84.3-147,97.1-176.3c26.8-60.1,23-58.8,212.1-57.5c107.3,1.3,108.6,1.3,31.9-8.9
		c-42.2-5.1-107.3-10.2-144.4-11.5c-61.3-1.3-67.7-3.8-60.1-26.8c3.8-12.8,15.3-63.9,24.3-111.2c15.3-84.3,16.6-88.2,72.8-117.6
		c60.1-31.9,118.8-48.6,222.3-62.6c47.3-6.4,56.2-11.5,35.8-17.9c-35.8-10.2-172.5,21.7-247.9,58.8l-58.8,28.1l-1.3-44.7
		c-1.3-38.3,10.2-56.2,93.3-140.6c52.4-53.7,107.3-112.5,121.4-132.9c21.7-26.8,38.3-34.5,80.5-35.8l53.7-2.6l-44.7-8.9l-44.7-7.7
		l38.3-11.5c70.3-21.7,155.9-10.2,242.8,29.4c95.8,46,108.6,44.7,25.6-1.3c-51.1-29.4-139.3-54.9-221.1-62.6
		c-28.1-3.8-25.6-8.9,31.9-74.1c34.5-38.3,79.2-99.7,99.7-134.2c37.1-66.4,53.7-83.1,108.6-111.2c42.2-21.7,113.7-86.9,131.6-118.8
		c7.7-14.1-20.4,5.1-60.1,40.9c-70.3,63.9-97.1,80.5-97.1,57.5c0-5.1,20.4-70.3,44.7-143.1c24.3-74.1,43.4-138,40.9-144.4
		C1417.2-211,1404.4-182.9,1391.7-142z M752.7,804.9c-3.8,12.8-10.2,54.9-14.1,93.3c-3.8,38.3-15.3,99.7-25.6,135.5
		c-17.9,60.1-23,67.7-75.4,86.9c-31.9,12.8-80.5,44.7-108.6,72.8c-29.4,26.8-52.4,46-52.4,42.2s19.2-48.6,42.2-98.4
		c33.2-72.8,61.3-108.6,131.6-172.5c48.6-43.4,80.5-79.2,72.8-79.2c-8.9,0-17.9,5.1-23,11.5c-3.8,6.4-30.7,30.7-61.3,54.9
		c-62.6,48.6-42.2,16.6,60.1-95.8c17.9-19.2,28.1-34.5,24.3-34.5c-3.8,0,0-8.9,8.9-19.2C754,776.8,761.7,778,752.7,804.9z
		 M681.2,1134.6c0,12.8-51.1,108.6-94.6,176.3c-83.1,130.3-125.2,230-153.3,360.4c-2.6,14.1-5.1-24.3-6.4-85.6
		c-1.3-141.8,15.3-219.8,66.4-305.4C539.3,1203.6,681.2,1093.7,681.2,1134.6z"/>
</g>
</svg>
