<?xml version="1.0" encoding="utf-8"?>
<!-- Generator: Adobe Illustrator 24.0.0, SVG Export Plug-In . SVG Version: 6.00 Build 0)  -->
<svg version="1.1" id="Layer_1" xmlns="http://www.w3.org/2000/svg" xmlns:xlink="http://www.w3.org/1999/xlink" x="0px" y="0px"
	 viewBox="0 0 234 300" style="enable-background:new 0 0 234 300;" xml:space="preserve">
<style type="text/css">
	.st0{fill:#010101;}
</style>
<g id="layer3" transform="translate(-.50722 -27.893)">
	<path id="path2948" class="st0" d="M91.3,31.8c6.7,22.5,14.3,45.2,13.8,68.9c4.1,8.9-13.2,16.6-3.3,18.5
		c-0.8,17.7-9.7,34.9-22.8,46.7c-0.1-6.7-6.7,9.9-13,6c-6.5,6.4-2.6,7.6,3.7,5.3c-8.4,10.8-19.4,23.7-34.9,19.3
		c-7.3-2-17.2,2.2-3.9,3.1c7-2,28.5,2.5,13.2,8.9c-8.7,7.7-5.1,23.3-16.3,29.2c15.1-0.1,10.1-27.5,22.3-26
		c4,17.9-14.7,23.3-24.9,32.9c-4,8-15.9-8.4-14.4,2.2c10.8-2.4,5.2,14.5-2.6,16.2c-3.6,3.7-14.3,15.5-2.2,9.4
		c6-8.2,14.1-13.7,19.8-22.9c8.7-7.6,23.5-17,29-22.5c2.3,3.6,1.9-11.5,10.7-6.4c12.7-3.9-0.8,12,9.9,12.7
		c18.4,9.9-11.8,16.3-17.8,23.1c-2.7,3.6-20.5,16.6-10,13.9c9.5-5.9,16.3-16.3,27.9-19c13.6-13.4-1,14.8,8.2,19.2
		c4.8,11.6-6,25.9-6.5,33.6c6.4,13,5-10.2,9.5-14.5c8.2-12.8-5.1-24.6-1.5-37.8c-0.8-8,10.7-22.5,9.5-6.5
		c-1,14.3,5.3,26.8,11.1,38.9c0.8,4.8-8,11.6,0.9,12.9c5.1-4.9,2.9-13.2,3.4-17.3c8.3,7.9,0.7,20.3,8.4,28.6
		c10.1,9.3,39.5,20.8,66.3,19.4c29.7-14.2-11.1,1.9-12.8-6.2c-8,6.2-15.8-15.1-11.8-1.1c5.4-3-21.9,2.7-29.6-13.7
		c-15.7,0.9-9-31.5-12.6-44.5c0.8,5.8,41.1,41,53,36.4c0,6.9,14.2,5,14.8-2.1c-17.1,9.9-8-15.3-40.3-30.8
		c5.1-8.3-12.6-32.3-12.1-38.7c12.4,8.7,21.9,21.1,33.5,30.8c7.7,2,27,2.6,31.4-0.4c-12.4-7.2-32.8,4.2-36-15.4
		c-17-15.6-23.6-22.3-32-27.4c-1.9-13.4,10.8-22.9,11.8-35.2c7.5,3.8,8.2,7.6,18.6,8.7c5,12.8,17.1,16.5,29.4,18.2
		c9.4,9.5,14.2,23.2,19.6,34.7c-1.3,6.1,1.9,26,6.8,20.9c-4.1-13.8,6-24.2-6.6-34.9c-2.5-7.6-7.2-12.8,1.4-14.3
		c4-1.8,19.9,1.2,8.3-3.1c5.3-2.9,22.8-13.9,7.1-8.2c-7.3,5.6-17.5,7.9-24.8,8c-8.2-5.9-9.7-20.1-17-24.4c13.6,6.3-4-9.6-10.4-5
		c-8.5-0.5-14.3-2.9-12.9-16.9c10.7,7.1,24.1,11.7,38.6,12.8c11.6-3.1,27.5,13,33.8,8.7c-10-9.5-21.8-15.1-36.1-14
		c-5.2-1.1-25.2-3-20.2-8.3c6.3-1,19.1,2.2,16.3-4.6c9.2-7.6,23.5-8.5,33.2-6.2c-5.5-6.7-25.9-4.7-34,2.8
		c-16.1,7.5-38.3,7.5-50.7-2.6c-9.1-5.1-10.6-13.2-2.9-20.1c0.7-6.1,2-7.9,5-7.1c-10.4-10.5,13.6-14.5,9.7-19.7
		c-15.4,3.9-15.1,19.8-21.5,31c-3.7,10.8-11.4-12.2-11.8-17c-6.1-23.4-2.1-47.8-6.6-71.4c-2.4-8.8,6.9-23-8.4-18.9
		C102.8,30.1,90.7,25.9,91.3,31.8L91.3,31.8z M125.8,147.7c8.7,6.7,35.7,12.8,29.9,27.5c-6,2.5-27.6-18.7-33-29.2
		C124,144.6,125.5,146.9,125.8,147.7L125.8,147.7z M120.8,160c5,5.3,5.7,24.7-3.8,16.4c-5.5-7.5-12.8-29.2-0.2-24.9
		C118.2,154.3,119.5,157.1,120.8,160L120.8,160z M100.8,159c1.2,6.7,13.7,19.1,8.8,30.9c2.1,12.3-1.3,29-13.1,32.6
		c-7.7-10.2-10-19.4-8.2-31.5c4.7-8.6,11.3-20.7,8.5-31.9C98.9,153.1,105.4,148.1,100.8,159L100.8,159z M133.1,166.2
		c8.8,8,4.4,27.1-4,31.1c-0.6-12.4,6.2-24.4-0.6-36C130.4,162.5,131.6,164.6,133.1,166.2L133.1,166.2z M125.2,186.7
		c1.6,6.2-3.3,29.5-8.4,13.9C113.2,194.9,123.8,167.6,125.2,186.7z M91.7,165.9c4.6,4.4-23.5,66.1-18.8,32.1
		C73.5,195.7,86.8,156.9,91.7,165.9z M69.1,199.5c1.2,15.1-24.1,7-9.9-3.3c4.3-5.1,14.3-11.7,10.8,0.6L69.1,199.5L69.1,199.5z
		 M172.7,186c9.8-0.2,26.7,20.4,7,13.9C172.1,201.2,153.9,178.7,172.7,186z M87,218.7c5.4,5.8,7.5,15.7,0.9,13.1
		c-8.3,13.7-14-9.1-16-14.9c6.2-0.3,12.7-18.8,12.9-4.7C85.3,214.4,85.9,216.7,87,218.7L87,218.7z M62.7,212c10-4.4,3.5,8.4-3.3,6.6
		c-6.6,7.9-5.9-14.2,0.6-5.7L62.7,212L62.7,212z M111.7,227.4c2.4,10.9-1.2,24.6,0.6,36.5c2.5,6.8,2.2,19.5-4,6.5
		c-8-11.4-9.5-25.2-9.4-39.2C102.1,225.2,114.3,207.4,111.7,227.4L111.7,227.4z M125.8,222.2c3.3,5.4,7.5,20.5-3.2,15.2
		C124,234,117.1,219.8,125.8,222.2z M137.5,256c-1.5,4.4,2.4,21.5,9.6,15.8c3.4,0.4,12,18.4,19.3,21.2c-1.7,8.9-38.9-25.8-46.5-36
		C110.2,244.4,134.6,220.6,137.5,256L137.5,256z"/>
</g>
</svg>
