<?xml version="1.0" encoding="utf-8"?>
<!-- Generator: Adobe Illustrator 23.1.1, SVG Export Plug-In . SVG Version: 6.00 Build 0)  -->
<svg version="1.1" id="Layer_1" xmlns="http://www.w3.org/2000/svg" xmlns:xlink="http://www.w3.org/1999/xlink" x="0px" y="0px"
	 viewBox="0 0 221 300" style="enable-background:new 0 0 221 300;" xml:space="preserve">
<style type="text/css">
	.st0{fill:#010101;}
</style>
<g id="layer1" transform="translate(260.32 64.698)">
	<path id="path4874" class="st0" d="M-179.2-63.9c-0.6,0.3-0.8,0.5-0.5,0.5c0.3,0,0.8,1.2,1,2.7c1.2,9.4,2.2,18.5,2.9,26.5
		c0.4,5.1,1,12,1.4,15.4c9,16.2,4.9,20.9,7.4,40.5c0.3,0.3,0.7,1.9,0.8,3.4c0.1,1.5,0.5,4.3,0.9,6.1l0.7,3.4l-2,3.6
		c-8.2,15.2-12.4,20.6-17.6,23c-2.2,1-4.7,2.9-7.3,5.4c-2.2,2.1-5.1,4.6-6.5,5.5c-1.4,0.9-4,3.1-5.9,4.8c-4.1,3.8-7.9,5.9-12.1,6.4
		c-1.7,0.2-4.5,1.1-6.1,2c-3.6,1.9-5.8,2-8.7,0.5c-2.5-1.3-3.3-1.1-1.8,0.6c1,1.1,1,1.1-0.6,1.7c-0.9,0.3-2.6,0.8-3.7,0.9
		c-1.2,0.2-2.3,0.5-2.4,0.8c-0.2,0.3,0,1.5,0.3,2.8c0.6,2.3,1.4,2.4,1.8,0.2c0.1-0.6,0.6-1.2,1.2-1.3c0.8-0.2,0.9,0.2,0.6,2.5
		c-0.5,4.2-1.1,4.5-5.3,2.5c-3.2-1.6-3.7-1.7-5.5-1.1c-3.4,1.1-4.4,2.3-5.9,6.4c-3.1,9-3.1,9-0.5,9c1.3,0,1.6,0.4,2.2,2.5
		c0.8,2.8,2.2,4.9,2.8,4.3c0.2-0.2-0.4-2.9-1.4-5.9l-1.8-5.5l1.5-3.7c1.7-4.2,2.5-5.1,4.3-4.8c1.4,0.2,1.7,1.8,0.7,4.1
		c-0.4,1-0.3,1,1-0.2c1.3-1.2,1.7-1.3,2.9-0.7c0.8,0.4,1.9,0.7,2.6,0.7c0.6,0,1.3,0.4,1.4,0.8c0.2,0.4,0.7,0.9,1.2,1.1
		c0.7,0.3,0.8,0,0.6-1.2c-0.2-1,0.1-2,0.9-3.1c0.8-1.1,1.3-2.7,1.4-5c0.2-2.7,0.5-3.6,1.4-4.2c1.8-1.1,4.9-1.3,5.4-0.3
		c1.2,2.6,1.6,3.1,2.3,3.1c0.5,0,0.8-0.7,0.8-2.2c0-2.1,0.2-2.3,2.5-3.4c1.7-0.8,3.2-1.1,4.7-0.9c3,0.4,2.6,1.3-1.4,2.9
		c-1.1,0.4-1.5,1-1.5,2c0,0.8-0.4,2.3-0.8,3.4c-0.7,1.6-1.1,1.9-2.4,1.9c-0.9,0-2.1-0.5-2.6-1.1c-1-1.1-2-1.1-2,0
		c0,0.3,0.8,1.4,1.7,2.4c0.9,1.1,1.7,2.1,1.7,2.2c0,0.2-0.6,1-1.4,1.8c-1.5,1.6-1.9,3.4-0.6,2.6c0.4-0.2,1.9-1.7,3.2-3.3
		c1.3-1.5,2.8-3.1,3.4-3.5c0.5-0.4,1.3-1.8,1.7-3.3c0.6-2,1.2-2.9,2.8-3.9c1.2-0.7,2.9-2.3,3.9-3.6c1-1.3,2.8-2.6,4.1-3.2
		c1.3-0.5,3.5-1.9,5-3.1c4.2-3.5,4.3-0.7,0.2,5.7c-2.6,4-4.4,5.9-7.8,8c-2.4,1.5-5.8,4.9-11.2,11.2c-3.2,3.7-3.3,3.8-6.1,3.8
		c-2.8,0-2.8,0-2.4-1.5l0.4-1.5l-1.2,1.3c-0.7,0.7-1.8,1.3-2.5,1.3c-3,0-7.4,2.3-10.8,5.5c-1.8,1.8-5.3,5-7.7,7.1
		c-2.5,2.2-4.7,4.7-5.2,5.9c-1.1,2.5-5.2,17.7-5.2,19.1c0,0.6,0.6,1.5,1.3,1.9c0.7,0.5,1.2,1.1,1.1,1.3c-0.1,0.2-0.1,0.6,0,0.9
		c0.4,1.1,2.1-0.3,4.3-3.6c2.7-4,3.9-3.7,2.3,0.6c-0.5,1.4-1.2,3.6-1.4,4.8c-0.2,1.2-0.8,2.7-1.2,3.4c-2.3,3.3,0.2,3.4,3.7,0.1
		c1.8-1.7,3.8-2.8,6.4-3.7c2.1-0.7,3.9-1.1,4.1-1c0.8,0.8-0.7,2.2-5.7,4.8c-5.4,2.9-6.5,4-8.4,8.1c-1.7,3.7-0.9,6.9,1,4.2
		c1.3-1.9,1.1,0-0.3,2.6c-0.7,1.3-1,2.4-0.7,2.7c0.7,0.7,2.3-1.2,3.2-3.8c0.7-2,0.9-2.2,3-2.3c2.7-0.2,3.2-1.6,0.8-2.1
		c-3-0.7-3.1-0.7-2.3-2.1c0.9-1.8,2.6-3.1,6.4-5c3.9-1.9,5.3-2.1,5.3-0.7c0,1.6-6.2,10.5-9.3,13.3c-3,2.7-5.3,6.6-5.3,9.1
		c0,2.4,1.5,1.6,3.4-1.9c2.1-3.9,6.7-7.7,6.7-5.5c0,1.9,1.8,6.6,2.5,6.6c0.7,0,0.8-0.8,0.5-4.9c-0.3-4.3-0.2-5.3,0.9-7.7
		c1.2-2.8,3.2-5.3,4.1-5.3c0.3,0,0.3,0.4,0.1,1c-0.7,1.7-1.9,11.4-2.2,17.8l-0.1,3.3l-2.5,0.7c-1.4,0.4-4.3,0.8-6.6,0.8
		c-3.3,0-4.2,0.2-4.4,0.9c-0.6,1.7,1.3,2.4,5.9,2.2c2.4-0.1,4.8-0.4,5.4-0.6c1-0.4,1-0.3,0.6,1.2c-1.3,4.7,0.3,7.1,1.8,2.6
		c0.4-1.3,0.9-2.3,1.1-2.1c0.2,0.2-0.1,3.5-0.7,7.4c-0.8,5.8-0.9,7.5-0.3,9.3c0.9,2.8,1.9,2.5,2.3-0.7c0.2-1.7,0.4-2.2,0.7-1.5
		c0.4,1.1,1.8,1.3,2.4,0.4c0.2-0.3-0.1-1.3-0.6-2.3c-0.5-1-0.8-1.9-0.6-2c0.6-0.6,2,3.3,2,5.4c0,1.5,0.3,2.4,0.9,2.6
		c2.5,0.9,2-3.9-0.9-9.1c-2.2-3.9-2.2-4.1-1.9-8c0.4-4.2,0.8-4.9,3-5.2c1.2-0.2,1.5,0.1,1.9,2.3c0.4,1.7,0.3,3.5-0.1,5.7
		c-0.4,1.8-0.7,3.8-0.6,4.6c0,1.8,1.3,4.2,2.1,4c0.4-0.1,0.7,0.4,0.7,0.9c0,1.3,1,2.1,1.8,1.3c0.5-0.5,0.2-2.9-1-6.7
		c-0.4-1.2-0.3-1.3,1.2-0.6c0.9,0.4,1.8,0.8,2,1c0.2,0.2,0.5,3.2,0.7,6.8l0.4,6.5l-2.6,1.8c-2.8,2-3.1,3.3-0.6,3.1
		c0.8-0.1,1.5,0,1.5,0.1c0,0.1-1,2-2.3,4.2c-1.8,3.1-2.2,4.2-1.6,4.7c0.8,0.7,1.5,0,3.9-4.1c1.7-2.8,2.3-2.9,2.3-0.3
		c0,1.6,0.2,2,1.1,2c0.6,0,1.1-0.3,1.1-0.6c0-0.7,3.4-4.7,3.9-4.7c0.2,0,0.3,0.6,0.4,1.4c0.1,2.6,0.9,6.2,1.5,6.5
		c1.1,0.7,1.7-0.8,1.9-5.1c0.2-4.6,0.8-5.9,2.5-5.9c0.9,0,1,0.3,0.7,2c-0.2,1.4-0.1,2.2,0.4,2.5c0.6,0.4,0.6,1-0.3,3.6
		c-1.1,3.2-0.8,5.9,0.7,6.4c0.8,0.3,1.2-0.7,2.7-5.7c0.5-1.8,1.5-4.5,2.1-5.9l1.1-2.6l1.1,2.3l1.1,2.3l-1.4,2.1
		c-1.7,2.5-1.8,3.6-0.4,3.6c1,0,4-2.9,4-3.9c0-0.6,3.7-2.8,4.7-2.8c0.4,0,1.2,1.1,1.7,2.5s1.3,2.5,1.8,2.5s0.8-0.2,0.8-0.5
		c0-0.3,0.3-1.2,0.6-2.1c0.6-1.5,0.7-1.5,1.1-0.5c0.3,0.6,0.5,2.4,0.5,4c0,2.5-0.1,2.9-1.2,3.2c-1.2,0.3-1.2,0.4-0.3,1.4
		c0.5,0.6,1,1.3,1,1.7c0,1.1,1.2,1.4,2.5,0.5c1.8-1.2,1.9-1.2,2.1,0.7c0.1,1.2,0.5,1.6,1.6,1.7c0.8,0.1,2.4,0.4,3.7,0.7
		c1.2,0.3,3.1,0.6,4.1,0.6c1.6,0,1.8-0.2,1.7-1.3c-0.1-0.9-0.6-1.3-1.6-1.3c-2.7-0.1-3.4-0.2-3.4-0.8c0-0.3,0.4-0.4,0.8-0.2
		c1.2,0.5,2-1.5,1.6-4.1c-0.3-2.2-0.2-2.3,0.9-2c1.2,0.3,1.2,0.2,0.8-2.6c-0.5-3.7,0.4-3.8,1.5-0.1c1.4,5.1,3.7,5.1,3.1,0
		c-0.4-3.2,0.1-2.1,2.5,5.6c1.9,6.2,2.5,7.3,3.7,7.3c1.1,0,0.9-2.1-0.3-4.8c-0.6-1.3-1.3-3.7-1.7-5.3c-0.6-2.9-0.6-3,0.9-4.3
		c2.1-1.7,2.9-1.6,3.6,0.2c0.4,0.8,1,2,1.4,2.5c0.5,0.7,0.6,1.2,0.2,2c-0.3,0.6-0.6,2-0.6,3.3c0,1.2-0.1,2.9-0.2,3.7
		c-0.1,1.1,0.1,1.4,1,1.4c1,0,1.2-0.5,1.6-3.8c0.5-4,1-4.5,2.1-2.7c0.8,1.2,2.1,1.5,2.1,0.5c0-0.4-0.3-1.6-0.6-2.7
		c-0.5-1.7-0.5-2.4,0.3-3.9c0.5-1,0.8-2.3,0.6-3c-0.6-2,1-0.9,2.5,1.7c1.3,2.4,2.9,3.1,2.9,1.4c0-0.5-0.8-2.3-1.7-3.9
		c-1.9-3.4-2-4-0.8-6.8l0.9-2.1l2.4,2.3c3.7,3.6,5.2,2.9,2.1-1c-2.4-3-3-4.8-1.9-5.9c1.1-1.1,2-0.7,3.2,1.3
		c2.1,3.5,1.7,9.7-0.8,12.9c-0.6,0.7-1.1,1.8-1.1,2.4c0,2.1-2.7,6.5-4.4,7.2c-2.7,1.1-7.5,6.8-5.7,6.8c1.3,0,7.1-3.7,10.9-7.1
		c0.9-0.8,1.1-0.8,2.1,0c1.6,1.5,2.5,0.8,2.3-1.7c-0.1-1.8-0.1-2.1,0.6-1.5c0.5,0.5,0.7,2.3,0.7,5.8c0,3.6,0.2,5,0.6,5
		c0.4,0,0.9-0.7,1.3-1.6c0.4-1.3,0.8-1.6,1.7-1.3c1.5,0.4,1.5-0.9,0-3.3c-1.6-2.6-1.4-3.2,0.8-3.2c2.6,0,2.5-0.9-0.1-2.1
		c-3.8-1.8-4.9-6.1-2.3-9c1-1.1,1.1-1.7,0.8-4.9c-0.2-2-0.6-4.4-1-5.4c-0.3-1-0.5-2.2-0.3-2.7c0.3-0.8,0.5-0.8,1.5,0.1
		c0.6,0.6,1.1,1.5,1.1,2s0.5,1.3,1.1,1.6c0.9,0.5,1.1,1.2,1.1,3.1c0,1.9,0.2,2.5,0.8,2.5c0.6,0,0.8-0.6,0.8-1.7
		c0-1.5,0.2-1.7,1.2-1.5c1.2,0.2,1.2,0.5,1.3,4.5c0,2.4-0.1,4.4-0.4,4.4c-0.2,0-1-0.8-1.7-1.8c-2.1-3.1-3.7-3.3-3-0.5
		c0.2,0.8-0.1,2.8-0.5,4.3c-1,3.3-1.1,4.2-0.3,4.2c0.3,0,1-1,1.5-2.2c1-2.5,1.8-2.9,2.2-1.1c0.2,0.6,0.9,1.3,1.6,1.4
		c1.3,0.3,2.6,2.4,3.5,5.6c0.3,0.9,0.9,1.8,1.5,1.9c1,0.2,1-0.9,0-5.1c-0.5-1.9,0.5-2.1,2.3-0.4c0.7,0.7,1.7,1,2.1,0.9
		c1.4-0.5,0.4-2-1.9-2.6c-2.6-0.7-3.9-2.1-4.3-4.7c-0.3-1.8-0.2-2,0.8-2c1,0,1.1-0.3,0.8-2c-0.4-2.3,0.5-2.7,1.6-0.7
		c0.4,0.7,1.5,2.3,2.5,3.6c1,1.3,2.2,3.2,2.7,4.2c0.8,2,2.9,4.3,3.4,3.8c0.2-0.2-0.1-1.2-0.5-2.3c-0.8-1.9-0.8-2.1,0.9-4.2
		c0.9-1.2,1.8-2.3,1.9-2.4c0.1-0.1,0.6,0.7,1.1,1.8c0.9,2.1,1.8,3,2.4,2.4c0.2-0.2,0.1-0.9-0.3-1.6c-1.2-2.5-1.3-4.8-0.2-6.1
		c0.6-0.7,1.2-1.8,1.4-2.3c0.6-1.8,1.7-1.1,1.3,0.8c-0.4,2.4,0.3,6.2,1.2,6.5c0.5,0.2,0.7-0.5,0.7-1.9c0-4.6,1.2-9.5,3.4-13.7
		c1.2-2.3,2.3-4.7,2.5-5.2c0.6-1.8,2.2-0.7,4.1,2.7c1.7,3.1,1.8,3.7,1.5,7c-0.2,2.4,0,4.6,0.5,6.2c0.9,3,2.4,3.5,2.3,0.8
		c-0.1-1.3,0.2-1.8,1.1-2.1c1-0.3,1.1-0.6,0.9-2.4c-0.2-1.2-0.8-3.1-1.5-4.4c-3.4-6.5-4.7-9.3-5-11.1c-0.3-1.7,0-2.3,1.9-4.4
		c1.2-1.3,2.8-3.6,3.4-5.1c0.6-1.5,1.4-2.7,1.8-2.7c0.3,0,1.9,0.6,3.5,1.4c3.3,1.6,3.3,1.6,3.3,0.9c0-0.3-0.9-0.9-1.9-1.4
		c-2.6-1.1-3.4-2.7-2.3-4.7c1.8-3.6,3.2-3.5,6.4,0.2c1.6,1.8,1.8,2.3,1.8,5.9c0,3.1,0.2,3.9,0.8,3.9c0.6,0,0.8-0.7,0.8-2.5
		c0-2.4,0.1-2.5,1.4-2.2c1.1,0.3,1.4,0.1,1.4-0.6c0-0.5-0.3-0.9-0.6-0.9c-0.3,0-1.3-1.1-2.1-2.5c-0.9-1.4-2.6-3.3-3.9-4.2
		c-2.2-1.6-2.4-1.9-2.4-4.2c0-2.8-0.8-5.6-2.3-7.7c-1-1.4-2.8-9.9-2.8-13.3c0-1.9,0.8-2.8,4.4-5.6c1.4-1.1,1.7-1.7,1.7-3.6
		c0-2.1-0.3-2.6-3.3-5.5c-1.8-1.8-3.9-4.4-4.6-6c-0.7-1.5-1.9-3.5-2.6-4.4c-1-1.3-4.2-8.6-4.2-9.6c0-0.1,0.5-0.2,1.1-0.2
		c0.6,0,2.4,1.1,3.8,2.5c1.5,1.4,3.5,2.7,4.4,2.9c2,0.4,2.9,2,3.4,6c0.2,1.5,0.7,3,1.2,3.4c0.8,0.6,0.8,0.3,0.5-3.2
		c-0.2-2.1-0.4-4.1-0.5-4.4c-0.3-1.2,1.3-0.9,3.8,0.8c4,2.7,4.7,4,5.1,9.1c0.4,5.6,0.9,7,3.4,8.5c2.1,1.3,2.4,1.1,1.2-0.7
		c-1.3-1.8-2.6-6.5-2.6-9c0-4.3,2.2-4.7,7.8-1.7c4.2,2.3,11.9,9.7,11.9,11.5c0,0.6,0.4,2.1,0.9,3.4c0.6,1.6,0.8,3.1,0.6,5.1
		c-0.3,2.8,1,7.2,2.4,8.1c1.2,0.7,1.2-0.1,0.1-2c-1.3-2.4-1.4-9.2-0.1-10.1c0.7-0.4,0.7-0.7,0.1-1.5c-0.4-0.5-1-1.6-1.3-2.3
		c-0.3-0.7-1.3-2.3-2.2-3.4c-2.4-3.1-2.5-3.3-1.3-4c0.8-0.4,1.3-0.4,2,0.3c0.5,0.5,0.9,0.7,0.9,0.5c0-0.2,0.4-0.1,0.9,0.3
		c1,0.8,2.3-0.1,1.7-1.1c-0.4-0.7-6.4-4.6-7.3-4.8c-1.3-0.2-8.1-3.7-10.5-5.5c-13.7-9.8-14.7-11-8.2-10.3c3.1,0.4,3.3,0.3,3.2-0.7
		c-0.2-0.8-0.9-1.1-3.6-1.3c-1.9-0.2-3.7-0.5-4.2-0.8c-0.5-0.3-1.6-0.5-2.6-0.4c-2.4,0.2-5.3-1.3-5.3-2.8c0-1.7,1.4-1.9,4.2-0.5
		c1.8,0.9,2.8,1.1,3.2,0.6c0.4-0.4,1.9-0.5,4.2-0.3c3,0.3,3.6,0.2,3.6-0.5c0-0.6-0.9-1-3.1-1.2c-3.3-0.4-4-1.6-1-1.9
		c0.9-0.1,1.8-0.4,2-0.7c0.3-0.5,8.1,4.1,10.3,6.1c0.7,0.6,2.1,1.4,3.1,1.7c1.1,0.4,2.3,1,2.8,1.4c0.5,0.5,2.6,0.9,5.1,1
		c3.9,0.2,4.2,0.1,4.2-0.9c0-0.9-0.5-1.2-2.4-1.5c-3.2-0.5-3.5-0.8-3.5-2.9c0-1-0.5-2.5-1.1-3.3c-1.3-1.7-6.1-4.6-6.6-4.1
		c-0.2,0.2,1,1.6,2.6,3.1c2.9,2.7,3.5,4,2.4,4.7c-0.7,0.4-4.7-1.5-7.4-3.5c-1.1-0.8-3-2.3-4.2-3.2c-1.2-0.9-3.4-2.7-4.8-4.1
		c-1.4-1.3-4.7-3.7-7.2-5.3c-4.5-2.8-5.5-4-2.4-2.9c3,1.2,8.2,1.9,11.1,1.5l2.9-0.4l1.8,2.5c2,2.8,2.1,3.3,1,4.3
		c-1.1,0.9-1.1,1.7,0,1.7c2.1,0,2.6-3.8,0.8-6.6c-1.2-1.9-1.1-2.9,0.3-2.9c0.4,0,0.8-0.2,0.8-0.5c0-1-3.7-1.3-5.7-0.5
		c-2.1,0.9-8.9,0.3-8.9-0.8c0-0.4,0.9-0.4,2.6-0.2c2.8,0.4,5.9,0,5.9-0.9c0-0.3-1.3-0.4-2.9-0.2c-3.5,0.4-5.2-0.4-3.7-1.6
		c0.5-0.4,1-0.9,1-1.1c0-0.8-3.9-0.3-7.2,0.8c-3.3,1.1-3.6,1.1-5.6,0.3c-3-1.3-11.4-4.1-13.7-4.5c-1.1-0.2-2.2-0.7-2.4-1
		c-0.3-0.4,0.6-0.5,3.2-0.3c9.7,1,13.4,1.1,13.4,0.4c0-0.4-0.3-0.8-0.7-0.9c-0.4-0.1-1.7-0.5-2.9-0.8c-1.2-0.3-3.4-0.9-4.8-1.2
		c-1.4-0.4-4.1-1-6-1.4c-2.3-0.5-4.7-1.6-7.2-3.2c-3.2-2.1-4.1-3-5.7-6.2c-2.8-5.3-5.3-7.9-9-9.7c-4.6-2.2-6.2-3.9-7.5-8.1
		c-1-3.4-4.1-8.6-7-11.8c-0.7-0.8-1.5-2-1.7-2.8c-0.2-0.8-1.2-2.8-2.3-4.5c-3.6-6-3.7-6.7-3.1-23.2c-2-38.3,5.6-67.2-0.5-68.4
		c-3.9,0-37.2,1-37.6,1.3c-0.5,0.4-0.7,0.4-0.7-0.1C-176.6-64.6-177.6-64.6-179.2-63.9L-179.2-63.9z M-143.5,62
		c0.6,1.1,3,4.7,5.4,7.9c4.5,6.1,7.5,11.2,7.5,12.8c0,0.5-0.8,2.2-1.7,3.6c-0.9,1.5-1.7,2.8-1.7,2.9c0,0.7,1.6,0.1,2.5-0.9
		c2.2-2.5,4.5-0.4,3.9,3.5c-1.6,9.5-3.8,13.2-9.8,16.3c-3.9,2-4.2,2.1-6.3,1.5c-2.6-0.8-3-0.6-2.1,1.3c0.9,1.9-0.5,4.1-3.3,5.2
		c-1.1,0.4-3.3,1.5-4.9,2.3c-2.7,1.4-2.9,1.4-4.9,0.6c-1.5-0.6-2-0.7-1.8-0.1c0.4,1-2,2.4-4.3,2.7c-1.3,0.1-2,0.5-2.1,1.2
		c-0.2,0.9,0.1,1,2.2,0.6l2.4-0.4l-0.3,1.7c-0.4,2.2,0.2,2.2,1.5,0.1c1.1-1.8,2.5-2.4,1.6-0.7c-0.7,1.5-1.3,5.6-0.8,6
		c0.8,0.5,1.5-0.5,2.6-3.6c1.4-4.3,2.3-5.5,4.4-5.9c1-0.2,3.5-1.4,5.5-2.6c2-1.2,4-2.2,4.4-2.2c2,0-1,3-4.1,4.1
		c-2.2,0.7-3.4,2.1-1.9,2.1c0.4,0,2.1-0.5,3.8-1.1c1.7-0.6,3.2-1,3.5-0.8c0.8,0.5,0.5,2.9-0.9,6.5c-0.7,1.9-1.5,4.2-1.7,5.1
		c-0.5,2.3-3,4.5-4.7,4c-0.7-0.2-1.8-0.2-2.4,0c-1.3,0.4-1.5,2-0.3,2c0.5,0,1.1,0.6,1.5,1.3c1.1,2.1,3.1,2.9,2.6,1.1
		c-0.2-0.6,0-1.5,0.3-2c0.6-1.1,4.9-3.9,5.4-3.5c0.2,0.2,0.4,1.5,0.6,3c0.2,2.5,0.1,2.9-1.5,4.8c-2.9,3.3-9.6,4.4-12.2,2
		c-1.5-1.4-2.5-1-1.1,0.6c1.5,1.7,1.1,2.7-1.5,3.7c-1.3,0.5-2.7,0.9-3,0.9s-2-1.5-3.7-3.2c-3.7-3.8-3.3-4.7,1.4-3.3
		c1.6,0.5,3,0.8,3.2,0.6c0.6-0.6-3.1-3.1-4.9-3.2c-2.8-0.2-3-0.1-4.4,0.3c-1,0.3-1.8-0.1-3.9-2.2c-1.4-1.5-3.4-3-4.4-3.4
		c-2.3-1-2.7-1.6-3.8-5.6c-1.6-5.9-2.5-8.9-3.4-11.2c-1.5-4-1.2-6.8,1.7-13c0.4-1,0.8-3,0.8-4.5c0-1.9,0.5-3.9,1.9-6.7
		c1-2.2,2.7-5.9,3.7-8.3c1.7-3.9,2.1-4.4,4.1-5.2c1.3-0.5,3.6-1.1,5.3-1.2c3.5-0.4,4.8,0.5,5.9,3.9c0.4,1.4,1.9,3.4,4.2,5.7
		c3.7,3.7,4.2,4.9,3,7.9c-0.4,1-0.4,1.7,0,2.2c0.6,0.7,0,1.5-1.7,2.1c-0.8,0.3-2,3.6-1.5,4.1c0.1,0.1,1.1-0.4,2.2-1.2
		c2.5-1.7,3.1-1.7,4.4-0.1c1.4,1.8,2,0.9,1.2-1.9c-1.3-4.7-1.4-5.1-0.5-4.8c0.4,0.1,1.4,1.4,2.2,2.7c0.8,1.4,1.8,2.5,2.3,2.5
		c1.5,0,1.2-2-0.7-4.6c-2.6-3.6-5.1-8-4.8-8.3c0.4-0.4,7,1.4,8.9,2.4c1.8,0.9,3.3,1,3.3,0.2c0-0.7-6.8-3.9-8.2-3.9
		c-1.1,0-6.8-3.1-7.3-4.1c-0.3-0.4,1.3-0.5,5.5-0.1c7,0.6,10.6,0.5,11.4-0.3c1-1-2.5-1.8-8-1.7c-6.8,0.1-9.6-0.6-11.8-3.1
		c-3.3-3.8-2.9-8.7,1.3-13.8c1.3-1.6,2.8-4.1,3.4-5.5c0.5-1.4,1.3-3.5,1.8-4.6l0.9-2l3.1,3.4C-145.9,58.4-144.1,60.9-143.5,62
		L-143.5,62z M-127.8,60.8c1.3,1,1.3,1.1,0.3,1.1c-1.2,0-2.5-0.9-2.5-1.8C-130,59.4-129.3,59.6-127.8,60.8L-127.8,60.8z
		 M-184.4,67.3c0.8,0.8-1,4.1-3.4,6.3c-2.3,2.1-4,3-4,2.1c0-1.2,3.1-6,4.6-7.2C-185.3,66.9-184.9,66.8-184.4,67.3L-184.4,67.3z
		 M-107.6,73.5c0,1.4-2.8,0.5-4.4-1.4c-1.9-2.3-1.5-2.5,1.5-1C-108.8,72-107.6,73-107.6,73.5L-107.6,73.5z M-111.2,80
		c1.2,0.7,4,1.4,6.3,1.6c5.3,0.6,9.3,2.5,9.8,4.8c0.2,0.9,0.5,2.4,0.7,3.2c0.2,0.8,0.9,2.2,1.7,3.1c1.4,1.7,4.9,9.3,4.5,9.7
		c-0.1,0.1-0.9-0.4-1.8-1.2c-0.8-0.8-2.2-1.8-3.1-2.2s-2.5-1.6-3.7-2.6c-3.7-3.1-7.7-6.5-11.6-9.7c-4.5-3.6-7.6-6.6-7.6-7.3
		C-116,78.4-113.5,78.7-111.2,80L-111.2,80z M-88,86.6c2.6,2.7,5.4,6.8,6.6,9.6c0.7,1.6,2.9,3.7,3.3,3.3c0.2-0.2-0.2-1.2-0.9-2.3
		c-1.4-2.4-0.8-3.1,1.7-1.8c2,1,3.6,0.7,3.1-0.6c-0.2-0.5-0.1-0.8,0.2-0.7c0.6,0.2,5.7,4.9,5.7,5.3c0,0.1-1.3,0.3-2.8,0.3
		c-1.7,0-3.7,0.4-4.9,1.1c-2.5,1.3-4,0.9-6.8-1.8c-3.5-3.3-7.7-9.1-8.6-11.7C-92.8,82.9-91.7,82.7-88,86.6L-88,86.6z M-81.1,87.8
		c2.4,1.2,6.2,4.3,6.2,5.1c0,1-1.8,1.1-3.5,0.2c-2.3-1.2-4.2-2.9-5.2-4.8C-84.7,86.3-84.2,86.2-81.1,87.8L-81.1,87.8z M-117.2,91.1
		c0.4,0.6,1.5,1.5,2.5,1.9c1,0.4,2.7,1.6,3.7,2.5c1.7,1.6,1.8,1.9,1.5,4.1l-0.4,2.4l1.4-1.3c1.6-1.5,2.4-1.1,4.3,2.2
		c0.7,1.1,2.2,2.8,3.3,3.7c3.8,3,6,10.1,5.6,18.1c-0.2,4-0.5,5.4-2.1,8.7c-1.3,2.6-2.1,5.3-2.4,7.9c-1,8.8-1.4,10.8-2.6,12.9
		c-1.6,3-2.6,4-6.7,7.3c-3.8,3-4.2,3.7-2.2,3.7c1.1,0,0.7,0.5-2.1,3.1c-3.1,2.9-3.5,3.1-5.7,2.9c-2.7-0.3-6.8-2.1-9.2-4.1
		c-1.4-1.2-3.9-6.1-3.3-6.6c0.8-0.7,5.2-2,5.6-1.7c0.3,0.2,0.5,1.3,0.5,2.4c0,1.2,0.5,2.7,1.1,3.5c0.6,0.8,1.1,1.8,1.1,2.4
		c0,0.5,0.4,1,0.8,1c0.4,0,1.2,0.5,1.8,1.1c1.3,1.5,2.3,0.8,1.2-0.8c-0.5-0.7-0.7-1.4-0.5-1.6c0.6-0.6,2.7-0.4,3.4,0.3
		c1.2,1.2,0.8-0.6-0.7-2.8c-2-3-1.9-6.2,0.4-9.9c2-3.2,3.8-5.4,4.4-5.4c0.2,0,1,1.8,1.6,3.9c0.7,2.2,1.4,3.9,1.6,3.9
		c1,0,1-0.9,0-3.5c-0.6-1.5-1.1-3.5-1.1-4.4c0-0.9-0.5-2.8-1.1-4.2c-0.6-1.4-1.1-3.2-1.1-4c0-1.4,1-1.8,2-0.8c0.8,0.8,4.4,1,4.5,0.3
		c0-0.3-0.9-0.8-2-1.2c-3.4-1-5.1-2.5-4.7-4.2c0.3-1.4,0.2-1.5-2.1-1.2c-2.9,0.3-5.8-1.5-5.2-3.2c0.3-0.8-0.1-1.2-1.7-1.7
		c-1.7-0.6-2-0.9-1.8-2.2c0.2-1.3,0.4-1.5,2.1-1.3c3.4,0.3,13.2,0.1,14.3-0.2c2.2-0.7-0.4-1.2-4.6-0.9c-7.4,0.5-11.4-1.4-13.9-6.8
		c-2.1-4.5-1.6-8,1.9-12.6c2-2.5,4.6-9.2,4.9-12.2c0.2-2.6,0.2-2.5,0.7-2.5C-118.1,90-117.6,90.5-117.2,91.1L-117.2,91.1z
		 M-84.1,100.3c2,2.2,5.2,7.3,4.9,7.8c-0.2,0.3-1.4-0.1-2.6-0.8c-2.3-1.3-3.8-3.5-4.6-6.8C-87,98.6-85.8,98.5-84.1,100.3
		L-84.1,100.3z M-199.7,101.6c0.3,0.8,0.5,3.9,0.5,6.8c0,4.9-0.2,6-2.5,12.9c-2.5,7.4-3.3,9.5-5.4,14c-2.3,5-3.8,8.5-4.2,9.8
		c-0.2,0.7-1.3,2.5-2.3,3.8c-1,1.4-2.1,2.9-2.4,3.4c-0.8,1.5-2.2,0.4-3.8-2.8l-1.5-3l1.7-3.3c1.4-2.8,1.8-3.2,2.1-2.2
		c1.3,3.6,2,4.8,2.7,4.8c1.2,0,1.1-1.8-0.3-5.6c-0.6-1.7-1.1-3.6-1.1-4.3c0-0.6-0.7-3.3-1.5-5.9c-1.2-3.9-1.4-5.4-1.1-8.3
		c0.3-3.4,0.5-3.7,4.4-8.1c6.2-7,12.4-13.3,13.2-13.3C-200.5,100.1-200,100.8-199.7,101.6L-199.7,101.6z M-71.9,101.8
		c-0.2,0.3-0.6,0.4-1,0.2c-0.4-0.2-0.3-0.5,0.2-0.8C-71.8,100.7-71.3,101-71.9,101.8L-71.9,101.8z M-73.9,109.7
		c1.6,0.5,2.5,1.6,1.3,1.6c-1.3,0-4.6-1.3-4.6-1.7C-77.2,108.9-76.1,109-73.9,109.7L-73.9,109.7z M-228.7,112.4
		c0.1,0.2-1.4,2.3-3.5,4.5c-3.4,3.6-4,4.1-5.9,4.1c-2.2,0-2.6,0.5-1.2,1.7c0.5,0.4,0.8,0.9,0.8,1.2c0,0.9-2.5,4.1-7.4,9.4
		c-2.7,2.9-5.6,6.4-6.5,7.7c-0.9,1.4-2.2,3.4-3.1,4.5c-0.8,1.1-1.5,2.2-1.5,2.5s-0.3,0.5-0.6,0.5c-0.3,0-0.2-0.5,0.3-1.2
		c0.5-0.7,0.9-1.9,0.9-2.7c0-0.8,0.4-1.9,0.8-2.5c0.5-0.6,0.7-1.6,0.5-2.3c-0.6-2.2,2-9.3,4.3-11.8c1.1-1.2,2.8-3.4,3.8-4.8
		c0.9-1.4,2.3-2.9,3.1-3.3c0.8-0.4,2.2-1.8,3.2-3c1-1.3,3-2.8,4.7-3.6C-233.2,112-229.2,111.5-228.7,112.4L-228.7,112.4z
		 M-130.1,115.2c1.4,1.5,4,8.6,4,10.9c0,1.5-5.2,7.1-6.6,7.2c-0.7,0-1.3,0.2-1.3,0.5c0,0.8,1.3,1.8,2.3,1.8c0.6,0,1,0.5,1.2,1.5
		c0.3,2.7,1.4,2.1,1.9-0.9c0.6-4.1,1.2-3.9,1.6,0.6c0.3,2.9,0.2,4.3-0.5,5.5c-1.1,2.1-0.5,2.7,0.9,0.9c0.9-1.1,1.3-1.3,1.9-0.7
		c1.7,1.4,2-1.8,0.3-3.6c-1.1-1.2-1.2-1.6-0.7-2.9c0.3-0.8,0.6-2.1,0.6-2.9c0-1.6,0.7-1.8,1.8-0.4c0.4,0.5,2,1.8,3.6,2.8
		c3.5,2.2,3.9,2.8,4.4,5.3c1,5.4,1,5.8-1.1,8.6c-2.3,3.1-4.2,3.5-5.7,1.3c-1.3-1.9-2.1-1.8-1.6,0.3c0.3,1.3,0.1,1.8-0.5,2
		c-1,0.4-1.2,1.7-0.2,2c1.1,0.4-0.1,1.6-1.5,1.6c-0.7,0-2.7,0.7-4.5,1.6l-3.2,1.6l-1.7-1.9c-2.4-2.7-2.6-4.3-1.4-9.5
		c1.2-5.2,1.3-12.5,0.3-17.6c-0.5-2.7-0.5-4.1-0.1-6c0.3-1.4,0.6-4,0.6-5.8c0-1.8,0.2-3.8,0.3-4.2
		C-134.2,113.1-131.7,113.4-130.1,115.2L-130.1,115.2z M-226.6,117.6c0,0.3-1.1,1.7-2.6,3c-1.6,1.5-2.8,3.3-3.1,4.6
		c-0.3,1.2-1.3,3.3-2.2,4.8c-1.3,2.1-1.7,3.4-1.9,7c-0.6,8.5-1.8,10.6-7,12.8c-4.4,1.8-4.2,1.9-4.1-2.6c0.1-5,0.7-8.6,1.8-10.7
		c0.9-1.6,1.5-1.9,2.1-1c0.7,1.2,2,0.6,2-1c0.1-2.4,0.6-3.3,4.3-7.1c1.9-2,3.5-3.8,3.5-4c0-0.3,1.3-1.8,2.9-3.4
		C-228.2,117.1-226.6,116.3-226.6,117.6L-226.6,117.6z M-221.2,126c0.7,1.4,2.3,6,2.8,8.2c0.3,1.2-1.7,6.2-3.4,8.3
		c-0.9,1.1-1,1.1-3.4-1.5c-2.3-2.4-2.5-2.9-2.5-5.3c0-3.8,1-6.8,2.9-9.3C-223,124-222.2,124-221.2,126L-221.2,126z M-86.9,129.8
		c1.8,1.5,3.5,4.8,3.5,6.6c0,0.5-0.8,2.7-1.8,4.8c-1.6,3.4-2,3.9-4.1,4.6c-3.3,1.1-7,3.6-7,4.6c0,1,1.4,0.4,3-1.4
		c1.3-1.4,2.6-1.5,2.6-0.3c0,1.3-1.5,4-2.4,4.4c-0.5,0.2-0.9,1.6-1.2,3.7c-0.2,2.1-0.8,3.7-1.4,4.3c-0.9,0.9-1.1,0.8-2.2-0.7
		c-1-1.3-1.2-2.1-1-4.1c1.5-13.7,1.2-12.7,5.5-21.6c0.6-1.2,1.4-3.2,1.9-4.4C-90.6,127.8-89.4,127.7-86.9,129.8L-86.9,129.8z
		 M-193.1,135.5c1.8,3.1,2.8,6.5,3.3,10.4c0.3,2.7,0.1,4-0.8,6.5c-0.6,1.7-1.2,3.7-1.2,4.4c0,0.8-0.6,1.7-1.8,2.4
		c-2,1.2-3.4,1.1-8.2-0.7c-3.3-1.2-5.2-0.9-5.2,0.7c0,0.8,0.4,1.1,1.7,1.1c1.4,0,1.7,0.2,1.3,1c-1,2.3-0.9,4.1,0.1,5.3
		c1,1.1,1.1,1.1,1.7,0.2c0.4-0.6,0.6-1.8,0.4-3.4c-0.4-2.7,0.1-3,2.1-1.4c1.2,1,1.3,1.2,0.5,2.7c-0.5,0.9-1.8,2.6-3,3.8
		c-3.7,3.7-7.6,9.4-7.7,11c0,2.1-0.8,3.1-2.2,2.6c-1.4-0.5-1.4-0.4-0.3,2c0.8,1.6,0.8,2.1,0.2,3.6c-1.2,2.9-1.3,3.7-0.7,3.7
		c0.3,0,0.9-1,1.2-2.3c0.3-1.3,1-2.4,1.4-2.6c1.1-0.4,3.6,1.4,4,3c0.4,1.8-0.6,2.9-3.2,3.6c-2.6,0.7-2.8,1.4-0.5,1.9
		c1.8,0.4,1.8,0.2,0.6,4.8l-0.4,1.4l-1-1.9c-0.5-1.1-1.7-2.9-2.5-4c-2.5-3.5-3.1-6.4-2.3-12.4c0.3-2.9,1.2-7,2-9.2
		c0.7-2.2,1.5-5.1,1.7-6.5c0.7-4.7,1.6-4.9,3.5-1.1c1,2,2.6,3.3,3.2,2.7c0.2-0.2-0.5-1.4-1.5-2.6c-2.4-3-2.9-7-1.2-9.4
		c0.6-0.9,1.8-3,2.6-4.7c0.8-1.7,2.7-4.5,4.2-6.3c2-2.3,2.9-3.9,3.1-5.6c0.4-2.3,2.4-6.6,3-6.6
		C-194.5,133.3-193.8,134.3-193.1,135.5L-193.1,135.5z M-227,145.3c1.4,1.7,2.6,3.6,2.6,4.2c0,1.3,0.9,2.1,1.4,1.2
		c0.6-1,1.3-0.6,1.9,1c0.3,0.8,0.9,2,1.3,2.5c0.6,0.8,0.6,1.1-0.1,1.6c-1,0.7-3.2,0.3-8-1.2c-3.8-1.2-5.5-2.7-5.5-4.7
		c0-1.6,2.6-7.6,3.3-7.6C-229.8,142.3-228.4,143.6-227,145.3L-227,145.3z M-174.2,144.2c2.8,1.2,4.7,3.8,5.2,7.2
		c0.2,1.6,0.6,3.6,0.9,4.4c0.7,1.9,4.4,5.6,5.6,5.6c1.5,0,1.2-1.4-0.4-2.1c-0.8-0.4-1.4-1.1-1.4-1.8c0-0.6-0.5-1.6-1.1-2.3
		c-1.2-1.2-1.5-3.9-0.5-3.9c1.2,0,2.7,1.8,2.7,3.2c0,0.9,0.3,1.3,1.1,1.3c1.3,0,2,0.9,1.2,1.4c-1.1,0.7-0.6,2.1,0.5,1.7
		c1.7-0.5,1.8,0.5,0.3,3.3c-1.4,2.6-1.8,5.4-0.9,5.4c0.3,0,0.8-0.8,1.2-1.8c1-2.5,2.8-5.6,3.1-5.3c0.1,0.1,0,0.8-0.3,1.6
		c-0.3,0.7-0.7,2-0.9,2.8c-0.2,0.8-1.2,2.7-2.3,4.1c-1.2,1.5-2,3.3-2.1,4.3c-0.1,1.9,0.5,2.8,1.2,1.7c0.6-1,1.5-0.4,1.9,1.2
		c0.2,0.7,0.5,1.7,0.7,2.3c0.8,1.8-1.2,1.1-3.3-1.2c-1.3-1.5-2.4-3.5-3.2-6.1c-0.8-2.6-1.9-4.8-3.4-6.6c-1.6-1.9-2.2-3.1-2-3.9
		c0.2-0.8-0.1-1.6-0.8-2.2c-0.6-0.6-1.5-2.4-2-4c-0.5-1.6-1.1-3.1-1.4-3.3c-1-0.6-3.8-5.4-3.8-6.5
		C-178.3,143.2-176.8,143.1-174.2,144.2L-174.2,144.2z M-147.4,148c0,1.2-3.6,4.9-5.2,5.2c-1.3,0.3-1.5,0.2-1.5-0.8
		c0-1.8,1.1-3.8,2.5-4.5C-150,147.2-147.4,147.2-147.4,148L-147.4,148z M-155.9,151.7c0,0.8-0.2,1.9-0.5,2.3c-0.6,1-2.7,0.4-3.4-1
		c-0.4-0.8-0.3-1.2,0.7-1.9C-157.1,149.6-155.9,149.9-155.9,151.7L-155.9,151.7z M-249.1,151.8c0,0.3-0.4,0.6-0.8,0.8
		c-0.5,0.2-0.8,0-0.8-0.5c0-0.5,0.4-0.8,0.8-0.8C-249.5,151.2-249.1,151.5-249.1,151.8z M-143.4,156.1c-0.2,3.7-1.8,10.9-2.4,10.9
		c-0.2,0-1-0.9-1.6-2c-0.7-1.1-1.7-2.2-2.3-2.5c-0.6-0.3-1.1-1-1.1-1.5c0-1.6,6-8.8,7-8.4C-143.5,152.7-143.3,154.1-143.4,156.1
		L-143.4,156.1z M-84.6,155.3c0.3,1,1.3,3.6,2.2,5.8c1.1,2.6,1.6,4.5,1.4,5.5c-0.2,0.9-1.9,3.1-4.1,5.3c-2.1,2.1-3.9,4.1-3.9,4.4
		c0,1.4,1.2,1.2,3.1-0.7c2.8-2.8,3.5-2.5,1.3,0.7c-3.3,4.8-8.9,9.7-11.1,9.7c-0.6,0-0.7-0.5-0.4-1.8c0.4-2.2,0.7-2.5,1.7-1.6
		c1.6,1.3,1.6-0.5,0-6.4c-0.8-3.2-1.4-6.3-1.2-6.8c0.5-1.2,2.4-0.6,4.7,1.6c2.7,2.6,2.9,1.4,0.2-1.8c-2.5-3-2.5-2.9-0.1-6.1l1.4-1.9
		l0.9,1.8c0.9,1.9,2.3,2.8,2.3,1.6c0-0.4-0.5-1.2-1-1.9c-0.9-1-1-1.7-0.7-4.7c0.3-3.2,1-4.6,2.4-4.6
		C-85.3,153.5-84.9,154.3-84.6,155.3L-84.6,155.3z M-120.2,156.7c-0.9,1.4-0.9,4.1,0.1,6.6c0.5,1.4-1.5,1.9-2.4,0.6
		c-1.4-1.9-0.6-5.7,1.6-8.5C-119.9,154-119.3,155.3-120.2,156.7L-120.2,156.7z M-153.2,156.7c-0.2,1.2-2.1,1.7-2.1,0.5
		c0-0.8,0.7-1.3,1.9-1.4C-153.2,155.8-153.1,156.2-153.2,156.7L-153.2,156.7z M-182.2,162.7c2.1,3.2,2.3,3.6,1.9,6.2
		c-0.2,1.6-0.9,3.3-1.7,4.2l-1.3,1.5l-1.1-1.1c-0.6-0.6-2-2.6-3.1-4.5c-2.8-4.7-2.6-8.7,0.4-9.8
		C-185.3,158.5-184.7,158.9-182.2,162.7L-182.2,162.7z M-223.7,160.6c2,0.8,3.6,1.5,3.7,1.6c0.5,0.3-3.2,6-5.3,8.1
		c-1.4,1.5-3,3.9-3.7,5.9c-0.7,1.8-1.6,3.4-1.9,3.5c-0.8,0.3-0.6-11.8,0.3-14.4c0.3-1.1,0.6-2.9,0.6-4.1c0-1.9,0.2-2.1,1.4-2.1
		C-227.9,159.1-225.7,159.8-223.7,160.6L-223.7,160.6z M-100.6,161.5c-0.2,0.7-0.9,2.4-1.5,3.9c-1,2.4-1.3,2.7-3,2.7
		c-2.2,0-2.7-0.7-1.8-2.2c0.6-1,0.6-1.3-0.1-1.7c-0.7-0.4-0.5-0.8,1.1-2.2l2-1.6l0.3,2.3c0.2,1.3,0.4,2,0.4,1.7
		c0-0.3,0.5-1.6,0.9-2.7C-101.3,159.5-99.9,159.4-100.6,161.5L-100.6,161.5z M-135.4,164c1.7,2.7,3.5,8.8,4.2,14.3
		c0.4,3.2,1.2,5.8,3.2,10.1c1.8,3.9,2.8,6.9,3,9.2c0.2,2,0.9,4.3,1.7,5.7c1.5,2.5,1.3,3.4-0.4,2.5c-1.6-0.9-5.1-7.9-4.8-9.6
		c0.2-1-0.4-2.8-1.9-5.7c-1.7-3.3-2.1-4.5-1.7-5.6c0.6-1.7,0-4.5-1-4.5c-0.6,0-0.7,0.5-0.4,1.7c0.2,1,0.1,1.7-0.2,1.7
		c-0.3,0-0.7,1.1-0.8,2.4c-0.2,1.8,0,2.7,0.8,3.6c1.4,1.5,2,5.5,1,6.7c-1.7,2.1-4.7,0.2-4.1-2.6c0.2-1.2,0-2-0.8-2.9
		c-0.6-0.7-1.3-1.8-1.5-2.6c-0.6-1.9-0.5-8.5,0.2-10.2c0.3-0.8,0.4-2.7,0.3-4.3c-0.2-1.8,0-3,0.3-3.3c0.4-0.2,0.6-2.1,0.6-4.6
		c0-2.4,0.2-4.2,0.6-4.2C-137,161.9-136.2,162.9-135.4,164L-135.4,164z M-149.8,165.5c1.5,1.3,3.1,2.6,3.6,2.8
		c1.6,0.6,1.5,4.3-0.2,12.1c-0.6,2.9-1.4,5.3-1.6,5.5c-0.2,0.1-1.2-0.4-2.2-1.1c-1.5-1.1-2.2-2.4-3.7-6.8c-2.1-6-2.5-8.7-1.6-9
		c0.3-0.1,1.2,0.9,2,2.3c1.3,2.5,3,3.5,2.6,1.6c-0.1-0.7,0.3-1,1.1-1.2c1.9-0.3,1.6-1.8-0.3-1.8c-0.9,0-2-0.4-2.5-1
		c-1.7-1.9-2-5.8-0.4-5.8C-152.7,163-151.3,164.1-149.8,165.5L-149.8,165.5z M-98.3,163.6c0.6,0.9-0.9,5.7-2.3,7.3
		c-0.7,0.8-1.9,3.2-2.7,5.1c-0.8,2-2.1,5.1-2.9,6.9c-1.2,2.6-1.6,3.1-2.1,2.4c-0.8-1.4-1.6-1.1-1.6,0.6c0,0.8-0.4,1.9-0.8,2.4
		c-0.7,0.8-0.7,1.2-0.2,2.7c0.6,1.6,0.5,2.2-1,5.2c-0.9,1.9-1.9,3.4-2.3,3.4c-0.4,0-2.3-1.5-4.2-3.2c-2.5-2.3-3.9-4.2-5.1-6.8
		c-1.7-3.8-2.2-6.8-1.3-7.2c1.2-0.4,4.5,2.4,5.1,4.3c0.8,2.4,1.9,2.9,1.9,0.9c0-1.3,0.2-1.4,1.5-1.1c1.3,0.3,1.4,0.2,1.1-0.6
		c-0.2-0.6,0.2-1.6,1.3-2.8c1.7-1.7,1.7-1.8,2.5-0.7c0.8,1,0.9,1,1.8,0.1c0.9-0.9,0.8-1.1-0.9-2.9c-2.6-2.6-2.1-3.7,1.7-3.7
		c3.9,0,3.4-1.3-0.7-1.7c-1.7-0.2-3.4-0.5-3.7-0.7c-1-0.6-0.7-2,0.8-3.5c1.2-1.2,1.7-1.4,3.8-1c3.3,0.5,4.9,1.6,4.5,3.2
		c-0.2,0.8-0.1,1.1,0.3,0.8c0.4-0.2,0.7-0.7,0.7-1.2c0-0.4,0.4-0.9,0.8-1.1c0.5-0.2,0.8-0.9,0.8-1.6c0-1.6,1.7-6.1,2.3-6.1
		C-98.8,163-98.5,163.3-98.3,163.6L-98.3,163.6z M-117.6,191.7c0,0.5,0.4,1.3,0.8,1.9c1,1.4,1,0.5,0-1.4
		C-117.3,191.4-117.6,191.2-117.6,191.7L-117.6,191.7z M-190.4,169.8c1.8,2.2,3.7,4.6,4.2,5.3c0.8,1.3,0.8,1.5-1.2,3.5
		c-1.1,1.2-2.4,2.9-2.9,3.9c-1.5,3-2.8,2.1-3.4-2.5c-0.4-3.4,0.1-4,2.5-2.7c1,0.5,1.9,0.8,2.1,0.6c0.7-0.7-0.5-2.1-2.3-2.9
		c-1.9-0.8-2.6-2-2.6-4.7c0-2.5-1.4-0.9-1.6,1.8c-0.2,2.6-0.2,2.7-1.7,2.4c-0.8-0.2-2-0.4-2.6-0.6c-0.9-0.3-1.3,0.1-2.2,2.2
		c-1.1,2.6-1.1,2.6,0.1,3.8l1.2,1.2v-2.1c0-2.4,0.8-3,3-2.1c1.1,0.4,1.6,1.2,2.1,2.8c1,3.7,0.3,4.4-4.7,4.7
		c-1.5,0.1-2.4,0.5-2.8,1.3c-0.3,0.6-0.7,1.2-0.7,1.3c-0.1,0.1-0.9-0.1-1.8-0.5c-2-0.8-3.4-3.1-2.6-4.4c1-1.6,1.9-1.4,2.3,0.4
		c0.7,3.3,1.5,2.6,1.1-1c-0.4-3.1-0.3-3.7,1.4-6.8c1.2-2.3,2.9-4.3,5.2-6.2c1.9-1.5,3.7-2.8,4-2.8
		C-194,165.8-192.2,167.6-190.4,169.8L-190.4,169.8z M-121.6,173c3.1,0.9,6.2,2.3,8.1,3.8c1.2,0.9,1.3,0.6-1.7,6.1
		c-1,1.8-2.4,2-4.1,0.4c-1.5-1.4-1.1-2.2,1-2.2c1.3,0,1.6-0.3,1.9-1.4c0.1-0.8,0.1-1.5-0.1-1.7c-0.5-0.3-4,1.8-4,2.5
		c0,0.3-0.8,0.6-1.7,0.6c-2.3,0-4.2-2.1-5-5.6c-0.8-3.2-0.4-4.2,1.3-3.7C-125.2,171.9-123.3,172.5-121.6,173L-121.6,173z
		 M-157,175.7c0,0.9-0.1,1-0.5,0.3c-0.3-0.5-0.5-1.3-0.5-2c0-0.9,0.1-1,0.5-0.3C-157.2,174.2-157,175.1-157,175.7z M-96.7,177.2
		c0,2-0.2,2.5-1.2,3c-0.9,0.4-1.2,0.9-0.9,1.8c0.2,0.8,0,1.3-0.7,1.6c-1.5,0.6-1.6,0-0.9-3.7C-99.2,173.6-96.8,171.9-96.7,177.2
		L-96.7,177.2z M-173.8,175.1c0.9,1,0.4,3.3-1.2,5.5c-1.1,1.5-1.2,1.6-2.2,0.7c-0.6-0.5-1.3-1.7-1.6-2.6c-0.5-1.5-0.4-1.9,0.8-3
		C-176.5,174.1-174.9,173.9-173.8,175.1L-173.8,175.1z M-218.9,183.8c-0.3,0.8-0.6,3.2-0.7,5.3c-0.2,4.1-0.6,5.9-1.5,5.9
		c-1.1,0-2.4-3.9-2.6-7.7l-0.3-4l2.5-2.9l2.5-2.9l0.3,2.5C-218.5,181.3-218.6,183-218.9,183.8L-218.9,183.8z M-179.2,181.6
		c1.7,2.1,1.8,2.8,0.3,2.8c-0.7,0-1.5-0.7-2-1.7C-182.5,179.5-181.5,178.9-179.2,181.6z M-162.8,181.7c-1,0.4-1.5,0.9-1.4,1.5
		c0.2,1,2.8,1.1,6.4,0.4c1.5-0.3,2.3,0,5.2,2c2.9,2,3.4,2.6,3.1,3.6c-0.6,2-2,3.7-3.6,4.6c-1.4,0.7-1.8,0.7-3.1,0
		c-0.9-0.5-2.4-0.8-3.4-0.8c-1,0-1.8-0.3-1.8-0.6c0-0.4,1.4-0.5,4.4-0.2c3.2,0.3,4.5,0.2,4.8-0.3c0.2-0.4,0.2-0.8,0-1
		c-0.2-0.2-3.5-0.4-7.4-0.4c-7.3-0.1-8.1-0.3-8.1-2.7c0-1.5,1.6-5.1,2.6-5.9c0.5-0.4,1.6-0.7,2.4-0.7l1.4,0L-162.8,181.7
		L-162.8,181.7z M-182.1,184.1c0.6,0.8,0.9,1.7,0.8,2.1c-0.4,1.1-4.5,3.7-6,3.9c-1.7,0.2-2.3-1.2-0.7-1.6c0.8-0.2,1.2-0.8,1.2-1.7
		c0-1.3,0.1-1.4,1-0.5c1.5,1.4,1.8,1.2,1.8-1.3C-183.9,182.3-183.5,182.2-182.1,184.1L-182.1,184.1z M-90.8,187.6
		c-2.8,3.1-4.2,5.2-5.9,9.2c-1.5,3.6-2.3,5-3,5c-0.9,0-2-6.2-1.9-10.3c0.1-5.2,0.9-6.5,2.1-3.6c1.2,2.8,1.8,3,3.6,1.4
		c1.7-1.6,6.4-4.4,6.8-4C-88.9,185.4-89.7,186.5-90.8,187.6L-90.8,187.6z M-196.6,186.3c1.5,0.4,2.9,1,3,1.4
		c0.4,1.1-1.6,1.4-3.6,0.4c-1.1-0.5-2.6-0.9-3.5-0.9l-1.5,0l1.4-0.8c0.8-0.4,1.4-0.8,1.4-0.8C-199.4,185.6-198.1,185.9-196.6,186.3
		L-196.6,186.3z M-177.2,189.9c0,3.2-2.9,9.7-5.3,11.9l-1.5,1.4l0.3-5l0.3-5l2.6-2.4C-178,187.9-177.2,187.7-177.2,189.9
		L-177.2,189.9z M-103.8,192.4c-0.3,2.7-0.9,5.3-2.1,7.7c-2,4.2-1.4,5.7,0.8,2.3c1.6-2.4,2.2-2.4,2.7,0c0.2,1-0.1,1.9-1.4,3.4
		l-1.7,2l-1.2-1.4c-0.7-0.8-2.2-2.1-3.3-3c-1.2-0.9-2-1.8-1.8-2.1c0.6-1,3.7-2.1,4.8-1.8c1.2,0.3,1.2,0.2,0.9-2.6
		c-0.2-1.9,0-3.9,0.5-5.7C-104.3,186.9-103.4,187.5-103.8,192.4L-103.8,192.4z M-195.3,195c0.1,0.3-0.4,2.7-1.2,5.2
		c-0.8,2.5-1.4,4.9-1.4,5.3c0,1.3-1,0.8-1.6-0.8c-0.7-1.7-1-10.3-0.5-11.2C-199.6,192.8-195.6,194-195.3,195L-195.3,195z
		 M-165.3,193.4c2,0.5,2.1,0.7,2.1,2.7c0,1.8-0.4,2.6-2.2,4.5c-2.2,2.3-2.2,2.9,0.1,1.7c0.9-0.5,1.3-0.5,1.9,0.3
		c0.4,0.5,0.9,0.9,1.2,0.9c0.8,0,1.4-3.6,1-5.6c-0.5-2.3,0.8-3.4,3.5-3c1.2,0.2,2.2,0.4,2.3,0.5c0.7,0.6-10.5,15-12.3,15.9
		c-0.4,0.2-0.5-0.5-1.9-10.1c-0.5-3.6-0.8-7-0.6-7.4C-169.9,192.7-168.3,192.6-165.3,193.4L-165.3,193.4z M-144.9,194.5
		c1.1,2.1,1.1,4.5,0,5.7c-0.5,0.5-1,2.2-1.1,3.7c-0.2,2.6-1.4,6.9-2,6.9c-0.5,0-3.9-8.1-3.9-9.4c0-2.6,3.8-8.5,5.4-8.5
		C-146.1,192.8-145.4,193.5-144.9,194.5L-144.9,194.5z M-186.8,193.9c0,0.6-2.3,1.7-3.7,1.7c-1.1,0-1-1.6,0.2-1.9
		C-188.4,193.3-186.8,193.4-186.8,193.9L-186.8,193.9z M-215.1,197c0.5,2,0,6.9-0.8,7.7c-0.5,0.5-0.6-0.6-0.6-4.2
		C-216.5,195.7-215.8,194.1-215.1,197L-215.1,197z M-204,205.9c-0.7,2.7-1.4,4.1-2.3,4.7c-0.7,0.5-1.3,0.6-1.3,0.3
		c0-0.3,0.3-0.6,0.8-0.8c0.4-0.2,0.9-1.3,1.1-2.4c0.2-1.2,0.6-3.9,0.9-6c0.3-2.1,0.8-4.1,1-4.5C-202.9,195.7-203,202.2-204,205.9
		L-204,205.9z M-186.5,199.7c-0.5,4.2-1.3,6.6-2.3,6.6c-1,0-1-0.5,0-1.3c0.6-0.5,0.7-1.2,0.3-3.2c-0.4-1.9-0.3-2.8,0.3-3.8
		C-186.7,195.9-186.1,196.5-186.5,199.7L-186.5,199.7z M-117.2,200.7c1.4,1,2.4,2.2,2.4,2.9c0,0.8,0.3,1,0.9,0.8
		c0.5-0.2,1.8,0.2,2.9,0.9c1.1,0.7,2.7,1.6,3.6,2.1c1.8,0.9,1.9,1.6,0.4,3.6c-0.6,0.8-1.1,1.6-1.1,1.9c0,0.7-2.4,3-3.1,3
		c-1,0-2.9-2.6-3.3-4.7c-0.2-1-1.2-2.7-2.2-3.8c-3.2-3.4-4.2-5.2-4.2-6.8C-121,198.5-120.2,198.5-117.2,200.7L-117.2,200.7z
		 M-191,200.4c0.2,0.5,0.3,1.5,0.3,2.3c0,1.2-0.1,1.3-0.8,0.7c-0.5-0.4-0.8-1.4-0.8-2.3C-192.4,199.4-191.6,199-191,200.4z
		 M-172.5,201.9c0.8,1.2,2.4,11,1.9,11.5c-0.5,0.5-3.2-0.9-3.2-1.6c0-0.4,0.4-1.8,0.9-3.1c1-2.6,0.7-3.5-0.6-2.4
		c-0.6,0.5-0.9,0.5-1.4-0.3c-0.9-1.5-1.7,0.1-1.2,2.1c0.5,1.8-0.4,2.9-1.2,1.5c-0.8-1.3-0.6-3.2,0.7-5.7
		C-174.8,200.4-173.8,199.9-172.5,201.9L-172.5,201.9z M-211.5,203.3c0,0.5-0.3,0.7-0.6,0.5c-0.3-0.2-0.6-0.7-0.6-1.2
		s0.3-0.7,0.6-0.5C-211.7,202.3-211.5,202.8-211.5,203.3z M-154,205.2c0.8,0.6,1.7,2.2,2.1,3.5c0.3,1.3,1.1,2.9,1.7,3.7
		c0.6,0.7,1.1,1.9,1.1,2.6c0,1.6-2,6.4-2.7,6.4c-0.3,0-1.1-1.1-1.8-2.4c-0.7-1.3-2-3.2-2.8-4.2c-4.7-5.9-4.7-5.8-2.3-8.7
		C-156.6,203.7-156,203.6-154,205.2L-154,205.2z M-211.1,206.9c1.3,0.4-0.2,2.6-2,3c-2.2,0.5-2.6,0.1-1.5-1.5
		c0.5-0.7,0.9-1.8,0.9-2.4c0-1,0.1-1,1-0.2C-212.2,206.3-211.5,206.8-211.1,206.9L-211.1,206.9z M-209.8,205.7
		c0,0.3-0.3,0.6-0.6,0.6c-0.3,0-0.6-0.3-0.6-0.6c0-0.3,0.3-0.6,0.6-0.6S-209.8,205.4-209.8,205.7z M-191.2,208.8
		c0,0.9-3.1,3.8-3.5,3.3c-0.5-0.5-0.5-2.3,0.1-3.4c0.3-0.5,0.7-1.5,0.9-2.1c0.4-1.1,0.4-1.1,1.4,0.2
		C-191.7,207.5-191.2,208.4-191.2,208.8L-191.2,208.8z M-183.1,206.7c-0.3,0.9-0.6,2-2,8.6c-0.8,3.8-1.5,4.2-3.1,1.5
		c-1-1.8-1-1.8,0.2-2.6c0.7-0.5,1.2-1.4,1.2-2.2c0-1.4,0-1.4-1.4-0.5l-1.4,0.9l1-1.5c0.7-1.1,1.1-1.3,1.7-0.8c1,0.8,1.9,0.2,1.9-1.4
		c0-1.9,0.6-3.1,1.5-3.1C-183,205.7-182.8,206-183.1,206.7L-183.1,206.7z M-200.2,208c0.4,0.7,0.4,1.4,0.1,1.8
		c-0.3,0.4-1,1.9-1.5,3.4c-1.2,3.3-2.2,4.1-1.7,1.5c0.6-3,2-7.8,2.3-7.8C-200.9,206.8-200.6,207.4-200.2,208L-200.2,208z
		 M-160.8,212.7c1.9,2.4,2.1,5,0.4,6c-1.5,0.8-1.8,0.4-2.7-3.5C-164.2,210.5-163.3,209.5-160.8,212.7L-160.8,212.7z M-177.2,213
		c0.3,0.6,0.6,1.8,0.6,2.7l0,1.6l-1.4-1.6c-1.5-1.7-1.8-3.8-0.6-3.8C-178.2,211.9-177.5,212.4-177.2,213L-177.2,213z M-213.7,213.5
		c0,0.2-0.6,1.3-1.4,2.4l-1.4,1.9V216c0-1.1,0.4-2,1-2.3C-214.3,212.9-213.7,212.9-213.7,213.5L-213.7,213.5z M-172.4,215.3
		c0.3,0.5-2,3-2.3,2.6c0-0.1,0-0.8,0.2-1.6C-174.3,214.7-173.1,214.2-172.4,215.3L-172.4,215.3z M-165.8,216.2c0.5,1.4,0.4,3-0.2,3
		c-0.7,0-1.6-2.3-1.3-3.2C-166.9,215-166.2,215.1-165.8,216.2L-165.8,216.2z M-177.3,221c-0.8,1.4-0.4,3,0.6,3
		c2.6,0.2,2.8,0.3,2.8,1.6c0,0.8-0.6,2.1-1.3,2.9l-1.3,1.5l-0.9-1.4c-0.5-0.8-1.3-2.9-1.8-4.7c-1.5-5.6-1.1-7.4,1.2-5.3
		C-177,219.7-176.8,220.1-177.3,221L-177.3,221z M-181-59.7c0,0.9,0.1,1.4,0.3,1c0.2-0.4,0.2-1.1,0-1.7
		C-180.9-60.9-181-60.6-181-59.7L-181-59.7z M-59.8,142.4c0,2.1,0.8,3,2.2,2.3c1.2-0.5,1.2-0.6-0.5-2.1
		C-59.8,141.1-59.8,141.1-59.8,142.4L-59.8,142.4z M-53.4,148.1c0.5,0.8,0.9,2,0.9,2.8c0,2,1,2.3,1.8,0.6c0.6-1.3,0.5-1.6-0.9-3.1
		C-53.6,146.4-54.7,146.2-53.4,148.1L-53.4,148.1z M-57,151.8c0,0.3,0.1,0.6,0.2,0.6c0.1,0,0.4-0.3,0.6-0.6c0.2-0.3,0.1-0.6-0.2-0.6
		S-57,151.5-57,151.8z M-51.9,154.8c0,0.6,0.1,0.9,0.3,0.7c0.2-0.2,0.2-0.7,0-1.1C-51.7,154.1-51.9,154.2-51.9,154.8L-51.9,154.8z"
		/>
</g>
</svg>
