<?xml version="1.0" encoding="utf-8"?>
<!-- Generator: Adobe Illustrator 23.1.1, SVG Export Plug-In . SVG Version: 6.00 Build 0)  -->
<svg version="1.1" id="Layer_1" xmlns="http://www.w3.org/2000/svg" xmlns:xlink="http://www.w3.org/1999/xlink" x="0px" y="0px"
	 viewBox="0 0 175 300" style="enable-background:new 0 0 175 300;" xml:space="preserve">
<style type="text/css">
	.st0{fill:#010101;}
</style>
<g id="layer1" transform="translate(-685.05 -170.71)">
	<g>
		<g>
			<path class="st0" d="M822.8,413.2c0-1.1-0.3-1.2-1.5-0.7h0c-0.5,0.2-0.5,0.5-0.1,1C822.1,414.6,822.8,414.5,822.8,413.2z"/>
			<path class="st0" d="M812.7,363.9c0.1,0.4,0.5,0.7,0.9,0.9c0.4,0.1,0.5-0.1,0.3-0.6C813.5,363.2,812.4,363,812.7,363.9
				L812.7,363.9z"/>
			<path class="st0" d="M816.9,379.3c0,0.6,0.2,1.2,0.5,1.4c0.3,0.2,0.5-0.2,0.5-0.7c0-0.6-0.2-1.2-0.5-1.4
				C817.2,378.4,816.9,378.7,816.9,379.3z"/>
			<path class="st0" d="M827.6,386.8c0,0.7,2.6,1.9,3.1,1.5c0.2-0.2-0.1-0.7-0.6-1.2C828.9,386.3,827.6,386.1,827.6,386.8z"/>
			<path class="st0" d="M785.2,299.6L785.2,299.6c0,0.6,0.1,0.9,0.3,0.7c0.2-0.2,0.2-0.6,0-1C785.4,298.8,785.3,298.9,785.2,299.6z"
				/>
			<path class="st0" d="M860,339.1c-0.3,0-0.7,0.4-0.8,0.8c-0.4,1-4.7,0.8-5.9-0.2c-0.5-0.4-1.5-0.6-2.6-0.4
				c-1.6,0.3-1.9,0.2-2.8-1.6l-1-1.9l1.3-1c1.7-1.3,2.7-1.3,4.5,0.1c1.6,1.2,2.5,1,2.5-0.6c0-0.7,0.4-1,1.1-1c0.7,0,1-0.3,0.9-0.7
				c-0.1-0.4-0.8-0.6-1.5-0.5c-2.5,0.3-6.6,0-7.3-0.5c-0.4-0.3-1.2-0.4-1.8-0.2c-0.7,0.2-1.4,0-2-0.8c-0.5-0.6-1.6-1.1-2.4-1.1
				c-1.8,0-3.5-1.7-2.5-2.6c0.8-0.8,3.3-0.8,4.1,0c0.4,0.4,1.3,0.7,2.1,0.8c0.8,0.1,2.5,0.3,3.7,0.5c2.4,0.4,2.9-0.2,1.5-1.4
				c-0.7-0.6-0.7-0.8,0.3-1.4c1.8-1.2,1.3-1.9-1-1.6c-1.2,0.2-2.4,0-2.7-0.3c-0.4-0.4-0.9-0.3-1.7,0.4c-1.1,1-1.2,1-4.2-0.6
				c-3.2-1.6-4.4-2.7-4.4-3.9c0-1,1.6-0.8,4.2,0.4c3.3,1.6,3.9,1.3,1.5-0.8c-1.4-1.3-2.6-1.9-3.8-1.9c-0.9,0-2-0.2-2.4-0.5
				c-0.6-0.4-0.5-0.7,0.4-1.5c1.2-1,1.5-2.4,0.7-2.4c-0.3,0-1.7,0.5-3.1,1.1c-2.4,1-2.9,1.1-7,0.5c-2.5-0.4-5.8-0.5-7.5-0.3
				c-2.7,0.3-3.2,0.2-4.1-0.8c-0.9-1-1-1.4-0.3-4.1c0.6-2.3,0.6-3.3,0.1-4.3c-0.3-0.8-0.5-1.6-0.4-1.8s1.7-0.3,3.4-0.2
				c3.9,0.3,5.3,1.5,5.8,5c0.2,1.3,0.5,2.6,0.7,2.8c0.6,0.6,2.6-1.8,3-3.7c0.3-1.6,0.2-1.9-2-3.4c-1.3-0.9-2.8-1.9-3.5-2.1
				c-1.5-0.6-2.2-2.6-1.2-3.3c1-0.6,1.7-0.3,2.3,1c0.4,1,1,1.2,3.4,1.2c2.2,0,2.8,0.2,2.8,0.9c0,0.6,0.3,0.8,0.8,0.5
				c0.5-0.2,1.3,0,1.9,0.3c0.9,0.5,1.2,0.5,1.7-0.2c0.8-1.1,6.4-1.6,8.7-0.8c1.2,0.4,1.7,0.3,2.4-0.3c2.2-2.2-3-3.7-8.6-2.5
				l-3.3,0.7l-1.1-1.4c-0.6-0.8-1.8-1.8-2.6-2.3c-1.8-0.9-2-2.1-0.5-2.9c0.6-0.3,1.1-0.8,1.1-1.1c0-1-1.4-0.5-2.7,0.9
				c-1.9,2-3.9,2.9-6.6,2.9c-1.4,0-2.5,0.3-2.6,0.7c-0.2,0.5-0.5,0.5-1.6-0.1c-0.8-0.4-2.2-0.7-3.1-0.7c-1.9,0.1-4.8-1.7-4.8-2.9
				c0-0.4-0.6-1-1.3-1.3c-1.8-0.7-5.4-4-6.8-6.2c-0.9-1.5-1.8-4-2.8-8.3c-0.4-1.7,1.1-0.9,2.7,1.3c1,1.3,2.1,2.4,2.5,2.4
				c0.4,0,1.4-0.6,2.3-1.4c1.7-1.6,4.4-2.9,6.2-2.9c0.7,0,2.6,0.8,4.2,1.7c9.3,5.3,10.5,5.7,13,5.2c1.3-0.3,3.8-0.6,5.7-0.8l3.4-0.3
				v1.9c0,2.2,0.8,2.5,1.7,0.6c0.3-0.7,0.9-1.4,1.3-1.6c1-0.4,4.9,2.6,5.9,4.6c0.5,1,1.5,2.6,2.2,3.5c1.3,1.7,1.3,1.8,0.4,2.8
				c-0.9,1-0.9,1,0.8,1c1.9,0,1.9-0.1,1.1-2.5c-0.9-2.6,0-3.4,2.2-1.7c1.8,1.4,2.8,1,1.8-0.6c-1.4-2.2,0-4.7,1.8-3.1
				c0.4,0.3,0.9,0.5,1.1,0.3s-0.3-0.6-1-1s-2-1.2-2.8-2c-0.9-0.7-1.9-1.2-2.4-1c-0.4,0.2-1.7-0.3-2.9-1s-2.6-1.4-3.3-1.4
				s-2-0.4-2.8-0.8c-0.8-0.4-2-0.8-2.5-0.8c-0.5,0-1.1-0.4-1.4-0.9c-0.4-0.7-0.8-0.8-2-0.3c-0.8,0.3-2.6,0.9-4,1.2
				c-1.3,0.4-3.1,0.9-3.9,1.2c-2,0.7-3.6,0.2-5.8-1.9c-1-1-2.4-2-3.1-2.2c-1.7-0.5-1.3-2.1,0.5-2.3c0.8-0.1,2.3-1,3.3-2
				c1-1,2.2-1.9,2.6-1.9c0.4,0,1.5-0.7,2.5-1.6s2.1-1.6,2.4-1.7s1.2-0.1,2-0.2c0.7-0.1,2.5-0.2,3.9-0.3c1.4-0.1,2.6-0.3,2.6-0.3
				s-0.7-0.4-1.6-0.7c-1.6-0.6-2.1-1.7-1.1-2.3c1-0.6,0.5-1.3-1-1.3c-0.9,0-1.8,0.4-2.2,0.8c-0.4,0.4-1,0.8-1.3,0.8s-1,0.4-1.3,0.8
				c-0.4,0.4-1.2,0.8-1.7,0.8c-0.9,0-1-0.2-0.7-1.2c0.2-0.7,0.5-1.9,0.7-2.8c0.4-2.4,1.2-3.1,2.9-2.7c1.6,0.3,2.4-0.4,1.9-1.6
				c-0.2-0.6-0.8-0.6-3.2,0.2c-1.6,0.5-3.3,1.3-3.8,1.8c-0.5,0.5-1.2,1-1.5,1.1c-0.3,0.1-0.6,0.8-0.6,1.6c0,1.8-4.6,8.6-6.4,9.5
				c-2,1-3.8,0-3.3-1.7c0.2-0.6,0.4-1.7,0.5-2.3c0.2-1.8,0.2-1.9,1-1.9c1,0,2.5-1.8,2.5-3c0-2.1-4.2-6.6-4.3-4.7
				c0,0.2-0.1,1.8-0.2,3.5c-0.1,1.7-0.5,3.9-0.8,5c-0.3,1.1-0.5,2.4-0.3,2.9c0.4,1.1-1.9,3.3-3.4,3.3c-0.5,0-2.1,0.6-3.7,1.3
				l-2.8,1.3l-2-2c-1.8-1.8-2.1-2.4-2.4-5.3l-0.3-3.3l2-0.2c1.9-0.2,2-0.3,2.2-2.3c0.1-1.2,0.6-2.7,1.3-3.3l1.1-1.2L804,257
				c-1.9,0.5-2.2,0.7-2.2,2.1c0,1.2-0.2,1.5-1.1,1.5c-0.6,0-2,0.6-3.2,1.4c-2,1.3-2.2,1.4-3.5,0.5c-0.7-0.5-1.4-1.1-1.4-1.5
				c0-0.4-0.5-0.5-1.3-0.3c-1.2,0.3-1.4,0.1-2.1-2.5c-1-3.5-1-4.7,0-5.8c0.7-0.8,0.7-1-0.3-2.1c-1.3-1.6-1.3-1.9,0-3.6l1.1-1.4
				l-1.2-1.2c-1.1-1.1-1.1-1.3-0.3-1.6c0.5-0.2,1.3,0,2,0.6c0.8,0.7,1.1,0.8,1.1,0.2c0-0.4-0.7-1.4-1.6-2.1
				c-1.5-1.2-1.6-1.5-1.1-2.9l0.6-1.5l2.1,1.2c1.2,0.7,2.3,1.1,2.5,0.9s0-1.3-0.5-2.4c-0.8-2-0.9-2-3.6-2c-2.7,0.1-2.7,0-2.7-1.5
				c0-1.2,0.2-1.5,1.1-1.5c1.7,0,3.1-2.9,3-6.1c-0.1-2-0.3-2.8-0.9-2.9c-0.6-0.1-0.8,0.3-0.6,1.9c0.2,1.7-0.1,2.3-1.1,3.3
				c-2.1,2-3.6,2.8-4.5,2.5c-0.8-0.3-0.8-1,0.1-3.1c0.3-0.7,0.1-0.9-0.4-0.9c-1.3,0-1.6-1-1.8-5.2l-0.2-3.9l1.9-0.6
				c1.6-0.5,1.9-0.8,1.8-2.1c-0.1-1,0.1-1.4,0.6-1.3c0.4,0.1,1-0.3,1.4-0.8c0.7-1,1.9-0.6,1.9,0.7c0,0.6,0.4,0.7,2,0.4
				c2.9-0.5,3.1-1,1-2.8c-1-0.9-1.9-1.9-1.9-2.2c0-0.3-1.3-0.4-3.2-0.2c-2.9,0.3-3.2,0.2-3.2-0.8c0-0.6-1-2.1-2.2-3.3l-2.2-2.2
				l-0.2-12.6c-0.2-12.1-0.2-12.6,0.9-14.2c1.5-2.1,1.4-2.9-0.4-4c-2-1.2-2.4-1.2-3.5,0.2l0,0c-1.9,2.1-4,2.7-6.3,2.1
				c-1.4-0.4-2.5-0.4-3.3-0.1c-0.7,0.3-2.2,0.4-3.5,0.2s-2.5-0.1-2.8,0.2c-0.3,0.3-1,0.2-1.9-0.4c-0.7-0.5-2.1-0.9-3-0.9
				c-0.9,0-1.7-0.2-1.9-0.5c-0.5-0.8-2.4-0.6-2.8,0.2c-0.2,0.4,0.4,1.7,1.3,2.8c0.9,1.1,1.7,2.9,1.9,3.9c0.1,1,0.7,3.6,1.3,5.6
				c2.1,7.2,2,36.5-0.1,39.6c-0.6,0.8-0.6,1.5-0.2,3.1c0.8,2.9-0.4,4.1-4.3,4.6c-2.3,0.3-3.1,0.2-3.9-0.5c-0.8-0.7-1.4-0.8-3.3-0.4
				c-1.3,0.3-2.6,0.4-3,0.2c-0.9-0.3-1-3.5-0.2-4.3c0.4-0.4,0.4-0.7,0-0.9c-0.9-0.5-0.7-3,0.2-3c0.4,0,1.1,0.5,1.5,1.1
				c0.6,0.9,1,1,2.3,0.6c1.4-0.4,1.6-0.7,1.8-3.2c0.2-3,0-3.3-1.5-1.9c-0.9,0.8-1.1,0.8-2.3-0.4c-0.7-0.7-1.3-1.8-1.3-2.4
				c0-1.3-1.3-2.7-2.1-2.2c-0.7,0.4-5-2.5-5.9-4c-0.5-0.8-1.1-1.1-2-0.9c-0.8,0.2-2-0.2-3.2-1c-2.1-1.4-2.9-1.6-2.9-0.6
				c0,1.2,2.5,3.1,4,3.1c0.8,0,1.4,0.2,1.4,0.5c0,0.3,0.5,1,1.1,1.7c1.3,1.6,1.3,2,0,2.3c-0.7,0.2-1,0.6-0.7,1.1
				c0.4,1,1.8,1.2,1.8,0.2c0-0.4,0.7-1.1,1.6-1.6c2.2-1.3,2.8-0.4,2.7,4.4c-0.1,4.4-0.7,4.9-2.8,2.1c-1.3-1.7-1.4-1.7-2.7-0.8
				c-1.7,1.1-2.4,1.1-3.6,0c-1.3-1.1-3.3-0.5-2.9,0.8c0.4,1.2-1.1,1.9-1.8,0.7c-0.4-0.7-0.7-0.7-1.6-0.2c-1.4,0.8-1.5,2.5-0.1,3.4
				c0.7,0.5,1,1,0.8,1.8c-0.2,0.9,0,1.4,0.9,1.8c1.9,1,2.6-0.2,1.2-1.8c-2.2-2.3-1.2-4.1,2.2-4.1c6,0,9.8,6.2,7.7,12.4
				c-0.9,2.7-0.4,4.8,1.3,4.8c1.1,0,1.5,1.3,0.5,1.9c-0.3,0.2-1.5,0.2-2.7,0c-1.6-0.3-2.3-0.7-2.7-1.7c-0.6-1.5-0.4-1.5-2.7-0.3
				l-1.9,1l1.7,1.6c1.5,1.5,2,1.6,4.2,1.4c2.3-0.3,2.6-0.1,4.4,1.7c1.1,1.1,1.9,2.3,1.9,2.8s0.4,1,0.8,1.1s1.1,1.2,1.4,2.3
				c0.3,1.1,1.2,2.6,1.8,3.3c1.7,1.9,2.7,4.1,2.3,5c-0.2,0.4-0.9,1.2-1.6,1.7c-1.1,0.7-1.9,0.8-6.1,0.3c-6.1-0.8-7.3-1.4-7.9-3.9
				c-0.3-1.4-0.9-2.1-1.8-2.3c-0.7-0.2-1.5-0.9-1.8-1.7c-0.5-1.2-0.7-1.3-2.3-1c-2.3,0.5-2.5,0.7-2.5,1.9c0,1.4-0.6,1.3-2.1-0.3
				c-0.9-0.9-1.6-1.2-2.5-1c-0.7,0.2-1.8-0.1-2.6-0.6c-0.9-0.6-1.5-0.7-1.7-0.3c-0.3,0.5,0.1,0.7,2.3,1.4c0.4,0.1,0.7,0.6,0.7,1
				c0,0.6-0.5,0.8-1.7,0.8c-1,0-2.2,0.4-2.8,0.8c-0.9,0.7-1,0.9-0.3,1.3c0.4,0.3,1.3,0.5,2,0.5c1.1,0,1.2,0.3,1.2,2.7
				c0,3,1.1,3.5,1.6,0.7c0.2-1.1,0.7-1.7,1.6-1.9c2.3-0.6,2.5-0.5,4.8,1.6c2.3,2.2,2.8,4.1,1.2,4.6c-0.5,0.2-1.8,1-2.8,1.9
				c-1,0.9-2.2,1.5-2.8,1.4c-0.5-0.1-1.2,0.1-1.5,0.5c-0.7,0.9-2.1,1-2.1,0.2c0-0.3,0.4-1.2,0.9-1.9c1.1-1.7,0.7-2.2-1.4-1.3
				c-2.1,0.9-3.5-0.1-3-2c0.3-1-0.1-1.6-1.5-2.9c-2-1.8-7.9-4.8-8.6-4.4c-0.4,0.3,4.3,3.9,5.1,3.9c0.2,0,0.8,0.6,1.3,1.4
				c1.5,2.2,0.3,2.8-2.8,1.3c-3.1-1.5-11.3-1.8-10.8-0.5c0.3,0.9,5.2,2.1,7.7,1.8c2.3-0.3,3.2,0.2,4.7,2.5c0.5,0.8,1.8,1.7,2.9,2.1
				c2.7,0.9,4.5,2.1,4.5,3c0,2.1-5.4,3.2-6.8,1.4c-0.7-0.8-0.7-0.8-0.5,0c0.5,1.5-0.9,2.2-3.3,1.5c-2.1-0.6-3.2-2-2.5-3.2
				c0.5-0.8-0.9-1.4-2.6-1.2c-1,0.1-1.8-0.2-2.2-0.8c-0.6-0.8-0.8-0.8-1.5-0.3c-0.5,0.4-1.5,0.6-2.3,0.6c-2.5-0.2-3.4,0-3.4,0.8
				c0,1,1.7,1.1,2.6,0.1c0.5-0.5,0.9-0.3,2,1c0.7,0.9,2.3,2,3.5,2.4c2.6,0.9,3,1.4,2.1,2.4c-0.8,0.9-2.7,1.1-2.7,0.2
				c0-0.3-0.9-0.5-2.3-0.4c-3.4,0.2-6.7,3.8-4.7,5.1c0.3,0.2,1.3-0.3,2.1-1.1c2.1-2,3.5-1.6,3.7,0.9c0.1,1.3-0.1,2.3-0.7,2.9
				c-1,1-1.1,4.3-0.2,4.8c0.9,0.6,1.6-0.9,1.3-3c-0.2-1.2,0-2.2,0.5-3c0.4-0.6,0.8-1.5,0.8-1.9c0-1.3,3.8-4.4,5.9-4.8
				c2.1-0.5,2.7-0.3,2.7,0.9c0,1,0.9,1,1.3,0c0.5-1.3,2-1,2,0.5c0,1-0.3,1.3-1.1,1.3c-1.1,0-1.1,0.2-0.8,3.1
				c0.4,3.1,0.3,3.2-1.7,5.4c-1.1,1.2-2.4,2.3-2.7,2.3s-1.1,0.2-1.6,0.5c-0.5,0.3-2.6,0.7-4.6,1c-3.8,0.6-5.2,1.3-5.2,2.6
				c0,0.6,0.4,0.7,1.8,0.4c1.3-0.2,2.2-0.1,3.1,0.5c1.7,1.2,2.3,1.1,3.9-0.5c0.7-0.7,1.8-1.3,2.4-1.3c0.6,0,1.5-0.6,2-1.3
				c0.5-0.8,1.4-1.3,2.2-1.3c1.1,0,1.3,0.2,1.1,1.5c-0.1,1.2-0.6,1.6-2.9,2.5c-3.9,1.5-5.1,2.1-5.1,2.6c0,0.7,4-0.2,5.4-1.3
				c1.7-1.3,3.4-1,3.6,0.5c0.2,1.3-1.4,2.1-3.1,1.5c-0.7-0.2-1.1-0.1-1.1,0.4c0,1.1-1.9,3.1-2.9,3.1c-0.5,0-1.4-0.7-2.1-1.5
				l-1.3-1.5l-3,1c-2.8,0.9-5.7,3.2-5.1,3.8c0.2,0.2,1.3-0.3,2.6-1c2.6-1.4,5.3-2.1,6.2-1.5c0.3,0.2,0.8,1,1.2,1.8
				c0.6,1.3,0.5,1.5-0.4,2c-0.6,0.3-1.7,1.3-2.6,2.2c-0.9,0.9-2.1,1.6-2.6,1.7c-2.7,0.2-3.1,0.3-3.3,0.9c-0.1,0.4,0.1,0.7,0.6,0.7
				c1.2,0,1.6,1.1,0.7,1.8c-0.9,0.7-1.7,3.2-2.2,6.6c-0.6,4,2.4,5.1,4.7,1.7c1.1-1.5,2.3-1,2.9,1.3c0.4,1.6,0.5,1.7,0.9,0.6
				c0.5-1.4,2.9-1.7,3.4-0.4c0.4,1-1.2,2.9-2.4,2.9c-0.9,0-7.8,3.2-7.6,3.5c0.1,0.1,1.3,0,2.6-0.3c1.4-0.3,2.6-0.2,2.9,0
				c0.7,0.6-1.2,4.1-2.8,5.1c-0.7,0.4-1.2,1.3-1.2,1.9s-0.8,2-1.7,3.2c-0.9,1.2-1.5,2.3-1.3,2.5c0.2,0.2,0.6,0,0.9-0.4
				s0.9-0.8,1.4-0.8c0.6,0,1-0.5,1.1-1.5c0.1-0.8,0.5-1.5,0.9-1.5c0.4,0,1-0.9,1.3-2c0.7-2.6,4.9-6,6.2-5c0.4,0.4,0.8,1.5,0.8,2.5
				c0,1.4,0.2,1.7,0.8,1.5c0.4-0.2,1.2,0,1.6,0.4c0.7,0.5,1.2,0.5,2.9,0c2.2-0.7,3.3-0.5,3.3,0.8c0,0.4,0.2,0.8,0.5,0.8
				c0.9,0,5.3-2.2,6-2.9c0.4-0.4,1.2-0.8,1.9-0.8c0.9,0,1.3-0.4,1.5-1.5c0.2-1,1.1-2,2.6-3c2-1.3,2.9-1.5,6.7-1.7
				c4.3-0.2,4.5-0.1,4.5,1c0,2.8-4.5,6.1-6.3,4.7c-0.7-0.5-6.1,1.5-6.1,2.3c0,0.6,1.8,0.5,2.5-0.1c0.7-0.7,3.5-0.4,3.8,0.4
				c0.3,0.8-2.4,4-3.8,4.5c-1.3,0.5-3-0.2-3-1.3c0-1-0.7-1.4-2.1-1c-1.6,0.4-1.5,1.1,0.2,1.5c1.7,0.4,1.4,1.7-0.3,1.5
				c-0.7-0.1-1.7,0.3-2.2,0.8c-0.8,0.8-1.2,0.8-2.3,0.2c-1-0.5-4.6-0.6-6-0.1c0,0-0.2,0.3-0.3,0.7c-0.2,0.5,0.4,0.6,2.4,0.5
				c2.1-0.2,2.6,0,2.6,0.7c0,0.9-1.6,2.7-3.7,4.1c-1.1,0.7-1.2,1-0.7,1.9c0.4,0.7,0.4,1.4,0,2.1c-0.7,1.4-4.5,5.1-5.2,5.1
				c-0.3,0-0.6,0.2-0.6,0.5c0,0.3,0.4,0.5,0.9,0.5c0.5,0,1.4,0.1,2,0.3c0.8,0.2,1.3-0.1,1.8-1.1c0.4-0.8,1.2-1.4,1.7-1.4
				c1.3,0,1.3,2,0.1,4.7c-0.5,1.1-1,2.7-1.2,3.6c-0.3,1.3-0.7,1.6-1.7,1.6c-1.5,0-2,1.4-0.8,2.4c1.2,1,3.8-1.1,5.5-4.4
				c1.4-2.8,1.7-4.7,1-6.4c-0.6-1.4,0.4-3.9,1.7-4.1c0.9-0.1,4.5,2.4,4.5,3.3c0,0.2-0.9,0.4-2,0.5s-2.1,0.4-2.2,0.8
				c-0.3,0.9,3.8,1.5,5.2,0.7c0.6-0.3,1.5-0.4,1.9-0.2c1,0.6-0.1,2-3.4,4.2c-1.3,0.9-2.5,2-2.6,2.4c-0.2,0.5-1.2,1.7-2.4,2.8
				c-1.1,1.1-2.3,2.6-2.6,3.3c-0.4,1.1-1.1,1.4-3.9,1.9c-1.9,0.3-3.8,0.6-4.3,0.6c-0.6,0-0.9,0.5-0.9,1.6c0,1.9-0.2,1.8,2.7,0.8
				c2.5-0.9,7-1.1,7-0.3c0,0.3-0.5,0.6-1.2,0.7c-0.7,0.1-1.5,0.8-2,1.8c-0.4,0.9-1,2-1.2,2.6c-0.8,1.6,0.4,1,2.5-1.3
				c1.6-1.8,2.2-2.1,3.3-1.9c1.7,0.4,1.7,1.6,0,3.2c-1.7,1.6-1.7,1.9,0,1.9c1.1,0,1.3-0.2,1.2-1c-0.2-1.3,2.1-3.8,3.4-3.8
				c1.7,0,1.8,1.6,0.1,3.3c-0.8,0.9-1.8,1.6-2.2,1.6c-0.8,0-2.1,2.1-1.6,2.6c0.2,0.2,0.6,0,1-0.3c0.3-0.3,1-0.6,1.5-0.6
				c0.5,0,1.3-0.6,1.8-1.4l0.9-1.4l1.6,1.5c0.9,0.8,1.6,1.8,1.6,2.2c0,1.3,1.1,0.7,1.4-0.8c0.5-2.5,0.7-2.8,1.4-2.8
				c0.4,0,1.2,0.7,1.8,1.6c1.3,2,1.8,2,1.9,0.1c0.1-7.1,0.3-9.3,1.1-9.8c1.8-1.1,2.7,1.3,1.9,5.2c-0.5,2.4,0.6,2.3,1.6-0.2
				c0.6-1.4,0.6-2.2,0.3-2.9c-0.3-0.5-0.5-2.4-0.5-4.2c0-2.7,0.2-3.4,1.1-4c1.1-0.8,5.1-8.4,5.9-11.1c0.2-0.7,0.8-1.4,1.4-1.5
				c0.6-0.1,1.8-0.5,2.7-0.9c2.8-1.3,4.4-1,4.7,0.7c0.4,2,0,9.3-0.5,10.7c-0.3,0.6-1.8,2.6-3.4,4.3c-1.6,1.7-3.4,4.1-3.9,5.3
				c-0.5,1.2-1.4,3-2,4c-0.6,1-1.1,2.4-1.1,3.1c0,1.8-4.3,6-6,6c-0.7,0-1.8-0.5-2.3-1.1l-1-1.1l-0.9,1.1c-1.1,1.4-5.2,3.3-5.7,2.6
				c-0.2-0.3-0.5-0.4-0.8-0.2c-0.6,0.4-2.6,4.7-2.6,5.6c0,0.3-0.4,1.3-0.9,2.2c-1.2,2.3-0.6,7.6,1,9.1c1,0.9,1.2,1,1.7,0.2
				c0.3-0.5,1-0.8,1.4-0.8c0.4,0,1.1-0.4,1.5-0.8c0.7-0.9,2.1-1.1,2.1-0.3c0,0.3-0.2,0.7-0.5,0.8c-0.3,0.2-0.4,1.2-0.2,2.4
				c0.2,1.3,0.1,2.2-0.3,2.4c-0.4,0.2-0.5,1.1-0.3,2.2c0.3,1.4,0.1,2.1-0.6,2.9c-0.5,0.6-0.8,1.3-0.6,1.6c0.2,0.3-0.3,1.1-1,1.7
				c-0.8,0.7-1.4,1.7-1.4,2.3c0,0.6-0.4,1.5-0.9,2c-0.8,0.9-0.8,1,0.3,1.6c1,0.5,1.3,0.5,1.9-0.4c0.4-0.6,1.6-1.2,2.6-1.4
				c2-0.4,2.3-0.8,1.3-1.7c-1-1,1.4-4.8,6-9.3c2.4-2.3,4.6-4.3,5-4.3c1.2,0,2.1,1.5,1.7,2.9c-0.3,1.3-1.1,2.2-5.8,6.5
				c-1.6,1.5-2.8,3.1-2.7,3.6c0.1,0.5-0.3,1.2-0.9,1.6c-1.3,1-2.1,2.4-2.5,5.1c-0.3,2-0.2,2.2,0.9,2.5c0.7,0.2,1.1,0.5,0.9,0.7
				c-0.2,0.2,0.1,1.3,0.7,2.4c0.6,1.1,1.2,3.1,1.4,4.3l0.4,2.3l1.3-1.5c0.7-0.8,1.3-1.8,1.3-2.2c0-0.4,0.6-1.2,1.3-1.8
				c0.7-0.6,1.3-1.5,1.4-2.1c0-0.5,0.2-1.4,0.5-1.8c0.4-0.7,0.7-0.7,1.6-0.1c1.1,0.7,1.1,0.7,0.7-3.9c-0.3-3.4-0.2-4.6,0.3-4.6
				c1.2,0,2.6,1.1,3.8,2.9c1.4,2.3,1.6,8.1,0.3,9.9c-1.1,1.6-1.5,1.5-2.6-0.8c-0.7-1.5-1.1-1.8-1.4-1.2c-0.3,0.4-0.5,1.2-0.5,1.6
				c0,0.5-0.5,1.2-1,1.6c-0.6,0.4-1.2,1.7-1.4,3c-0.4,2.5,0.3,3.1,1.2,0.9c0.3-0.7,1-1.3,1.4-1.3c0.6,0,0.7,0.5,0.5,2.3
				c-0.4,3-1.5,4.3-3.5,3.9c-0.8-0.2-1.5-0.2-1.5-0.1s-0.4,1.1-0.8,2.1c-0.8,1.8-0.8,1.9,0.4,1.9c0.7,0,1.5,0.1,2,0.2
				c0.4,0.1,1.1-0.4,1.5-1.3c0.4-0.8,1.1-1.6,1.5-1.8c0.4-0.2,0.8-0.6,0.8-1s0.4-1,0.9-1.4c0.5-0.4,1.1-1.3,1.3-1.9
				c0.6-1.7,2.1-1.6,2.1,0.1c0,0.7,0.3,1.3,0.6,1.3c0.4,0,0.5-0.5,0.2-1.5c-0.5-2.2-0.5-2.3,0.5-6.3c0.7-2.8,1.4-4.1,2.6-5.2
				c0.9-0.8,1.8-1.5,2.1-1.5s0.4,0.9,0.4,2.1c0,1.1,0.3,2.4,0.7,2.7c0.4,0.3,0.9,1.3,1.1,2.2c0.3,1.7-0.9,7.9-1.6,8.6
				c-0.2,0.2-1.5,0.7-2.8,1.1c-2.2,0.7-2.4,0.7-3.1-0.3c-0.7-0.9-0.8-0.9-1.3-0.2c-0.3,0.4-0.5,1.1-0.5,1.4c0,0.3-0.9,1.3-1.9,2.2
				c-1.5,1.2-2.1,2.3-3,5.3c-0.7,2.3-0.8,3.9-0.5,4.2c0.3,0.3,0.7,0,1-0.8c0.3-0.7,0.9-2.4,1.4-3.7c1.4-3.7,1.7-4,2.9-3.9
				c0.6,0.1,2-0.5,3.1-1.2c3.4-2.3,4.9-1.7,4,1.7c-0.3,1.1-0.7,4-0.9,6.3c-0.3,3.5-0.6,4.7-1.9,6.7c-1.6,2.4-1.4,3.2,0.5,2.2
				c0.8-0.4,1.1-0.4,1.4,0.2c0.2,0.4,0.7,0.8,1.1,0.8c0.6,0,0.8-0.7,0.8-2.9c0-1.6,0.2-3.1,0.5-3.3c0.3-0.2,1,0.5,1.7,1.6
				c0.6,1.1,1.3,1.9,1.6,1.9c0.8,0,0.6-1.4-0.3-2.1c-0.4-0.4-0.8-1.4-0.8-2.3c0-0.9-0.4-2.2-0.8-2.7c-1.3-1.7-1-4.9,0.7-7.1
				c1.3-1.7,1.5-2.4,1.5-6.2c0.1-4.6,0.7-5.9,2.3-5c2,1.2,2.9,4,2.5,8c-0.2,2.1-0.7,4.1-1.1,4.6c-0.4,0.5-0.8,1.2-0.8,1.7
				c0,0.4-0.5,1.3-1.1,1.8c-1.6,1.5-2.3,2.9-1.7,3.6c0.3,0.4,0.7,1.4,0.9,2.3c0.4,1.9,2.1,3.8,2.7,2.9c0.2-0.3,0.1-1.1-0.3-1.7
				c-0.4-0.7-0.5-1.9-0.2-3.1c0.2-1.1,0.4-2.4,0.3-2.9c-0.1-0.5,0.3-1.1,0.7-1.3s0.8-0.6,0.8-1c0-0.9,1.5-2.2,2-1.7
				c0.2,0.2,0.5,2.1,0.7,4.2c0.2,2.8,0.1,4.2-0.5,5.1c-1,1.5-0.1,1.6,1.1,0.1c1.1-1.3,2.7-1.2,2.9,0.1c0.1,0.5-0.3,1.4-1,1.9
				c-1,1-1.1,1.2-0.4,3.6c0.6,2.3,0.6,2.6-0.3,3.1c-1.5,0.8-1.1,1.4,1,1.6c2.2,0.3,2.6,0,1.8-1c-0.4-0.5-0.4-0.9,0-1.4
				c0.3-0.4,0.6-1.3,0.7-2c0.1-0.9,0.9-1.6,2.2-2.3c2.3-1.2,2.5-1.6,0.8-2.3c-1-0.4-1.2-1-1.4-3.2c-0.3-4,0.3-6.2,1.5-6.2
				c1,0,1,0,0-2c-1-1.9-1-2.4-0.5-6.9c0.3-2.6,0.8-5.1,1.1-5.4c0.2-0.3,0.6-2.6,0.8-5.2c0.3-3.8,0.2-4.8-0.5-5.9
				c-1-1.4-1.2-3.2-0.4-3.2c0.7,0,2.2,2.2,2.2,3.2c0,0.4,0.3,1.2,0.8,1.6s0.9,1.5,1.1,2.3c0.3,1.2,0.1,1.5-1,1.8
				c-1.9,0.5-1.8,1.4,0.2,1.8c1.5,0.3,2.2,1.4,1.2,2c-0.6,0.3-0.1,3.6,0.6,4.5c0.4,0.5,0.3,0.9-0.2,1.5c-0.6,0.7-0.5,1.1,0.2,2.4
				c1,1.7,0.9,5.2-0.3,9.8c-0.4,1.5-0.3,2.3,0.1,2.8c0.3,0.4,0.5,1.3,0.3,2.1c-0.2,0.9-0.1,1.4,0.5,1.6c0.5,0.2,0.8,1,0.8,1.9
				c0,0.9,0.2,1.6,0.4,1.6s0.4-2.3,0.3-5.2c-0.1-4.8,0-5.3,1.2-7c0.7-1,1.3-2.1,1.3-2.6c0-0.6,0.4-0.8,1.5-0.7
				c1.3,0.1,1.5,0,1.5-1.2c0.1-4.3,2-8.1,4-8.1c1.3,0,1.5,0.7,1.2,5.1l-0.3,3.8l1.9,1.5c1.1,0.8,2.3,1.5,2.8,1.5c1,0,1-0.1,0.4-1.7
				c-1.6-4-2.6-11.9-1.4-11.5c0.3,0.1,0.6,0.5,0.6,1c0,1,1.3,3.2,1.8,3.2c0.3,0,0.6-0.3,0.8-0.8c0.3-0.8-0.8-2.9-3.3-6.8
				c-0.7-1-1.2-2.5-1.2-3.2c0-0.7-0.2-1.7-0.5-2.1c-0.7-1.1-2.2,0.2-1.8,1.5c0.1,0.5,0,1.9-0.3,3.1c-0.4,1.4-0.4,2.1,0,2.3
				c0.7,0.2,0.7,1.7,0,1.7c-0.3,0-0.7-0.2-0.8-0.5c-0.2-0.4-0.7-0.4-1.4,0c-1.4,0.7-2.5-1.2-1.7-2.9c0.8-1.9,0.4-8.9-0.7-10
				c-0.5-0.5-0.7-1.3-0.6-1.6c0.2-0.3-0.1-1.3-0.6-2.1c-1-1.7-0.7-4.4,0.5-4.4c1,0,5.2,4.3,5.2,5.2c0,0.4,0.5,1.4,1.1,2.2
				c0.6,0.8,1.1,1.9,1.1,2.6c0,1,0.3,1.3,1.5,1.3c1.7,0,2.6,1.1,5,5.6c1.4,2.6,2,6.5,1.4,8.3c-0.6,1.8-0.8,3.2-0.4,3.2
				c0.3,0,0.6-0.2,0.8-0.5c0.2-0.3,0.7-0.4,1.2-0.2c0.6,0.2,0.8,0.8,0.6,2.3c-0.2,1.6-0.1,2,0.6,1.9c1.7-0.2,1.5-7.5-0.2-10.1
				c-0.8-1.1-0.4-3.1,0.5-3.1c0.4,0,1.1,0.6,1.7,1.4c2.2,3,2.8,3.7,3.2,3.3c0.6-0.6-1.8-4.8-3.5-6.3c-0.8-0.7-1.9-2.3-2.4-3.4
				c-0.7-1.7-1-2-2-1.7c-1.2,0.4-3.2-1-3.2-2.1c0-0.3-1.1-1.8-2.4-3.2c-2.4-2.6-3.2-5.2-1.9-6c0.8-0.5,0.6-2.2-0.4-3
				c-0.8-0.7-0.9-0.6-0.6,0.4c0.3,1.3-0.4,2.9-1.4,2.9c-1,0-4.7-4.6-4.7-5.8c0-0.6-0.2-1.2-0.5-1.4c-0.3-0.2-0.5-1.5-0.5-3
				c0-1.4-0.2-2.8-0.5-3s-0.5-1.2-0.5-2.2c0-1-0.3-2.4-0.6-3.2c-0.3-0.8-0.5-1.5-0.3-1.7c0.5-0.5,4.1,1.5,5.1,2.9
				c0.5,0.7,1.5,2,2.2,2.8c1,1.3,1.2,2,0.9,3.7c-0.3,2.1,0.3,3.4,1,1.9c0.6-1.5,2.7-0.7,3.1,1.1c0.2,0.9,0.8,2.8,1.3,4.3
				c1.4,4.2,1.9,5.9,1.9,7.2c0,0.6,0.5,1.5,1.1,1.8c0.6,0.4,1.1,1,1.1,1.3c0,0.4,0.4,0.9,1,1.2c0.8,0.5,0.8,0.2-0.4-2.2
				c-0.8-1.6-1.5-4.1-1.7-6.4c-0.2-2.6-0.7-4.2-1.5-5.3c-0.7-0.9-1.2-1.8-1.2-2.1c0-1.2-2.2-5.3-3.2-5.8c-0.7-0.4-1.2-1.5-1.4-3.1
				c-0.3-1.9-0.6-2.4-1.4-2.4c-2.6,0-5.7-3.8-5.1-6.2c0.2-0.7,0.1-1.3-0.2-1.3c-0.3,0-0.5-0.3-0.5-0.6c0-0.4,0.3-0.4,1,0
				c0.7,0.4,1.3,0.2,2.2-0.8l1.3-1.3h-1.4c-1.1,0-1.6-0.4-2.2-1.9c-0.7-1.6-0.9-1.8-1.6-1.3c-1,0.9-1,1.6,0.1,2.8
				c0.8,0.9,0.8,1.1,0,1.9c-1.6,1.6-2.4,0.5-3-3.9c-0.3-2.3-0.6-5.7-0.7-7.4c-0.1-2-0.4-3.6-1-4.2c-0.6-0.7-0.8-1.9-0.7-3.8
				c0.1-1.9-0.2-3.1-0.8-3.7c-1-1.1-1.9-6-1.9-10.1c0-4.1,0.7-9.1,1.3-9.4c0.3-0.2,1.5,0.5,2.7,1.5c2.3,1.8,4.2,5.4,4.2,7.8
				c0,0.8,0.4,1.8,0.8,2.3c0.7,0.8,0.7,1.2,0.2,2.1c-0.4,0.7-0.5,2.5-0.3,4.7c0.6,7,0.5,10.8-0.4,11.8c-1.1,1.2-1.1,4.4-0.1,5.7
				c0.7,1,0.8,0.9,0.8-0.9c0-3.9,2.9-3.9,3.6,0c0.2,1.1,0.9,3,1.7,4.3c0.8,1.5,1.2,2.9,1,3.8c-0.2,0.8,0.2,2.1,0.8,3.1
				c0.6,1,1,2.1,0.8,2.5c-0.2,0.4,0.2,1.4,0.8,2.2s1.1,2,1.2,2.8c0.1,1.5,4.8,6,5.6,5.3c0.2-0.2-0.5-1.2-1.7-2.2
				c-1.3-1.1-2-2.2-1.9-2.8c0.3-1.6,2.3-1.4,4.2,0.3c1.5,1.4,1.7,1.9,1.4,3.3c-0.4,1.7,0.5,2.2,1.7,1.1c0.9-0.9,3.3,2.1,3.5,4.3
				c0.1,1.4,0.4,1.9,1.2,1.9c1.9,0.1,2,0.2,1.4,0.9c-0.3,0.4-0.6,1.3-0.6,2c0,0.7-0.1,3.5-0.3,6.1c-0.3,5.2,0.2,5,1.3-0.4
				c0.9-4.3,1.4-4.8,2.7-3.2c1,1.2,1.2,1.2,1.6,0.4c0.3-0.5,1-0.9,1.6-0.9c1.5,0,1.3-0.9-0.8-3.3c-1.8-2-2.5-4.3-1.3-5
				c0.3-0.2,0.4-1.2,0.2-2.4c-0.4-2.6,0.4-3.9,2.3-3.4c1.6,0.4,1.7-0.7,0.2-1.1c-1.6-0.5-3.2-4.3-3.7-8.6c-0.3-2.1-0.9-4.6-1.4-5.6
				c-0.6-1.2-0.7-2-0.4-2.3c0.7-0.7,1.8,0,1.7,1.1c-0.2,1.8,0.1,2.2,1.1,2.2c3.2,0,7.1,4.4,7.7,8.8c0.4,2.8,1.4,2.9,1.4,0.1
				c0-2.1,0.6-2.7,2-2c0.5,0.3,1.9,0.8,3.1,1.1c1.3,0.4,3.2,1.7,4.8,3.3c2.9,2.9,3.2,3,3.7,1.9c0.2-0.5-0.5-1.3-1.8-2.3
				c-1.9-1.3-2.1-1.7-2.1-3.7c0-1.8,0.2-2.3,1.2-2.5c0.6-0.2,1.6-0.1,2.2,0.2c1.1,0.6,2.8,0.2,2.3-0.6c-0.6-1-6.9-1.3-9.6-0.3
				c-2.3,0.8-2.7,0.8-4.2,0c-0.9-0.5-1.6-1-1.6-1.3c0-0.3-0.9-0.7-2-0.9c-2.4-0.6-4.7-3.7-3.3-4.5c1.7-1.1,5.6-0.2,6.6,1.5
				c0.6,1,3-0.8,3-2.2c0-1.2,3.5-3.5,5.3-3.5c0.6,0,1.5,0.5,2,1.1c1.1,1.2,2.8,1,3.9-0.4c1-1.2,0.8-1.7-0.4-1.7
				c-0.6,0-1.1-0.3-1.1-0.6s-0.9-1.6-2-2.7l-2-2l1.7,0.3c1,0.2,2.5,0.4,3.4,0.5c2.3,0.4,5.9-0.3,5.7-1c-0.1-0.3-0.7-0.6-1.2-0.5
				c-1.1,0.1-2.3-1.3-2.4-2.6c0-0.5-0.9-1.6-1.9-2.4c-2-1.6-2.3-2.3-1.1-2.3c0.5,0,1.1-0.6,1.3-1.4c0.7-1.8,0.7-1.8-0.2-1.8
				c-0.6,0-3-3.2-3-4.1c0-0.6,3.6-0.1,4.8,0.6c1.8,1,2.7,1,2.7,0c0-1.5-2.3-2.9-4.6-2.9c-1.4,0-2.7-0.4-3.6-1.1
				c-1.2-1-1.7-1-3.2-0.5c-1.3,0.4-2.8,0.4-5.5,0c-2-0.3-5.1-0.8-6.7-1c-1.6-0.2-3-0.6-3-0.9c0-0.3,1.1-0.9,2.4-1.3
				c1.3-0.5,2.5-1.2,2.6-1.6c0.4-1.2-3.5-0.2-6.1,1.5c-2,1.4-2.5,1.5-5.1,1.2c-3.6-0.4-4.1-1.4-4.3-8.1c-0.1-4.2,0-5.1,0.7-5.6
				c0.7-0.4,1.2-0.3,2.4,0.5c2.8,2,4.8,2.9,6.5,2.9c0.9,0,1.9,0.3,2,0.6c0.2,0.3,0.9,0.5,1.6,0.5c1.6,0,5.1,3,5.1,4.4
				c0,0.6,0.4,1.2,0.9,1.4c0.5,0.2,1.7,1,2.7,1.9c2.1,1.8,4.1,2.2,2.6,0.5c-2.3-2.5,4.3-2.3,11.3,0.5c1.5,0.6,2.1,0.1,2.1-1.9
				c0-1.7,0.5-1.9,4.3-1.1l1.6,0.3l-1.6-0.9c-2.1-1.2-4.8-1.4-7.9-0.6c-2.3,0.6-2.7,0.5-4.1-0.5c-1-0.8-2.3-1.1-4.1-1.1
				c-2.9,0-4.8-1.3-4.3-2.8c0.2-0.6-0.1-1.2-0.7-1.6c-0.9-0.6-0.9-0.6,0-0.3c0.5,0.2,1.3,0.3,1.7,0.3s0.8,0.4,0.8,0.9
				c0,1.2,1.2,2.8,2.1,2.8c0.3,0,0.9-0.6,1.1-1.3c0.4-0.9,0.9-1.3,1.8-1.3c0.7,0,1.6-0.4,1.9-1c0.7-1.4,4.5-3.9,5.8-3.9
				c0.6,0,1.3,0.6,1.7,1.3c0.5,1,1,1.3,2.1,1.2c0.8-0.1,2.1-0.1,2.9,0c1.5,0.1,5.5,3.5,6,5.1c0.3,0.8,0.5,0.8,2.6-0.5
				c2.2-1.4,2.2-1.5,0.8-1.6c-1-0.1-1.4-0.4-1.3-1.1c0.1-0.7,0.7-0.9,2.2-0.8c1.8,0.1,2,0,1.7-1c-0.2-0.6-0.1-1.4,0.3-1.9
				C860.3,339.4,860.3,339.1,860,339.1z M850.2,284.4c1.3,0.1,1.9,0.4,2.1,1.1c0.2,1.3-1.1,1.2-2.7-0.1l-1.3-1.1L850.2,284.4z
				 M818.8,260.7c0.7,0.5,0.7,0.8,0,1.8h0c-1,1.5-2.5,1.8-2.5,0.4C816.4,261.2,817.9,259.9,818.8,260.7z M733.5,430.7
				c-1.8,2.5-1.9,2.6-2.9,2c-1.7-1.1-3.2-8.7-1.8-8.7c0.3,0,1-1.1,1.6-2.4c1.5-3.3,4.2-4.8,4.3-2.3v0c0,0.7,0.4,1.9,0.8,2.8
				C736.6,424.2,735.9,427.3,733.5,430.7z M768.3,214.3c0.1,0.4,0.1,1,0,1.3c-0.1,0.4-0.3,0.1-0.3-0.7
				C768.1,214.2,768.2,213.9,768.3,214.3z M761.5,175.2c0.6,0.3,1.1,0.9,1.3,1.3c0.2,0.4,0.1,1.1-0.2,1.5c-0.4,0.6-0.7,0.5-1.6-0.4
				C759.5,176.1,759.9,174.3,761.5,175.2z M741.3,246.6c0.4-2.4-2-6.7-4.1-7.4c-1.5-0.5-1.6-1.1-0.6-4.2c0.2-0.7,1.7-0.4,3,0.8l0,0
				c0.5,0.4,2.3,0.9,4,1c3.8,0.3,8.9,2,9.6,3c0.6,1,0,3.3-1.1,4.4c-0.6,0.6-1.4,0.8-2.4,0.6c-1.7-0.3-2.1,0.7-0.8,1.8
				c0.4,0.3,0.9,1.2,1.1,1.9c0.4,1.7-1.9,7.5-3.1,7.8C744.6,256.7,740.7,249.9,741.3,246.6z M747.6,264.4c0.8,0,4.3-2.6,5.3-3.9
				c0.9-1.3,2.1-1.2,2.5,0.2c1.1,3.4-1.4,8.2-4.1,7.9c-1.1-0.1-1.3,0.1-1.3,1.7c0,1.6,0.2,1.9,1.9,2.5c1.6,0.6,1.9,0.9,1.9,2.4
				c0,1.2-0.3,2-1.1,2.4c-0.6,0.3-1.9,1.3-2.9,2.1c-1,0.8-2,1.4-2.2,1.2c-0.8-0.5-1.1,0.7-0.3,1.3c0.6,0.5,1.2,0.3,3-0.8
				c4.1-2.7,4.3,1.1,0.2,4.4c-1.7,1.4-2.4,2.3-2.4,3.3c0,1.9-1.5,3.3-3.4,3.3c-0.9,0-2.1,0.5-2.8,1.1c-1,1-1.3,1-3.3,0.3
				c-1.2-0.4-2.7-0.8-3.3-0.8c-1.7,0-2.5-1.2-1.6-2.5c0.4-0.6,0.9-1.9,1.1-2.9c0.2-1,1.5-4.6,2.8-7.8c1.3-3.3,2.4-6.2,2.4-6.6
				C740,271,745.8,264.4,747.6,264.4z M724.9,290.3L724.9,290.3c0.2,1.2-3.3,3.7-5.2,3.7c-0.9,0-2.1,0.5-2.7,1.1
				c-1.3,1.3-1.6,1.3-2.9,0.4c-0.9-0.7-0.9-0.8,0-2.7c0.5-1.1,1.3-2,1.8-2c0.5,0,1.4-0.4,2.2-0.8
				C719.8,288.9,724.7,289.1,724.9,290.3z M718.5,282.2c0.3,0.1,0.6,0.4,0.6,0.6c0,0.6-0.8,0.5-1-0.2
				C718,282.3,718.2,282.1,718.5,282.2z M722.2,279.7c-1.4-0.5-2-1.2-1.6-2.2c0.4-0.9,1.2-0.9,2.5,0.1v0
				C724.5,278.6,723.8,280.2,722.2,279.7z M720.4,303.4c0.6-3.1,0.9-3.5,2.3-4.3c1.3-0.7,1.6-0.6,3,0.1c0.8,0.5,1.8,1.4,2.1,2h0
				c0.3,0.6,1.1,1.6,1.7,2.3c0.6,0.7,1,1.2,0.9,1.2s-2.5,0.1-5.2,0.2l-5,0.2L720.4,303.4z M728.5,299.1l-2.1-2.1l1.9-1.6
				c2.7-2.3,3.7-2.3,7.6-0.4c2.8,1.4,4,1.7,6.6,1.7c3.2-0.1,3.2-0.1,5.9-3.1c1.5-1.6,2.9-2.9,3.3-2.8c0.3,0.1,0.5,1.7,0.5,3.6
				c-0.1,3-0.2,3.5-1.7,4.9c-0.9,0.9-1.7,1.9-1.7,2.3s-1,1.1-2.3,1.7s-2.9,1.4-3.6,2c-0.7,0.5-2.2,1-3.4,1c-2.5,0-6.9-2.1-8.1-3.9
				C730.9,301.8,729.6,300.3,728.5,299.1z M726.3,287c0.3-0.5,3.8-0.3,4.5,0.3c0.1,0.1,0.1,0.6-0.1,1c-0.3,0.7-0.7,0.8-2.1,0.5
				C726.5,288.4,725.8,287.8,726.3,287z M738.4,314L738.4,314c0,0.7-0.5,1.7-1,2.2c-1,0.9-1.1,0.9-1.7-0.2c-0.5-0.9-0.4-1.4,0.3-2.2
				C737.3,312.4,738.4,312.5,738.4,314z M740.2,321l0.8,1.2l0-1.4c0-0.8-0.2-1.6-0.5-1.8c-0.7-0.4-0.7-2.8-0.1-3.2
				c0.3-0.2,0.6-1,0.8-1.8c0.5-2.3,2.7-4.6,5.6-5.9c1.4-0.6,2.9-1.5,3.3-2s1.2-0.8,1.8-0.7c0.9,0.1,1.1,0.7,1.3,2.8l0,0
				c0.6,6.6,0.3,7.9-2.8,11.8c-3,3.8-5.7,5.5-7.2,4.4c-0.5-0.4-1-0.4-1.8,0.1c-1.4,0.9-3.1,0.3-3.7-1.4
				C736.8,320.3,738.6,318.6,740.2,321z M736.3,265.5c0.2,0,0.7,0.3,1.3,0.6l0,0c0.9,0.6,0.9,1,0.4,3.6c-0.3,1.6-1,3.3-1.5,3.9
				c-0.5,0.5-1.3,2.2-1.9,3.8c-1.2,3.5-3.2,5.4-4.9,4.7c-0.7-0.3-1.3-1-1.4-1.8c-0.1-0.8-0.5-1.7-0.9-2c-1.2-1-0.9-4.7,0.6-7.9
				C729.5,267.3,730,267,736.3,265.5z M723.5,255.4c0.9,0.1,1.2,0.5,1.1,1.6l0,0c-0.1,1,0.2,1.5,0.7,1.5c0.8,0,2.4,2.6,2.4,3.9
				c0,0.4-0.5,1.2-1.1,1.7c-1.5,1.4-2.6,0.3-3-2.9c-0.2-1.4-0.6-2.9-0.8-3.4C721.9,256.2,722.2,255.2,723.5,255.4z M718.8,273
				c0.7,0,1.5-0.4,1.9-0.9c1.1-1.3,5.3-3.4,5.3-2.6c0,0.2-0.6,1.6-1.4,3.2c-1,2.2-1.7,2.9-2.5,2.9c-0.6,0-1.6,0.4-2.1,0.9
				c-1.1,1-2.3,0.6-3.3-1C716,274.4,717.2,273,718.8,273z M709,282.1c0.8-2.4,3.1-4.8,4.4-4.8c0.7,0,1.8,0.7,2.6,1.5l0,0
				c2.1,2.2,1.5,4.1-2.3,8.2c-1.9,2-3.5,3.2-3.9,3.1C708.8,289.7,708.3,284.1,709,282.1z M707.8,306c0.3-0.2,0.5-0.8,0.5-1.3
				c0-0.5,0.6-1.4,1.4-1.9c1.1-0.7,1.2-1.1,0.8-1.6c-0.8-1,0.7-3.2,2.7-4c0.7-0.3,1.4-0.5,1.4-0.6c0,0,0.8,0.3,1.8,0.8l0,0
				c1.5,0.7,1.7,1.1,1.4,2.2c-0.2,0.7-0.1,1.7,0.3,2.1c1.1,1.3,0.4,3.2-1.2,3.4c-0.8,0.1-1.7,0.5-2.1,0.9c-0.4,0.4-0.9,0.8-1.1,0.8
				c-0.8,0-4.1,3.5-4.5,4.8c-0.3,0.9-0.8,1.2-2.2,1.2c-1.2,0-1.8-0.3-1.8-0.7C705.1,311,707.2,306.4,707.8,306z M703.8,315.4
				c1-1.9,2.5-2.1,4-0.5h0c0.6,0.6,1.6,1.1,2.1,1.1s1.1,0.2,1.1,0.5c0,1.7-4.8,2.7-6.7,1.5C703,317.1,703,317,703.8,315.4z
				 M695.2,319L695.2,319c-1.2,0.9-2.4,1-2.4,0.3c0-0.6,1-1,2.4-1.1C696.2,318.2,696.2,318.2,695.2,319z M699.2,320.6
				c0,0.9-1.2,0.8-1.5-0.2c-0.1-0.4,0.2-0.6,0.6-0.6S699.2,320.1,699.2,320.6L699.2,320.6z M700.1,315.6c-0.1,0.3-1.6,0.9-3.3,1.2
				c-2.8,0.6-3.1,0.5-3.6-0.4c-0.4-0.8-0.3-1.5,0.6-2.9c1.2-2,2.4-2.2,2.4-0.4h0c0,0.7,0.4,1,1.3,1
				C699.2,314.1,700.4,314.8,700.1,315.6z M699.9,311.2c-0.8,0-0.9-0.5-0.2-2.4c0.7-1.7,2.2-1.8,2.2-0.1
				C701.9,310,701,311.2,699.9,311.2z M711.9,334.2c-0.6,0.2-2.3,0.4-3.8,0.3c-2.5,0-2.7-0.1-2.9-1.5c-0.2-1.7-0.9-1.9-1.6-0.6
				c-0.4,0.8-0.6,0.6-1.4-0.8c-0.5-1-0.8-2.2-0.7-2.9c0.1-1,0.6-1.1,3-1.2c1.6-0.1,3-0.3,3.2-0.4c0.2-0.2,0.7-0.1,1.1,0.3
				c0.6,0.5,1.2,0.5,2.7-0.1l0,0c1.5-0.5,2.4-0.6,4.3,0c1.3,0.4,2.4,0.8,2.4,1C718,329,713,333.8,711.9,334.2z M722.7,324.6
				c-1,0-2,0.2-2.2,0.5c-0.2,0.3-3.8,0.4-8.1,0.3c-4.3-0.1-7.9,0.1-8.1,0.3c-0.4,0.6-2.4,0.6-2.4,0c0-1.1,1.2-3.5,2-4.1
				c0.5-0.4,1.6-0.7,2.3-0.7s2.2-0.4,3.2-0.8c2.5-1.1,13.9-0.8,15.8,0.5h0C728,322.3,726.4,324.6,722.7,324.6z M728.2,320
				c0-0.7-2.7-1.5-7.5-2.2c-2.4-0.4-3.8-0.9-5.5-2.3c-0.5-0.4-1.5-0.6-2.1-0.4c-1.4,0.4-3.1-0.9-3.1-2.4c0-1.8,0.6-2.6,1.9-2.6
				c0.7,0,2.2-0.5,3.3-1.1c1.2-0.7,3.1-1.2,4.8-1.2c1.5,0,3-0.2,3.1-0.4c0.2-0.2,1.9-0.3,3.9-0.3c3,0,3.7,0.2,4.9,1.3l0,0
				c0.9,0.9,1.5,1.2,1.9,0.7c0.8-0.8,2.8-0.7,3.5,0.2c1,1.2-0.7,2.5-2.6,2.1c-1.3-0.3-1.8,0.1-4,2.5c-1.4,1.5-2.5,3-2.5,3.3
				c0,0.8,2.1-0.5,2.7-1.7c0.6-1.1,2.9-1.5,3.4-0.6c0.2,0.2,0.4,2,0.6,4l0.4,3.5l-1.6,0.4C732,323.1,728.2,321.3,728.2,320z
				 M713.2,347.9c0-1.2,2.4-3.5,3.7-3.5c0.6,0,1.4-0.5,2-1c1.8-2,5.2-1.5,4,0.5h0c-0.7,1.3-2.9,2.8-5.6,3.9
				C714.7,349,713.2,349,713.2,347.9z M714.6,376.2c-1.4,0-3.1-1.8-2.7-2.8c0.4-1.2,0.4-1.2,2,0.4
				C715.5,375.2,715.8,376.2,714.6,376.2z M717.5,375.6c-1.5-0.6-1.6-0.9-1.6-3.2c0-2.9,1.7-8.1,3.1-9.1c1.6-1.2,2.9-0.8,2.9,0.8
				l0,0c0,0.8-0.5,2.3-1.1,3.2c-1.3,2.1-1.4,4.3-0.2,5.6C722.3,375,720.2,376.8,717.5,375.6z M734.3,360.5c-0.6,0.8-1.7,2.7-2.5,4.2
				c-0.8,1.5-1.9,2.9-2.4,3.1c-0.6,0.2-1.5,1.2-2.1,2.2c-1.7,2.8-5.4,3.9-5.9,1.7c-0.1-0.5,0.2-1.9,0.7-2.9c1.7-3.8,1.8-4.1,2.2-5.8
				c0.2-1.2,0.6-1.6,1.1-1.4c0.4,0.2,1.2-0.2,1.7-0.8c0.9-1,5.4-3.1,7-3.2c0.4,0,0.8,0.3,1,0.8l0,0
				C735.2,358.7,734.9,359.7,734.3,360.5z M737.9,347.6c0,1-0.4,2-0.9,2.4c-0.5,0.4-0.9,1.1-0.9,1.5s-1.2,1.4-2.7,2.1
				c-1.5,0.8-2.9,1.7-3.2,2.1c-0.4,0.5-1.2,0.6-3.5,0.1c-2-0.4-3.1-0.4-3.5,0c-0.9,0.9-2.2,0.6-3.6-0.7c-0.7-0.7-2-1.6-2.8-2.2
				c-1.8-1.2-1.9-2.3-0.2-3.2c1.6-0.9,5.8-1.1,6.7-0.4c0.5,0.4,0.8,0.2,1-0.7c0.2-0.8,0.9-1.5,2-1.9c2.3-0.8,2.5-0.8,2.5-0.3l0,0
				c0,0.6-1.7,3-2.6,3.7c-0.7,0.5-0.7,0.9-0.2,2c0.8,1.8,2.3,1.9,2.3,0.1c0-0.8,0.5-1.6,1.1-2c0.6-0.4,1.1-1.2,1.1-1.8
				c0-1.4,0.7-1.7,4.6-2.2l2.9-0.3V347.6z M747.1,349c-1,1.2-3.4,1.8-4.8,1.3c-1.1-0.4-1.2-0.7-0.9-2.2c0.4-1.9,5.5-8.1,6.4-7.8
				c0.3,0.1,0.5,1.2,0.4,2.5l0,0c-0.1,1.4-0.5,2.6-1.1,3c-0.7,0.5-0.8,0.8-0.2,1.5C747.5,348,747.6,348.4,747.1,349z M735.9,389.2
				c0.4-2.3,1.3-3.5,2.5-3.1c1.4,0.4,1.8-0.7,0.5-1.5c-1.4-0.9-1.4-1,0.5-3.8c0.9-1.3,1.6-2.8,1.6-3.3c0-1.7,3.6-7.4,4.6-7.1
				c0.3,0.1,0.5,2.6,0.5,6.3l0,0c0,6.8-0.9,9.5-3.1,10.6c-0.7,0.3-1.4,1.2-1.6,2.2c-0.4,1.9-1.5,2.4-4,1.9
				C735.7,391.1,735.7,391,735.9,389.2z M729,390.1c0.4-0.7,3-0.7,3,0c0,0.3-0.4,0.7-0.8,0.9C730.1,391.4,728.6,390.8,729,390.1z
				 M724.3,390.5c1.9-1,1.9-1,2.8-0.4l0,0c0.4,0.3,0.7,0.6,0.5,0.7c-0.1,0.1-1,0.7-2,1.4c-0.9,0.7-2.2,1.2-2.8,1.2
				c-0.6,0-1.1,0.2-1.1,0.5c0,0.3-0.4,0.5-0.8,0.5c-0.4,0-0.8-0.1-0.8-0.2C720.2,393.7,722.9,391.3,724.3,390.5z M717.8,402.7
				c-0.9-0.4-1.1-1.6-0.3-2.1c0.3-0.2,0.5-1,0.5-1.8c0-2.1,0.7-3,2-2.6c1,0.3,4.7-0.9,7.1-2.4c1-0.6,2-0.7,2.3-0.1h0
				c0.4,0.7-3.1,5.1-4.8,6.1C721.7,401.7,718.6,403,717.8,402.7z M736.1,404.4c-0.2,0.4-1,1.1-1.8,1.5c-0.8,0.4-1.6,0.8-1.8,1
				c-0.1,0.2-1.1,0.9-2,1.5s-1.7,1.6-1.7,2.1c0,1.1-1.5,2.8-2.5,2.8c-0.9,0-0.8-7.6,0.1-8.7c0.3-0.4,0.7-1.4,0.9-2.2
				c0.4-1.5,2.9-2.8,4.3-2.3c0.4,0.2,0.8-0.2,1-0.8c0.2-0.6,0.9-1.3,1.6-1.6c1.6-0.6,8.8-5.3,9.3-6c0.5-0.7,1.2-0.7,1.5,0.2l0,0
				c0.2,0.4,0.1,1-0.2,1.4c-0.2,0.4-0.2,1.1,0,1.7c1.1,2.1,0.6,3.6-1.9,5.3c-1.3,0.9-2.5,2-2.7,2.4c-0.2,0.5-1,0.8-2.2,0.8
				C737.1,403.6,736.3,403.9,736.1,404.4z M744.9,426.1c-0.2,0-0.7-0.7-1.1-1.5c-1.5-3-3.3-5.5-4-5.5c-1.5,0-2.4-1.8-2.1-4.4
				c0.3-2.9,1.7-3.5,2.8-1.2c0.9,2,1.8,1.1,1.4-1.4c-0.6-3.5,2.4-10.4,4.1-9.4c0.2,0.1,0.7,2,1.1,4.2l0,0c0.4,2.2,1,4.8,1.5,5.8
				c0.8,2,0.5,5.4-0.5,6c-0.4,0.3-0.3,0.7,0.3,1.4c0.5,0.6,0.9,1.3,0.9,1.6C749.2,422.4,745.5,426.1,744.9,426.1z M746.9,337.1
				c-5.5,5.5-5.6,5.5-6.8,4.4c-0.9-0.8-1-1.4-0.7-3.3c0.3-1.9,0.2-2.3-0.7-2.6c-0.6-0.2-1.5-1.1-2-2.1l-1-1.7l-0.5,1.7
				c-0.4,1.5-0.2,2,0.9,3.5c0.9,1.2,1.4,2.5,1.4,3.8c0,1.8-0.1,2-1.5,1.9c-3.6-0.1-8.4-1.3-8.9-2.2c-0.6-0.9,0.3-2.1,3.6-5.2
				c0.5-0.5,1.5-1.7,2.1-2.7c0.9-1.4,1.4-1.7,2.4-1.5c1,0.3,1.4,0,2.1-1.3c1-2,1.7-2,4.5,0l0,0l2.3,1.6l1.5-1
				c2.1-1.5,4.4-1.9,4.7-0.9C750.8,331.6,749.6,334.4,746.9,337.1z M757.1,413.3c-0.3,0.9-0.9,7.3-1.1,12.8c-0.1,2.1-0.3,4-0.5,4.2
				c-0.7,0.7-1.6-0.5-1.3-1.6c0.3-1.3-0.6-8.7-1.3-10.3c-0.6-1.3-1.7-7.9-1.3-8.2c0.1-0.1-0.1-0.9-0.5-1.7c-0.8-1.6-0.9-8.3,0-9.7
				c0.3-0.5,0.3-0.8-0.1-1c-0.9-0.3-0.8-1.5,0.2-3.4c0.5-1,1.1-1.5,1.6-1.3c1.1,0.4,1-0.2-0.2-1c-0.7-0.5-0.9-1.4-0.9-4.2
				c0-2,0.3-3.9,0.7-4.2s0.7-2.6,0.9-4.8s0.4-4.8,0.6-5.5c0.3-1.2,0.2-1.3-1.1-1c-1.9,0.5-2.2-0.5-1.4-4.1c0.3-1.6,0.8-4,1-5.3
				c0.2-1.3,0.7-3.1,1-3.9c0.3-0.8,0.5-2.5,0.3-3.9c-0.2-1.4-0.1-3,0.3-3.9c0.3-0.8,0.8-4.2,1.1-7.6c0.3-3.3,0.7-6.3,0.8-6.6
				c0.5-0.9,1.8-0.6,2.6,0.7l0,0c0.5,0.7,0.8,2,0.8,2.9s0.3,1.9,0.6,2.1c0.6,0.4,0.5,3.7-0.8,13.9c-0.5,3.8-0.7,7.3-0.6,7.7
				c0.3,0.9-0.9,3.4-2.1,4.4c-1.3,1.1-2.2,2.9-1.3,2.6c3.1-1.2,3.2-1.2,3.2,1.2c0,2-0.9,5.8-2.1,8.9c-0.2,0.6-0.2,3,0.1,5.3
				c0.4,3.3,0.3,5-0.3,8.2c-0.9,4.4-0.7,7.6,0.8,9.9C757.5,406.2,757.8,411.3,757.1,413.3z M758.4,431.9c-0.5-2.9,0.1-9.4,0.9-11
				c0.3-0.6,0.6-1.7,0.6-2.4c0-2,0.6-3.1,1.5-2.9c0.6,0.1,0.8,0.6,0.7,1.8l0,0c-0.1,0.9-0.1,2.7-0.1,4.1c0,1.4-0.4,3.6-1,4.9
				c-1.1,2.6-0.9,3.4,0.7,3.7c0.9,0.2,1.1-0.1,1.2-1.9c0.2-2.8,1.5-2.5,3.1,0.7c2,4.1,2,4.4,0.1,6.9c-1,1.2-1.9,2.3-2,2.3
				C763.4,438,758.6,432.9,758.4,431.9z M761.3,441.7c-0.5,0-0.8-0.5-0.8-1.4c0-1.7,1.3-1.5,1.5,0.2
				C762.1,441.3,761.9,441.7,761.3,441.7z M768.2,440.1L768.2,440.1c-0.2,0.5-0.5,1.9-0.6,3.2c-0.2,1.3-0.6,2.8-1,3.3
				c-0.4,0.5-0.6,1-0.4,1.2c0.3,0.3,0.8,3.8,0.8,7c0,1.7-1.8,3.9-2.7,3.3c-0.3-0.2-0.6-1.4-0.6-2.8s-0.4-3-0.8-3.7
				c-1.2-1.9-1.3-6.4-0.1-7.7c0.5-0.6,0.9-1.3,0.9-1.7c0-0.7,2.1-3.8,3-4.5C767.4,437.3,768.6,439.1,768.2,440.1z M768.8,344.9
				c-0.2,1.4-0.6,3.3-0.9,4.3c-0.6,1.9-1.5,16.5-1.7,26.7c-0.1,4.3-0.3,5.9-0.8,6.1c-0.4,0.1-0.9,0.9-1.2,1.6
				c-0.5,1.2-0.3,1.6,1.2,2.9c1.6,1.5,1.7,1.7,1.5,5.4c-0.1,2.1,0,4.1,0.2,4.4c0.3,0.5,0.4,4.4,0.5,15.2c0,2.6-0.9,6.4-1.6,6.8
				c-0.6,0.4-3.1-3.8-3.6-5.9c-0.2-0.9-1-3.1-1.7-5c-1.1-2.7-1.3-4-1-6.4c0.2-1.7,0.4-4.4,0.5-6c0.1-1.6,0.5-4.2,0.8-5.6
				c0.3-1.5,0.7-5.8,0.9-9.6c0.2-3.8,0.6-7.4,0.9-7.9c1.4-2.6,2.2-10,2.4-22.2c0.1-5,0.2-9.4,0.2-9.8c0.1-1.1,1-0.8,2.5,1v0
				C768.9,342.2,769.1,342.8,768.8,344.9z M769.7,336.9l-1,1.2l-1.1-1.2c-3.5-3.7-4.7-10-3.7-19.3c0.3-2.8,0.2-3.6-0.6-4.4
				c-0.8-0.9-0.9-2.3-0.8-10.4c0-5.2,0.2-9.7,0.4-9.9c0.2-0.3,0.8-0.5,1.4-0.5c1.3,0,1.3,0,0.2-2c-1-2-1-3.8,0-4.1
				c0.7-0.3,0.6-0.6-0.4-2.3c-1-1.8-1.1-2.2-0.5-4.5c0.6-2.4,0.8-5,1.4-24c0.8-24.7,1.5-33.9,2.8-38.2c0.6-2,1.1,2.1,0.6,5.4l0,0
				c-0.5,3.3-0.7,48.4-0.2,49.1c0.3,0.5,1,14,1,21.1c0,3.6,0.2,5.2,0.6,5.2c2,0,2.5,14.4,0.7,16.5c-1.6,1.9-2.9,5.7-2.6,7.9
				c0.3,2.2,1.6,3.4,1.6,1.4c0-0.6,0.2-1,0.5-0.8c0.8,0.5,0.6,2.7-0.3,3.5c-0.4,0.4-0.7,0.9-0.5,1.1c0.2,0.3,0.4,1.7,0.5,3.3
				s0.3,3.2,0.5,3.7C770.6,335.3,770.3,336.2,769.7,336.9z M771.4,320.1c-0.2,0.4-0.5,0.7-0.8,0.7c-0.6,0-0.6-1.8-0.1-2.3
				C771,318,771.7,319.2,771.4,320.1z M779,441.7c-0.4-0.7,0.2-1.7,0.8-1.3c0.3,0.2,0.5,0.7,0.5,1.1
				C780.4,442.4,779.5,442.5,779,441.7z M780.2,434.3L780.2,434.3c0.5,0.7,0.8,2.1,0.7,3.5c-0.1,1.1-1.6,0.8-2.2-0.5
				c-0.6-1.2-0.3-3.7,0.5-3.7C779.5,433.7,779.9,434,780.2,434.3z M779.6,429.6c0.2,0.4,0.1,1.4,0,2.2c-0.3,1.2-0.5,1.3-1.1,0.7
				c-0.4-0.4-0.9-1.4-1.1-2.2c-0.3-1.3-0.2-1.5,0.8-1.5C778.8,428.8,779.5,429.2,779.6,429.6z M774.9,394.5c-0.4,0.8-0.4,1.3,0.3,2
				c1.7,1.9,3.9,12.2,3,14c-0.4,0.7-0.3,1.5,0,2.7c0.5,1.5,0.4,1.9-0.8,3.3c-1.3,1.6-1.3,1.7-0.6,3.2c0.4,0.9,0.8,1.8,0.8,2.1
				c0,1-2.6,0.6-3.2-0.5c-0.3-0.6-1-1-1.7-0.9c-0.8,0.1-1.4-0.3-1.9-1.4c-0.6-1.3-0.6-1.9,0.1-4.4c0.5-1.6,0.8-3.4,0.8-4
				c0-0.6,0.4-1.4,0.8-1.8c0.7-0.5,0.8-1.5,0.6-4.8c-0.1-2.3-0.5-4.6-0.8-5.3c-0.4-0.8-0.5-1.8-0.1-3.7c0.5-2.2,0.4-2.6-0.4-3.2
				c-0.9-0.6-1-1.1-0.5-4.1c0.3-1.9,0.7-3.8,1-4.3s0.4-1.3,0.2-1.7c-0.2-0.5,0-0.8,0.3-0.8c0.3,0,0.7,0.3,0.8,0.7v0
				C775.6,389.4,776,392.6,774.9,394.5z M837.5,322.4c1.2,0,1.4,0.2,1.4,1.7c0,1.6,0,1.6-1.2,0.9
				C835.9,323.8,835.8,322.4,837.5,322.4z M816.7,319.3c1.3,1.2,1.4,1.2,1,0.2c-0.2-0.8,0.1-1.6,1.2-2.8c1.4-1.6,1.7-1.7,3.9-1.4
				c1.3,0.2,2.9,0.8,3.6,1.4c0.7,0.5,1.9,1,2.6,1s1.7,0.5,2.2,1.1c0.5,0.6,1.3,1.1,1.9,1.1c1.1,0,2.7,2.8,2.3,4
				c-0.4,1.1-2,1.1-3.6,0c-0.8-0.5-3-0.9-6.1-1c-4.6-0.2-4.9-0.2-5.2,0.9c-0.2,1-0.6,1.1-2.4,0.8c-1.8-0.3-2.2-0.2-2.4,0.7
				c-0.2,0.7-1.1,1.2-2.9,1.6c-1.4,0.3-4,0.9-5.7,1.2c-3.1,0.7-3.1,0.6-4.5-0.7c-1.4-1.4-1.6-2.1-3.7-13.1c-0.4-2.2,0.1-3.6,1.1-3
				c0.4,0.2,1.8,1.7,3.1,3.3v0c1.3,1.6,2.7,3.4,3.2,4.1c0.6,1,1,1.1,1.7,0.6c0.7-0.4,1.2-0.4,1.9,0.3c0.6,0.5,1.2,0.7,1.5,0.5
				c0.3-0.2,1.3-0.8,2.3-1.1C815.2,318.1,815.4,318.1,816.7,319.3z M797.8,342.9c-1,0-1.5-0.9-1.1-1.9c0.4-1,1.1-1,1.9,0v0
				C799.3,341.9,798.9,342.9,797.8,342.9z M797.6,350.7c2.3,1.2,3.9,6.6,3.4,11.4c-0.2,1.9-0.5,3.4-0.8,3.4s-1.9-1.4-3.6-3.1
				l-3.2-3.1l0.4-4.1C794.3,349.5,794.6,349.1,797.6,350.7z M793.4,286.7c0.4-1.1,1.7-1,2.7,0.1h0c2.5,2.7,5,5,5.7,5.2
				c0.5,0.2,1.2,1,1.6,1.9c0.4,0.9,2.8,3.3,5.3,5.3c4.1,3.3,4.6,3.9,4.4,5.4c-0.1,0.9,0.1,1.8,0.4,2c0.8,0.5,0.6,3.7-0.3,5.4
				c-1,2-1,2.7,0.1,3.1c1.2,0.4,0.5,1.1-1.3,1.2c-3.6,0.2-5.3-0.4-8.1-3c-1.5-1.4-2.7-2.9-2.7-3.3c0-0.4-0.8-1.9-1.8-3.3
				c-1.8-2.6-3.4-7.4-2.8-8.4c0.2-0.3-0.1-1.6-0.7-2.8C794.3,291.5,793.1,287.5,793.4,286.7z M791.9,276.6c0.5,0.2,0.8,0.7,0.7,1.2
				c-0.2,1.3-1.2,1.1-1.4-0.3C791.1,276.5,791.2,276.3,791.9,276.6z M789.2,269.4c0.5-1.3,1.6-0.5,1.8,1.4h0c0.1,1.4,0,1.7-0.8,1.6
				C789.2,272.2,788.7,270.8,789.2,269.4z M786.6,238.7c0.6,0.1,0.9,0.4,0.9,0.7c-0.2,0.8-1.4,0.6-1.6-0.2
				C785.7,238.8,785.9,238.6,786.6,238.7z M781.7,335.1c-0.2,13.3-0.1,12.6-1.5,12.6c-1.4,0-4.6-2.1-5-3.3c-0.2-0.5,0.1-1.6,0.5-2.4
				c0.7-1.4,1.1-4.3,1.6-11.2c0.1-1.3,0.5-2.3,1.1-2.6c0.6-0.4,0.8-1,0.6-2.2c-0.8-5.6-0.9-7.4-0.1-7.4c0.4,0,1,0.3,1.3,0.7
				C781.3,320.8,781.8,326.3,781.7,335.1z M786.3,330.8c-1-1.2-1.6-3.7-2.2-9.6c-0.3-3-1.1-6.6-1.6-8c-0.6-1.5-1-3.4-1-4.4
				c0-0.9-0.4-2.7-0.8-3.9c-0.5-1.4-0.7-3.3-0.5-5.6c0.2-1.9,0-4.7-0.3-6.2c-0.8-3.7-1.5-8-1.9-11.7c-0.3-2.8-0.2-3.2,0.8-3.4
				c1-0.3,1-0.4-0.5-2.1c-1.8-2-1.7-1.8-1.7-15.2c0-10.4,0.1-11.8,0.5-11.8c0.2,0,0.7,1,1.1,2.3l0,0c0.4,1.3,1,4.7,1.5,7.7
				c1,6.4,3.5,17.3,5.7,24.7c3.2,10.9,3.8,13.6,4.8,20.4c0.5,3.8,1.4,8.6,1.9,10.5c0.5,1.9,0.9,4.6,0.8,5.9c0,1.3,0.1,2.6,0.4,3
				c0.5,0.7,1.6,4.3,1.9,6.5c0.1,0.9,0.4,2.5,0.6,3.6c0.3,1.6,0.1,2.3-0.6,3.1c-0.6,0.6-1,2.1-1.1,3.7c-0.3,5.4-1.5,5.2-6.5-1.1
				c-1.9-2.4-2.2-3.8-1.2-6C786.8,331.9,786.8,331.4,786.3,330.8z M787.7,342c0.4,0.2,1,0.3,1.2,0.3h0c0.2,0,1.2,1.3,2.1,3
				c1.2,2.1,1.6,3.3,1.3,4.2c-0.2,0.6-0.4,1.5-0.5,2c-0.2,1.8-0.9,4.3-1.3,4.3c-0.2,0-1.1-0.5-2.1-1.1c-1.5-0.9-1.7-1.3-1.7-3.5
				c0-1.3-0.3-3.6-0.6-5.1C785.5,343.2,786.2,341.4,787.7,342z M808.7,409.3c-0.5,0.5-2-0.9-1.7-1.5c0.5-0.7,1.3-0.6,1.7,0.4h0
				C808.8,408.6,808.8,409.1,808.7,409.3z M809,404.5c-1.9,0.7-2.6-1.8-2.4-8.3c0.1-3.2,1.1-3.6,1.9-0.9v0c0.3,0.9,0.7,2.1,0.9,2.6
				C810.2,399.8,809.9,404.2,809,404.5z M828.2,380.7c-0.7-0.2-1.7,0.3-3,1.6c-2,1.9-3.2,2.1-5.5,0.8c-0.4-0.2-1.4-0.1-2.1,0.3
				c-0.8,0.4-1.8,0.7-2.4,0.7c-1.2,0-7.3-4.8-7.3-5.9c0-0.4-0.3-1.5-0.6-2.5c-0.8-2.1-0.3-4.4,1-4.7c1.7-0.4,2-0.4,6,1.1h0
				c3.2,1.1,4.6,2.1,6.8,4.3c2.6,2.7,2.9,2.8,3.4,1.8c0.8-1.4,2.1-1.3,4,0.2C830,379.9,829.9,381.3,828.2,380.7z M807.9,367.1
				c0.6,0.1,1.4,0.6,1.7,1.1c0.8,1.2,0.2,1.7-1.5,1.3C806.3,369.1,806.1,366.9,807.9,367.1z M829.6,376.2c-1.1,0.5-1.8,0.4-3.8-0.7
				c-2.7-1.4-3.2-1.8-2.7-2.6c0.5-0.8,2-0.6,4.7,0.6v0C830.9,374.9,831.3,375.5,829.6,376.2z M830.9,358c0.7,0.1,1.3,0.5,1.5,0.9
				c0.2,0.5-0.2,0.7-1,0.5c-0.7-0.1-1.3-0.5-1.5-0.9C829.7,358.1,830.1,357.9,830.9,358z M806.7,354.2c0.2,0,0.6,0.2,0.9,0.5l0,0
				c0.5,0.5,2,0.8,11.2,2.2c2.1,0.3,4.5,0.9,5.3,1.3s1.9,0.8,2.2,0.8c1.3,0,4.5,3.4,4.9,5.2c0.2,1,0.7,2,1.1,2.4
				c0.4,0.3,0.7,1.1,0.7,1.8c0,1.3,1.5,2.8,3,3.1c1.3,0.3,1.6,1.4,0.5,1.9c-0.6,0.2-1.2,0-1.6-0.6c-0.5-0.7-1.1-0.8-2.6-0.6
				c-1.4,0.3-2.3,0.1-3.3-0.5c-0.9-0.6-1.9-0.8-2.9-0.6c-1.3,0.3-1.6,0.1-1.9-0.9c-0.7-2.3-2.4-2.8-2.4-0.7c0,0.7-0.3,1.5-0.8,1.7
				c-1.1,0.4-4.1-1.3-6.4-3.6c-1.1-1.1-2.6-2.3-3.4-2.6c-0.9-0.4-1.3-0.9-1.3-1.9c0-1.1-0.2-1.3-1-1.1c-1.6,0.5-3.8-2.5-3.8-5.1
				C805.1,355,805.5,354.4,806.7,354.2z M804.7,383.7c1.2,2.6,1.3,3.2,0.9,5.1c-0.3,1.2-0.7,2.8-0.8,3.5c-0.2,0.7-0.7,1.8-1.2,2.4
				c-1.5,1.7-1.6,2.7-0.5,3.4c0.8,0.5,1,1.2,0.9,3.5c0,1.5-0.2,2.3-0.3,1.6s-0.8-1.8-1.4-2.5c-0.6-0.7-1.6-2-2.1-2.9
				c-1-1.8-2-2.3-2-0.9c0,1.2-0.4,1-2.7-1.4c-1.2-1.3-2.1-2.7-2.1-3.4c0-1.9-1.6-7.8-2.7-10.1c-0.6-1.1-1-2.6-1-3.3s-0.4-1.6-0.8-2
				c-0.4-0.4-0.8-1.4-0.8-2.3c0-0.9-0.5-2.2-1.1-2.8c-0.8-0.9-1-1.5-0.6-2.2c0.3-0.5,0.4-3.7,0.3-7c-0.2-5.7-0.1-6,0.9-6
				c0.6,0,1.6,0.8,2.4,1.7l0,0c1.7,2.2,4.1,8.3,3.8,9.3c-0.2,0.4,0.1,1.4,0.6,2.1s0.7,1.6,0.5,1.9c-0.2,0.3,0,1.2,0.3,1.9
				c0.6,1,0.6,2.4,0.1,6.5c-0.3,2.9-0.5,5.9-0.4,6.8c0.1,0.9,0.2,1.9,0.2,2.3c0,0.4,0.6,0.9,1.3,1.2c0.8,0.3,1.4,1.1,1.7,2.1
				c0.2,0.9,0.4,1.6,0.5,1.6s1.1-0.9,2.2-2c1.3-1.2,1.7-1.8,1-1.6c-2.2,0.8-2.7,0.6-4-2c-1-2.1-1.1-2.7-0.6-6.3
				c1.2-8.5,1.2-9.6,0.6-11.2c-0.8-2,0-4,1.7-3.7c1.4,0.2,1.8,1,2.5,5.3c0.3,1.9,0.8,4.6,1,5.9C803.1,379.7,803.9,382.1,804.7,383.7
				z M820.8,341.4c-0.4,0.2-2.9-0.2-7.4-1.1c-1.2-0.3-2.8-0.9-3.5-1.4c-0.7-0.5-1.8-0.9-2.4-0.9c-1.6,0-4-2.2-4.5-4.1
				c-0.6-2.2,0-2.7,3.8-2.8c1.7-0.1,3.7-0.3,4.6-0.6c2.4-0.7,3-0.6,5.3,0.7l0,0c1.2,0.7,2.1,1.6,2.1,2c0,0.4,0.4,1.4,0.9,2.1
				C820.6,336.8,821.4,341.1,820.8,341.4z M840.4,336.7c-0.7,0.6-2.7,1.3-3.4,1.3c-0.5,0-1.2-0.7-1.5-1.6c-0.8-2-1.4-1.5-1.4,1.1
				c0,2.4-0.8,3.2-3,3.2c-1.2,0-2-0.4-3-1.7c-0.7-0.9-3.4-3.8-6-6.3c-3.7-3.7-4.6-4.8-4.1-5.3c0.4-0.4,1-0.7,1.5-0.7
				s1.4-0.4,2.2-0.8c0.8-0.5,2-0.7,3-0.5c0.9,0.2,2.5,0.3,3.6,0.3l0,0c2.2,0,6.2,1.7,6.7,3c0.2,0.5,0.9,1,1.6,1.3
				c0.9,0.3,1.8,1.5,2.6,3.5C840,335.2,840.5,336.6,840.4,336.7z M845.1,338c-0.6,0-0.8-0.4-0.7-1.2c0.1-0.7,0-1.5-0.3-1.9
				c-0.2-0.4-0.3-0.9-0.1-1.2c0.5-0.7,1.6-0.3,1.4,0.6c-0.1,0.4,0.1,1,0.5,1.4C846.7,336.6,846.2,338,845.1,338z"/>
			<path class="st0" d="M841.9,381.7c-1.3-0.9-1.9-0.9-1.9,0.1c0,1,1.3,1.6,2.2,1C842.7,382.6,842.6,382.3,841.9,381.7z"/>
			<path class="st0" d="M775.5,408.4c0.3,0,0.5-0.2,0.5-0.5c0-0.3-0.2-0.5-0.5-0.5c-0.3,0-0.5,0.2-0.5,0.5
				C775,408.2,775.2,408.4,775.5,408.4z"/>
			<path class="st0" d="M830.3,412.7c-1.7,0-3.8-1.6-3.8-2.9c0-0.4-0.5-0.8-1.2-0.8c-0.7,0-3.4-0.1-6.2-0.3c-4-0.3-4.9-0.2-4.7,0.4
				h0c0.1,0.4,1.4,1.2,2.8,1.9c2.2,1,2.6,1,3,0.4c0.6-1.1,1.3-1,3.1,0.3c1.8,1.3,2,2.9,0.5,3.3c-2.1,0.6-1,3.6,1.4,3.6
				c0.6,0,1.6,0.5,2.1,1.1c0.9,1,3.5,1.5,3.5,0.8c0-0.5-2.2-2.3-3.9-3.2c-1.4-0.8-1.4-0.8-0.6-2.5c0.7-1.3,1.1-1.6,2-1.3
				c3,0.9,3.6,0.9,3.6,0.1C831.9,413,831.4,412.7,830.3,412.7z"/>
			<path class="st0" d="M707.8,328.9c-0.3,0-0.5,0.4-0.5,0.8c0,0.5,0.2,0.7,0.5,0.5c0.3-0.2,0.5-0.6,0.5-0.8
				C708.3,329.1,708.1,328.9,707.8,328.9z"/>
			<path class="st0" d="M765.3,433.7c0.3,0,0.5-0.2,0.5-0.5c0-0.3-0.2-0.5-0.5-0.5c-0.3,0-0.5,0.2-0.5,0.5
				C764.8,433.4,765,433.7,765.3,433.7z"/>
			<path class="st0" d="M800.9,412.6c0.2,1,1.6,1.2,1.9,0.3c0.1-0.3-0.3-0.7-0.9-0.9C801,411.8,800.7,411.9,800.9,412.6z"/>
			<path class="st0" d="M787.3,220.3c-0.3,0-0.5,0.5-0.5,1.1s0.2,1,0.5,0.8c0.3-0.2,0.5-0.7,0.5-1.1S787.6,220.3,787.3,220.3z"/>
			<path class="st0" d="M835.5,286.2c-0.2,0.2-0.4,0.8-0.4,1.3s-0.8,1.5-1.7,2.2c-2.1,1.5-1.4,1.9,1.3,0.7c1.7-0.7,2-1,2-2.7
				C836.8,286,836.3,285.4,835.5,286.2z"/>
			<path class="st0" d="M852.9,298.2c-0.6,0-1.1,0.2-1.1,0.5c0,0.3,0.5,0.5,1.1,0.5s1.1-0.2,1.1-0.5
				C854,298.5,853.5,298.2,852.9,298.2z"/>
			<path class="st0" d="M840.3,310.6c-0.2,0.3-0.2,0.7-0.1,0.9c0.4,0.4,1.4-0.3,1.4-0.9C841.6,309.9,840.7,309.9,840.3,310.6z"/>
			<path class="st0" d="M855.4,336.8c-0.6,0.6-0.3,1.8,0.5,1.8c0.4,0,0.8-0.3,0.8-0.8C856.7,336.9,855.9,336.3,855.4,336.8z"/>
			<circle class="st0" cx="789.5" cy="411.6" r="0.5"/>
			<path class="st0" d="M730.1,232.1c-0.2-0.3-0.6-0.5-0.8-0.5c-0.3,0-0.5,0.2-0.5,0.5c0,0.3,0.4,0.5,0.8,0.5
				S730.3,232.4,730.1,232.1z"/>
			<path class="st0" d="M735.8,371.5c0.4-0.4,0.4-0.7,0-0.9c-0.3-0.2-0.7-0.1-0.9,0.2C734.4,371.6,735.1,372.2,735.8,371.5z"/>
			<path class="st0" d="M800.2,407.3c-0.3,0-0.5,0.8-0.5,1.9s0.2,1.9,0.5,1.9c0.3,0,0.5-0.8,0.5-1.9S800.5,407.3,800.2,407.3z"/>
			<path class="st0" d="M704.7,348.1c-0.4-0.4-0.7-0.2-1.2,0.6c-0.5,0.9-0.5,1.1,0.2,1.1C704.8,349.8,705.4,348.8,704.7,348.1z"/>
			<path class="st0" d="M701.1,352c0.4,0,0.8-0.2,0.8-0.5c0-0.3-0.4-0.5-0.8-0.5s-0.8,0.2-0.8,0.5C700.3,351.7,700.6,352,701.1,352z
				"/>
			<path class="st0" d="M724.7,235.4c-0.2-0.3-0.6-0.5-0.8-0.5c-0.3,0-0.5,0.2-0.5,0.5c0,0.3,0.4,0.5,0.8,0.5
				C724.7,235.9,724.9,235.7,724.7,235.4z"/>
			<path class="st0" d="M685.6,323.4L685.6,323.4c-0.2,0.3-0.1,0.7,0.2,0.9c0.8,0.5,1.4-0.2,0.7-0.9
				C686.1,323.1,685.8,323.1,685.6,323.4z"/>
			<path class="st0" d="M745.5,213.9c0.2,0,0.5-0.2,0.5-0.5c0-0.6-2.1-3.2-2.1-2.6C743.8,211.5,745.1,213.9,745.5,213.9z"/>
			<path class="st0" d="M708.3,384.5L708.3,384.5c-0.5,0.6-0.5,1-0.2,1.4c0.7,0.7,1.9-0.7,1.3-1.6
				C709.1,383.8,708.9,383.8,708.3,384.5z"/>
			<circle class="st0" cx="714.8" cy="390.1" r="0.5"/>
			<path class="st0" d="M751.3,226.2c1.4,0,1.9-0.9,0.8-1.3c-1-0.4-1-0.4-1.5,0C750,225.7,750.3,226.2,751.3,226.2z"/>
			<path class="st0" d="M806.2,262.2c-0.4,0.3-0.6,0.7-0.4,0.9c0.2,0.2,0.7,0.1,1-0.2C807.6,262.1,807.2,261.6,806.2,262.2
				L806.2,262.2z"/>
			<path class="st0" d="M847.5,267c0.8-0.5,1.3-0.5,2.4,0c0.8,0.4,1.9,0.6,2.5,0.6s1.2,0.4,1.4,0.8c0.4,1,1.8,1.1,1.8,0.2
				c0-0.5-4.4-5-4.5-4.7c0,0-0.9,0.2-1.9,0.4s-2.4,0.9-3.1,1.6c-0.9,0.9-1.4,1.1-2.2,0.6c-1.5-0.8-1.9-0.7-1.1,0.3
				C843.5,267.8,846.1,267.9,847.5,267z"/>
			<path class="st0" d="M842.6,277c2.1,1.1,2.1,1.1,2.3-0.4c0.2-1.3,2.2-1.9,3.3-1.1c0.9,0.7,4.6,1.3,5.3,0.9
				c0.4-0.2,0.2-0.7-0.3-1.3c-0.5-0.6-0.8-1.4-0.6-1.8c0.5-1.3-2.4-1-3.5,0.4v0c-0.8,1.1-0.9,1.1-2.1,0.3c-1.4-1-3.6-0.5-5.1,1.2
				C841,276.1,841.1,276.2,842.6,277z"/>
			<path class="st0" d="M719.1,411c0-0.9-1-0.5-1.6,0.6c-0.9,1.8-0.6,2.5,0.5,1.2C718.6,412.1,719.1,411.3,719.1,411z"/>
			<path class="st0" d="M827.4,254.2c0.2-0.3,0.1-0.7-0.2-0.8c-0.3-0.2-0.5,0-0.5,0.5C826.6,254.8,826.9,255,827.4,254.2z"/>
			<path class="st0" d="M827.6,251.5c0.3,0,0.9-0.8,1.3-1.8c0.8-1.8,2.7-3.6,3.9-3.6c0.3,0,1.4-0.7,2.3-1.6c1.6-1.5,1.6-1.6,0.6-1.9
				c-1.5-0.5-2-2.7-0.9-4.2c0.4-0.7,1.6-1.5,2.6-1.8c1.6-0.5,1.6-0.6,0.5-0.6c-0.7,0-2,0.5-2.8,1.2l0,0c-1.9,1.6-4.2,5-4.2,6.3
				c0,0.6-0.5,1.3-1,1.7c-0.6,0.4-1.2,1.4-1.4,2.2c-0.2,0.8-0.6,1.6-0.8,1.8C826.9,249.5,827,251.5,827.6,251.5z"/>
			<path class="st0" d="M794.7,443.9c-0.3,0-0.3,0.7-0.1,1.5c0.2,0.8,0.7,1.8,1.1,2.3c0.7,0.7,0.8,0.7,0.8-0.1
				C796.5,446.2,795.3,443.9,794.7,443.9z"/>
			<path class="st0" d="M822.3,419.7c-2.3-1.2-4.8-1.4-4.8-0.5c0,0.9,3,3.7,4,3.7c0.5,0,1,0.4,1.2,0.8c0.3,0.7,3.4,1.2,3.4,0.5
				C826,423,824,420.6,822.3,419.7z"/>
			<path class="st0" d="M789.5,456.1c-1.4-0.8-1.7-0.8-1.9-0.2c-0.5,1.4,0.1,2.1,1.8,2.1C791.5,458.1,791.6,457.3,789.5,456.1z"/>
			<path class="st0" d="M783.3,462.1c-0.5,0-0.8,0.3-0.6,0.6c0.3,1,1.5,1.2,1.5,0.2C784.1,462.5,783.7,462.1,783.3,462.1z"/>
			<path class="st0" d="M725.2,435.8c-0.6,0-0.8,0.4-0.7,1.2v0c0.3,1.7,1.5,1.9,1.5,0.2C726.1,436.3,725.8,435.8,725.2,435.8z"/>
			<path class="st0" d="M812.7,423.3c-0.9-1.7-1.1-1.9-1.4-1.1c-0.2,0.5,0.1,2.4,0.8,4.2c0.8,2.5,1.5,3.5,2.7,4.2l1.6,0.9v-1.5
				c0-0.9-0.6-2.2-1.3-3.1S813.3,424.4,812.7,423.3z"/>
			<polygon class="st0" points="817.4,419.2 817.4,419.2 817.4,419.2 			"/>
			<path class="st0" d="M753.4,463.9L753.4,463.9c-0.1,0.3-0.1,1.4,0,2.4c0.2,2,1.1,2.4,1.6,0.7c0.2-0.6,0.6-1.1,1-1.1
				s0.7-0.3,0.7-0.7C756.7,464.3,753.6,463.1,753.4,463.9z"/>
			<path class="st0" d="M725.5,432c0-0.3-0.1-0.5-0.2-0.5c-0.1,0-0.4,0.2-0.6,0.5c-0.2,0.3-0.1,0.5,0.2,0.5
				C725.3,432.6,725.5,432.3,725.5,432z"/>
			<path class="st0" d="M772.9,458.6L772.9,458.6c0,0.6,0.1,0.9,0.3,0.7s0.2-0.6,0-1C773,457.8,772.9,458,772.9,458.6z"/>
			<path class="st0" d="M775,461.1c-0.3,0-0.7,0.4-0.9,0.8c-0.4,1.1,0.3,2.2,0.9,1.3C775.7,462.1,775.6,461.1,775,461.1z"/>
			<path class="st0" d="M779.5,455.1c-0.4,0-0.7,0.2-0.7,0.5s0.2,0.7,0.5,0.8c0.3,0.2,0.5,0.8,0.5,1.3s0.5,1.4,1.1,1.9
				c1.3,1.2,1.3,0.7,0.2-2.3C780.6,456.2,779.9,455.1,779.5,455.1z"/>
		</g>
	</g>
</g>
</svg>
