<?xml version="1.0" encoding="UTF-8" standalone="no"?>
<!-- Created with Inkscape (http://www.inkscape.org/) -->
<svg xmlns:rdf="http://www.w3.org/1999/02/22-rdf-syntax-ns#" xmlns="http://www.w3.org/2000/svg" xmlns:cc="http://creativecommons.org/ns#" xmlns:dc="http://purl.org/dc/elements/1.1/" xmlns:svg="http://www.w3.org/2000/svg" xmlns:inkscape="http://www.inkscape.org/namespaces/inkscape" xmlns:sodipodi="http://sodipodi.sourceforge.net/DTD/sodipodi-0.dtd" xmlns:ns1="http://sozi.baierouge.fr" xmlns:xlink="http://www.w3.org/1999/xlink" id="svg3429" viewBox="0 0 1079.8 974.6" version="1.1" inkscape:version="0.91 r13725">
  <g id="layer1" transform="translate(260.32 64.698)">
    <path id="path4874" style="fill:#000000" d="m153.69 882.96c-1.8902-0.81225-2.5696-1.5312-1.5101-1.5975 1.0595-0.067 2.4055-3.7937 2.9909-8.2829 3.751-28.762 6.7845-56.533 8.8688-81.191 1.3183-15.594 3.1914-36.858 4.1628-47.254 27.385-49.582 15.038-63.882 22.484-123.95 1.0695-1.0702 2.1665-5.7097 2.4376-10.31 0.27115-4.6003 1.4932-13.057 2.7156-18.793l2.2225-10.429-5.9721-11.05c-25.149-46.532-37.808-63.058-53.87-70.327-6.7259-3.0438-14.528-8.7841-22.442-16.512-6.6726-6.5154-15.565-14.135-19.761-16.933-4.196-2.7976-12.291-9.464-17.99-14.815-12.433-11.673-24.136-17.9-36.893-19.631-5.198-0.70503-13.619-3.5042-18.714-6.2204-10.974-5.8504-17.643-6.2013-26.602-1.3996-7.5244 4.0329-9.9555 3.2413-5.4239-1.7661 2.9916-3.3059 2.938-3.4592-1.8721-5.3395-2.7236-1.0647-7.8706-2.3486-11.438-2.853-3.5671-0.5045-6.8881-1.5683-7.3799-2.3641-0.49179-0.79575-0.0292-4.656 1.0262-8.5782 1.8969-7.0443 4.1917-7.3424 5.3894-0.70005 0.33886 1.8793 1.9532 3.6745 3.5874 3.9891 2.5973 0.50021 2.8382-0.47099 1.9137-7.7127-1.6592-12.998-3.4506-13.834-16.147-7.5347-9.8206 4.8725-11.347 5.1718-16.968 3.3286-10.346-3.3928-13.548-6.8854-17.919-19.544-9.5505-27.657-9.5417-27.493-1.4932-27.493 3.8535 0 4.8266-1.1123 6.7652-7.7325 2.4928-8.513 6.648-15.001 8.452-13.197 0.63664 0.63664-1.3351 8.7681-4.3816 18.07l-5.5392 16.912 4.5469 11.358c5.1382 12.835 7.5108 15.476 13.179 14.673 4.2072-0.59644 5.0864-5.5609 2.2297-12.59-1.2338-3.036-0.8657-2.9528 3.1573 0.71311 3.9556 3.6045 5.1314 3.8867 8.9477 2.1479 2.4165-1.1009 5.9281-2.0019 7.8035-2.0019s3.8319-1.1001 4.3479-2.4447c0.51584-1.3446 2.1304-2.9021 3.5877-3.4614 2.0972-0.8047 2.4651-0.0516 1.7642 3.6152-0.58904 3.0813 0.31222 6.2518 2.6921 9.4708 2.3823 3.2222 3.8291 8.3184 4.3309 15.254 0.59609 8.2411 1.5157 10.905 4.4058 12.76 5.4325 3.4868 14.984 4.0035 16.478 0.8913 3.8133-7.9396 4.9522-9.4508 7.1223-9.4508 1.6429 0 2.3902 2.1486 2.3902 6.8733 0 6.463 0.46172 7.09 7.7325 10.503 5.2722 2.4747 9.8074 3.3688 14.254 2.8102 9.2307-1.1597 7.8282-3.9809-4.3733-8.7965-3.4344-1.3556-4.7254-3.064-4.7254-6.253 0-2.4132-1.1205-7.0694-2.4899-10.347-2.0285-4.8548-3.4119-5.959-7.4661-5.959-2.7742 0-6.3363 1.5029-8.0499 3.3961-2.9512 3.261-6.0508 3.2605-6.0508-0.001 0-0.85641 2.3197-4.1993 5.155-7.4283 2.8352-3.2293 5.155-6.3092 5.155-6.8446 0-0.53526-1.9331-3.0593-4.2958-5.6086-4.641-5.0077-5.9506-10.43-1.9529-8.0851 1.2887 0.75573 5.6598 5.2404 9.7137 9.9658 4.0541 4.7254 8.6893 9.5252 10.301 10.666 1.6115 1.141 3.9315 5.6524 5.1559 10.025 1.7209 6.146 3.6973 8.8796 8.7064 12.042 3.5642 2.25 8.9494 7.1634 11.967 10.919 3.0861 3.8405 8.5935 8.0597 12.587 9.6428 3.9051 1.548 10.724 5.8533 15.154 9.5672 12.839 10.765 13.069 2.1611 0.46343-17.326-7.8962-12.207-13.477-17.917-23.982-24.537-7.2333-4.558-17.673-15.04-34.177-34.316-9.8141-11.462-10.032-11.599-18.563-11.599-8.5557 0-8.6222 0.043-7.4619 4.7254l1.1707 4.7254-3.6289-3.8662c-1.9958-2.1264-5.5028-3.8662-7.7933-3.8662-9.1221 0-22.762-6.9506-32.965-16.799-5.6047-5.4096-16.235-15.192-23.623-21.74-7.7492-6.8673-14.529-14.501-16.025-18.042-3.2829-7.7729-15.879-54.213-15.879-58.544 0-1.785 1.7398-4.4642 3.8662-5.9535 2.1264-1.4894 3.6729-3.2731 3.4367-3.9638-0.23627-0.6906-0.18988-1.9747 0.1031-2.8535 1.1386-3.4157 6.3776 0.98151 13.28 11.146 8.2717 12.181 11.944 11.284 6.8993-1.6857-1.6821-4.3244-3.6147-10.916-4.2948-14.648-0.67995-3.732-2.3323-8.3504-3.6719-10.263-7.0737-10.099 0.55262-10.365 11.216-0.39057 5.5947 5.2332 11.482 8.638 19.619 11.346 6.3942 2.1278 12.059 3.436 12.587 2.9071 2.5273-2.5273-2.2864-6.6278-17.326-14.76-16.369-8.8504-20.004-12.352-25.581-24.641-5.0954-11.228-2.8301-21.152 2.9459-12.905 4.0269 5.749 3.4054 0.0619-0.86364-7.9036-2.0933-3.9054-2.9256-7.2728-2.0214-8.1772 2.1448-2.1448 7.1567 3.8207 9.8696 11.747 2.057 6.01 2.8323 6.6016 9.2874 7.0859 8.23 0.61739 9.7419 4.829 2.3179 6.4558-9.2479 2.0262-9.3314 2.0996-7.1759 6.3075 2.838 5.5402 7.8366 9.4029 19.634 15.172 11.835 5.7873 16.326 6.3478 16.321 2.0371 0-4.949-19.104-32.065-28.58-40.578-9.1267-8.1995-16.093-20.193-16.093-27.707 0-7.4725 4.6852-4.8179 10.391 5.888 6.3975 12.003 20.539 23.531 20.539 16.743 0-5.8922 5.4964-20.073 7.7803-20.073 2.0699 0 2.3103 2.5624 1.419 15.12-0.94045 13.247-0.60847 16.172 2.6801 23.606 3.8173 8.6296 9.7587 16.261 12.661 16.261 0.88133 0 1.0509-1.3532 0.37683-3.0071-2.1555-5.288-5.7526-34.956-6.5946-54.391l-0.43955-10.144-7.6526-2.288c-4.2091-1.2583-13.283-2.2996-20.164-2.3139-10.01-0.0206-12.729-0.59128-13.596-2.8521-1.956-5.0972 3.9209-7.2788 18.107-6.7216 7.2361 0.28421 14.625 1.1295 16.421 1.8781 2.9267 1.2204 3.1184 0.84318 1.8541-3.6468-4.0901-14.525 1.0544-21.716 5.6571-7.9076 1.3585 4.0757 2.8823 6.9981 3.3861 6.4943 0.50382-0.50381-0.44883-10.683-2.1168-22.621-2.4646-17.638-2.6507-22.98-0.99337-28.512 2.6074-8.7023 5.8788-7.7028 6.9912 2.1364 0.59557 5.2684 1.2379 6.6767 2.094 4.5919 1.3348-3.2506 5.6561-4.0405 7.3256-1.3393 0.56705 0.91742-0.21771 4.0822-1.7436 7.0331-1.5259 2.9507-2.3878 5.7518-1.9153 6.2243 1.8259 1.8259 6.2676-9.9467 6.2676-16.612 0-4.7354 0.86106-7.3431 2.6516-8.0301 7.534-2.8911 6.0612 11.976-2.7715 27.977-6.6493 12.045-6.7821 12.62-5.6756 24.524 1.1999 12.91 2.3782 14.946 9.2051 15.901 3.8003 0.53183 4.4455-0.23025 5.8791-6.9443 1.0901-5.1053 0.96003-10.69-0.40243-17.287-1.1071-5.3598-2.0015-11.632-1.9876-13.938 0.03265-5.4502 3.9903-12.904 6.5589-12.354 1.1042 0.23627 2.0075-1.0712 2.0075-2.9057 0-4.0706 3.1018-6.2784 5.4798-3.9006 1.6489 1.6489 0.59609 8.9042-2.9913 20.615-1.1504 3.7551-0.98564 3.8353 3.7386 1.8216 2.7181-1.1587 5.4392-2.5397 6.047-3.0689 0.60777-0.52942 1.6383-9.8548 2.29-20.723l1.185-19.761-8-5.6377c-8.5465-6.0226-9.3802-10.032-1.9768-9.5037 2.4957 0.17785 4.5378 0.05327 4.5378-0.27871 0-0.33112-3.192-6.1386-7.0933-12.905-5.4956-9.5318-6.6291-12.759-5.033-14.327 2.2959-2.2557 4.6 0.13059 12.042 12.471 5.1641 8.5631 6.9575 8.813 6.9575 0.96965 0-4.8685 0.65451-6.0142 3.4367-6.0142 1.8902 0 3.4367 0.86449 3.4367 1.9211 0 2.0142 10.256 14.403 11.923 14.403 0.53028 0 1.0267-1.9331 1.103-4.2958 0.25431-7.8572 2.7144-18.869 4.4561-19.946 3.3757-2.0864 5.0596 2.4656 5.7753 15.613 0.75847 13.931 2.5426 18.08 7.7744 18.08 2.6206 0 2.9581-0.98735 2.1144-6.1862-0.68339-4.2115-0.27167-6.6386 1.2901-7.6038 1.8769-1.16 1.7041-3.1524-0.95041-10.962-3.3648-9.899-2.4785-17.954 2.1443-19.489 2.3328-0.77462 3.7522 2.2574 8.1519 17.414 1.6151 5.564 4.4804 13.683 6.3673 18.042l3.4306 7.9263 3.3719-7.0919 3.3721-7.0919-4.3872-6.465c-5.2282-7.704-5.5684-11.14-1.1033-11.14 3.1016 0 12.181 8.9374 12.181 11.99 0 1.7907 11.468 8.6296 14.471 8.6296 1.2351 0 3.5746-3.4796 5.1988-7.7325s4.0491-7.7325 5.3885-7.7325 2.4354 0.7229 2.4354 1.6065c0 0.88356 0.8583 3.7832 1.9075 6.4437 1.7725 4.4946 2.0074 4.5938 3.3159 1.4006 0.77462-1.8902 1.4626-7.406 1.5291-12.258 0.10482-7.6868-0.36394-8.9475-3.649-9.8065-3.5686-0.93322-3.6143-1.1575-0.85917-4.202 1.6008-1.7688 2.9107-4.0762 2.9107-5.1273 0-3.514 3.5458-4.1561 7.7476-1.403 5.4724 3.5856 5.6793 3.5202 6.3144-1.9998 0.41842-3.6362 1.534-4.8029 4.8397-5.0617 2.3627-0.18506 7.3888-1.1331 11.169-2.107 3.7803-0.97378 9.4402-1.789 12.577-1.8115 4.9419-0.03608 5.6308 0.47546 5.155 3.8252-0.39556 2.7852-1.7503 3.9042-4.8448 4.002-8.2588 0.26067-10.31 0.73579-10.31 2.3878 0 0.91553 1.1006 1.2422 2.4457 0.726 3.6688-1.408 6.0315 4.6156 4.956 12.635-0.89061 6.64-0.70916 7.039 2.7849 6.1252 3.5827-0.93683 3.6893-0.6119 2.5682 7.8378-1.517 11.436 1.3466 11.541 4.4452 0.16324 4.235-15.552 11.177-15.507 9.4086 0.06186-1.1166 9.829 0.42391 6.4089 7.7394-17.183 5.9123-19.067 7.5814-22.338 11.398-22.338 3.2927 0 2.8985 6.3963-0.91123 14.785-1.7616 3.8788-4.0874 11.177-5.1686 16.219-1.9259 8.9802-1.869 9.2451 2.811 13.076 6.3027 5.1589 8.7308 5.0084 11.16-0.6918 1.1075-2.599 3.0856-6.0143 4.3958-7.5895 1.679-2.0185 1.891-3.7942 0.71844-6.0142-0.91518-1.7326-1.7797-6.243-1.9211-10.023-0.1409-3.7803-0.42081-8.8064-0.62083-11.169-0.27717-3.2715 0.45536-4.2958 3.0727-4.2958 2.9432 0 3.6606 1.6654 4.9962 11.599 1.6345 12.154 3.0109 13.864 6.5716 8.1621 2.3161-3.7085 6.4747-4.6644 6.4747-1.4881 0 1.0717-0.85814 4.8124-1.9068 8.3126-1.5654 5.2249-1.3958 7.3522 0.94766 11.884 1.6487 3.1884 2.378 7.0211 1.7266 9.074-1.961 6.1783 3.1767 2.6677 7.5234-5.1409 4.0329-7.2448 8.8925-9.5993 8.8925-4.3085 0 1.5776-2.3198 6.9787-5.155 12.002-5.9135 10.478-6.1176 12.148-2.5337 20.725l2.6213 6.2736 7.324-7.188c11.366-11.155 15.917-8.9762 6.3864 3.0569-7.3053 9.2238-9.1455 14.782-5.9513 17.976 3.305 3.305 6.2214 2.1005 9.8704-4.0769 6.2968-10.66 5.123-29.764-2.4179-39.351-1.7991-2.2871-3.271-5.6263-3.271-7.4204 0-6.4793-8.2162-19.759-13.606-21.991-8.3996-3.4791-22.988-20.678-17.54-20.678 4.1111 0 21.747 11.388 33.434 21.589 2.8878 2.5206 3.4102 2.5086 6.3444-0.14606 4.9613-4.49 7.7383-2.407 7.1036 5.3289-0.45879 5.5921-0.16324 6.3547 1.7362 4.4907 1.5891-1.559 2.251-6.9436 2.1648-17.613-0.0894-11.045 0.46755-15.368 1.9799-15.368 1.1571 0 2.8928 2.263 3.8571 5.029 1.3719 3.9355 2.5292 4.8259 5.323 4.0953 4.6531-1.2168 4.7067 2.6749 0.13918 10.165-4.8972 8.0323-4.4077 9.922 2.5711 9.922 7.8208 0 7.6498 2.6395-0.41704 6.4379-11.643 5.4823-15.013 18.795-6.9446 27.439 3.1236 3.3468 3.4157 5.1424 2.4194 14.867-0.62324 6.0832-1.9716 13.466-2.9964 16.405-1.0248 2.9399-1.3815 6.6006-0.79283 8.1351 0.97085 2.5301 1.3876 2.5033 4.4714-0.28782 1.8704-1.6927 3.4009-4.4771 3.4009-6.1875s1.5465-3.9376 3.4367-4.9491c2.6488-1.4176 3.4367-3.5978 3.4367-9.5113 0-5.6739 0.67118-7.672 2.5775-7.672 1.7312 0 2.5773 1.7316 2.5773 5.2746 0 4.4592 0.58595 5.1895 3.7915 4.7254 3.5286-0.51103 3.7966-1.4723 3.8662-13.866 0.0412-7.324-0.45244-13.317-1.097-13.317-0.64437-0.000343-2.9268 2.5124-5.0722 5.5839-6.5544 9.3845-11.168 10.153-9.2773 1.5453 0.5521-2.5143-0.16667-8.4332-1.5992-13.153-3.1024-10.229-3.2636-12.878-0.78373-12.878 1.0212 0 3.0715 3.093 4.5565 6.8733 2.9584 7.5313 5.4406 8.7716 6.8407 3.4179 0.49694-1.9006 2.6557-3.8953 4.7972-4.4328 3.9039-0.97979 7.9688-7.3924 10.793-17.028 0.83115-2.8352 2.8937-5.4231 4.5833-5.7506 3.1934-0.61894 3.1939 2.8717 0 15.631-1.4645 5.8547 1.6037 6.3123 7.1824 1.0714 2.1749-2.0433 5.0516-3.2081 6.5255-2.6426 4.3451 1.6675 1.1051 6.1293-5.8016 7.989-8.0524 2.1684-11.987 6.4398-13.282 14.419-0.88821 5.4756-0.58132 6.2272 2.5433 6.2272 3.1014 0 3.4294 0.765 2.5775 6.0142-1.1245 6.9293 1.6525 8.1628 4.8354 2.1479 1.1253-2.1264 4.6158-7.0189 7.7565-10.872 3.1408-3.8532 6.823-9.6682 8.1827-12.922 2.5296-6.0544 8.9575-13.105 10.521-11.542 0.47908 0.47924-0.27647 3.6181-1.6793 6.9754-2.4799 5.9353-2.4052 6.287 2.704 12.722 2.8899 3.6398 5.5638 6.9297 5.942 7.311 0.37821 0.38147 1.846-2.0787 3.2617-5.467 2.6493-6.3408 5.5097-9.2396 7.3251-7.424 0.56877 0.5686 0.19332 2.7724-0.83407 4.8974-3.6317 7.5113-3.8755 14.551-0.64953 18.758 1.6902 2.2041 3.5669 5.3607 4.1706 7.0146 1.9716 5.4007 5.0959 3.4253 4.0766-2.5775-1.2386-7.2935 0.85521-18.855 3.5791-19.763 1.4604-0.4868 2.1457 1.3815 2.1546 5.8731 0.0275 13.983 3.7482 29.134 10.267 41.808 3.6473 7.0909 7.077 14.303 7.6215 16.027 1.7762 5.6234 6.873 2.2624 12.585-8.2992 5.0992-9.4283 5.4934-11.245 4.6586-21.469-0.58767-7.1969-0.0569-13.919 1.4925-18.902 2.8265-9.0896 7.304-10.572 6.9432-2.2979-0.18003 4.1273 0.60088 5.6537 3.2465 6.3455 2.9436 0.76981 3.3472 1.925 2.6037 7.4529-0.48395 3.5982-2.4969 9.635-4.4733 13.415-10.461 20.01-14.28 28.577-15.162 34.015-0.8547 5.2669-0.12544 6.9469 5.8598 13.494 3.7598 4.1126 8.4442 11.151 10.41 15.64 1.9656 4.4891 4.3944 8.1621 5.3972 8.1621 1.0029 0 5.8306-1.9331 10.728-4.2958 10.181-4.9115 9.98-4.8591 9.98-2.6005 0 0.93236-2.6441 2.8-5.8758 4.1503-8.0462 3.3619-10.43 8.1634-7.1771 14.454 5.6188 10.866 9.7812 10.753 19.691-0.53337 4.9384-5.6244 5.3906-7.1438 5.3906-18.108 0-9.4931 0.5331-11.969 2.5775-11.969 1.9109 0 2.5775 2.0084 2.5775 7.7653 0 7.4247 0.18829 7.7179 4.2958 6.6869 3.2485-0.81535 4.2958-0.40432 4.2958 1.6857 0 1.52-0.77182 2.7638-1.7152 2.7638-0.94334 0-3.8486 3.4277-6.4561 7.617-2.6075 4.1895-8.0217 9.9936-12.031 12.898-6.646 4.8142-7.2905 5.9411-7.2905 12.747 0 8.5181-2.574 17.15-7.0213 23.547-3.0814 4.4321-8.428 30.274-8.4382 40.785-0.005 5.7678 2.2988 8.6863 13.609 17.236 4.386 3.3155 5.2874 5.1911 5.2874 11.002 0 6.2766-1.0426 8.0217-10.028 16.787-5.5155 5.3803-11.84 13.575-14.055 18.21-2.2147 4.6354-5.7594 10.747-7.8771 13.583-3.0423 4.0731-12.717 26.452-12.717 29.416 0 0.35999 1.5797 0.65452 3.5104 0.65452 1.9306 0 7.2258-3.4755 11.767-7.7232s10.606-8.193 13.477-8.7673c6.0824-1.2164 8.833-6.0951 10.268-18.212 0.53604-4.5261 2.1518-9.2017 3.5906-10.39 2.3164-1.9135 2.478-0.80899 1.4114 9.645-0.6625 6.4934-1.3668 12.583-1.565 13.532-0.79749 3.8181 3.827 2.823 11.701-2.5175 12.32-8.3557 14.412-12.116 15.57-27.975 1.2587-17.249 2.8878-21.391 10.276-26.126 6.2837-4.0267 7.358-3.3944 3.5955 2.1161-3.837 5.6193-7.9957 19.875-7.9957 27.408 0 13.052 6.6502 14.478 23.732 5.0888 12.732-6.9982 36.409-29.803 36.409-35.067 0-1.8824 1.2621-6.5769 2.8048-10.432 1.943-4.856 2.4945-9.6295 1.795-15.536-1.0308-8.7037 2.9454-22.007 7.4006-24.76 3.5318-2.1828 3.6732 0.28559 0.35577 6.21-4.0667 7.2624-4.2344 28.294-0.24548 30.782 2.0362 1.2697 2.0993 2.118 0.34308 4.6118-1.1836 1.6809-2.9466 4.9072-3.9177 7.1696-0.97117 2.2625-3.9326 6.902-6.5809 10.31-7.2558 9.3372-7.5149 10.155-3.841 12.121 2.562 1.3712 4.0092 1.1575 6.0623-0.89559 1.4833-1.4833 2.6968-2.1603 2.6968-1.5046 0 0.65571 1.1926 0.20259 2.6503-1.0073 3.0333-2.5174 7.1427 0.16324 5.1624 3.3674-1.3614 2.2027-19.697 14.153-22.341 14.56-3.9907 0.61499-24.64 11.38-32.16 16.766-41.804 29.94-44.862 33.772-25.128 31.482 9.4263-1.0941 10.23-0.9279 9.672 2.0015-0.48873 2.5672-2.6296 3.3647-10.902 4.0604-5.6614 0.47633-11.442 1.6012-12.846 2.4997-1.404 0.89834-5.0117 1.4218-8.017 1.1628-7.2427-0.6241-16.064 4.0202-16.064 8.4573 0 5.2674 4.2806 5.7868 12.981 1.5752 5.626-2.7236 8.4264-3.292 9.7412-1.9771 1.1562 1.1561 5.9209 1.4645 12.759 0.826 9.0932-0.8492 10.914-0.58079 10.914 1.6089 0 1.9-2.645 2.9585-9.5487 3.8211-10.239 1.2793-12.165 4.7582-3.2118 5.8016 2.7593 0.32167 5.4477 1.2819 5.9743 2.1338 0.95644 1.5475 24.643-12.53 31.508-18.727 1.9967-1.8022 6.2865-4.1666 9.5329-5.2545 3.2464-1.0877 7.1126-3.0469 8.5917-4.3539 1.6125-1.4247 7.8486-2.6201 15.577-2.9856 11.888-0.56224 12.887-0.34659 12.887 2.7796 0 2.648-1.6028 3.6628-7.3293 4.6404-9.8355 1.679-10.713 2.4184-10.713 9.0236 0 3.1244-1.5434 7.6431-3.4298 10.041-4.0227 5.1139-18.668 14.099-20.308 12.459-0.62147-0.62135 2.9189-4.9314 7.8674-9.578 8.7277-8.1951 10.809-12.329 7.2988-14.499-2.1366-1.3204-14.385 4.5056-22.548 10.726-3.4123 2.6-9.2116 7.0177-12.887 9.8172-3.6758 2.7995-10.307 8.3906-14.736 12.425-4.4292 4.0341-14.32 11.313-21.979 16.176-13.687 8.6894-16.817 12.387-7.397 8.7368 9.3119-3.6082 25.117-5.8076 33.872-4.7137l8.873 1.1087 5.5038-7.6639c6.2288-8.6734 6.5492-10.109 2.9263-13.116-3.2799-2.722-3.3084-5.155-0.0605-5.155 6.3221 0 7.8204 11.721 2.594 20.294-3.5963 5.8987-3.2562 8.918 1.0046 8.918 1.3618 0 2.4761 0.73819 2.4761 1.6405 0 2.9603-11.228 3.891-17.335 1.4369-6.5507-2.6326-27.341-0.79026-27.341 2.4227 0 1.1192 2.8565 1.3351 7.817 0.59128 8.5224-1.2781 17.958 0.11513 17.958 2.6519 0 0.90195-3.9252 1.1814-9.0212 0.64179-10.676-1.1301-16.042 1.2784-11.169 5.0132 1.6539 1.2676 3.0071 2.7995 3.0071 3.404 0 2.3051-11.799 0.95161-22.136-2.5392-10.158-3.4306-11.135-3.4808-17.087-0.8791-9.3064 4.0683-34.785 12.427-42.012 13.783-3.4537 0.64781-6.8123 2.0403-7.4638 3.0942-0.84971 1.375 1.924 1.6044 9.8201 0.81225 29.724-2.9818 41.075-3.3528 41.075-1.3427 0 1.1142-0.96656 2.2969-2.1479 2.6284-1.1814 0.33146-5.2409 1.3889-9.0212 2.3502-3.7803 0.96106-10.353 2.6514-14.606 3.7563-4.2529 1.1047-12.466 3.0031-18.251 4.2185-6.9319 1.4561-14.444 4.7852-22.032 9.7632-9.7642 6.4064-12.428 9.2917-17.535 18.995-8.4923 16.136-16.069 24.291-27.605 29.712-14.198 6.6718-18.896 11.8-22.835 24.924-3.1597 10.528-12.538 26.315-21.484 36.162-2.1464 2.3627-4.4661 6.229-5.1552 8.5916-0.68905 2.3627-3.7884 8.5487-6.8872 13.747-11.016 18.478-11.305 20.633-9.5026 70.899-6.0733 117.12 17.154 205.58-1.4434 209.31-12.05-0.14434-113.72-2.9849-114.9-3.9482-1.4829-1.209-2.1479-1.154-2.1479 0.1775 0 2.2345-2.8423 2.3118-7.7325 0.21033zm109.13-385.1c1.7841-3.4117 9.2247-14.237 16.534-24.057 13.842-18.595 22.97-34.161 22.97-39.171 0-1.609-2.3197-6.5836-5.155-11.054-2.8352-4.4706-5.155-8.4882-5.155-8.9279 0-2.1127 4.9672-0.41859 7.7325 2.6371 6.8249 7.5414 13.859 1.1776 11.87-10.739-4.8605-29.116-11.647-40.438-29.966-49.994-12.018-6.2686-12.996-6.4951-19.2-4.4476-7.8124 2.5784-9.0317 1.7862-6.3408-4.1199 2.7057-5.9382-1.5391-12.561-10.193-15.905-3.4705-1.3408-10.207-4.4474-14.97-6.9037-8.2638-4.2616-8.947-4.346-14.931-1.8457-4.7154 1.9702-6.0623 2.0764-5.4299 0.42804 1.1472-2.9892-6.1365-7.4775-13.238-8.1569-4.042-0.3868-6.0111-1.5331-6.4302-3.7429-0.53921-2.8442 0.17631-3.0533 6.6833-1.9539l7.2873 1.2312-1.0698-5.349c-1.3542-6.7707 0.65004-6.8555 4.5852-0.19383 3.2461 5.4952 7.5605 7.4 4.8651 2.1479-2.2888-4.4601-3.9496-17.276-2.3656-18.255 2.5079-1.5499 4.6132 1.4001 7.816 10.952 4.4297 13.211 7.0388 16.703 13.527 18.101 3.1036 0.66912 10.714 4.2159 16.912 7.8818 6.198 3.6661 12.191 6.6654 13.317 6.6654 6.251 0-2.9875-9.2587-12.537-12.565-6.5924-2.2823-10.255-6.3367-5.7239-6.3367 1.2735 0 6.4783 1.5216 11.566 3.3813 5.088 1.8596 9.9098 2.9739 10.715 2.4759 2.5706-1.5888 1.5843-8.947-2.6828-20.015-2.2813-5.9167-4.6323-12.95-5.2246-15.629-1.5542-7.0306-9.2096-13.624-14.327-12.339-2.2474 0.56413-5.567 0.55571-7.3768-0.0189-3.8468-1.2209-4.462-5.9678-0.77359-5.9678 1.3845 0 3.4334-1.7398 4.5531-3.8662 3.4434-6.5384 9.4635-8.997 7.9609-3.2511-0.45914 1.756-0.11169 4.4847 0.77222 6.0642 1.9372 3.4619 15.063 12 16.397 10.666 0.51997-0.51997 1.3064-4.7034 1.7479-9.2965 0.72118-7.5062 0.24709-8.9836-4.6859-14.602-8.8766-10.11-29.432-13.439-37.307-6.0411-4.6587 4.3768-7.5792 2.9108-3.4004-1.7066 4.6419-5.1294 3.4028-8.2198-4.507-11.24-4.0482-1.5462-8.2188-2.811-9.268-2.811s-6.2052 4.4366-11.458 9.8589c-11.181 11.543-10.022 14.234 4.2996 9.9808 4.8983-1.4546 9.2501-2.3003 9.6711-1.8795 1.9732 1.9733-9.6086 9.4529-15.096 9.7495-8.5892 0.4643-9.0298 0.43285-13.374-0.95195-3.2119-1.0238-5.3672 0.21359-11.882 6.8218-4.3771 4.4398-10.406 9.095-13.397 10.345-7.0812 2.9586-8.3047 4.7476-11.679 17.077-4.9605 18.123-7.7598 27.319-10.461 34.367-4.7075 12.282-3.6332 20.737 5.0546 39.781 1.3585 2.9782 2.4701 9.1573 2.4701 13.732 0 5.9121 1.6728 11.799 5.7856 20.36 3.1822 6.624 8.333 18.002 11.446 25.285 5.1296 11.999 6.3202 13.506 12.686 16.058 3.864 1.5492 11.097 3.239 16.073 3.7554 10.768 1.1171 14.793-1.5721 17.906-11.964 1.3095-4.3708 5.7866-10.462 12.873-17.513 11.364-11.308 12.696-14.862 9.1094-24.295-1.2006-3.158-1.1939-5.2932 0.0206-6.7573 1.8869-2.2734-0.0275-4.6022-5.3244-6.4778-2.3761-0.8413-5.9937-11.133-4.4544-12.672 0.29659-0.29659 3.3538 1.3735 6.7941 3.7111 7.6986 5.2315 9.3481 5.279 13.317 0.38404 4.3914-5.4162 5.9734-2.7478 3.5291 5.9525-4.0293 14.343-4.1709 15.595-1.6673 14.761 1.2949-0.43164 4.3551-4.2056 6.8003-8.3863 2.445-4.1809 5.544-7.6016 6.8864-7.6016 4.5577 0 3.6331 6.0643-2.1673 14.215-7.9174 11.125-15.583 24.544-14.588 25.538 1.1398 1.1399 21.501-4.2735 27.244-7.2431 5.5866-2.8889 10.042-3.1607 10.042-0.61276 0 2.0663-20.748 11.921-25.098 11.921-3.2918 0-20.671 9.6254-22.384 12.398-0.83202 1.3463 3.8934 1.4625 16.717 0.41086 21.452-1.7589 32.449-1.5016 34.764 0.81363 3.1714 3.1714-7.5248 5.4083-24.461 5.1158-20.761-0.35861-29.243 1.9034-36.002 9.6019-10.167 11.58-8.7198 26.54 4.0771 42.14 4.0877 4.9832 8.7011 12.622 10.252 16.974 1.551 4.3525 4.0207 10.62 5.4885 13.928l2.6687 6.0142 9.3608-10.31c5.1483-5.6705 10.82-13.101 12.605-16.513zm48.096 3.6257c4.0171-3.1421 4.0673-3.3628 0.77325-3.3985-3.5379-0.0378-7.6466 2.8957-7.6466 5.4605 0 2.2161 2.2775 1.5329 6.8733-2.062zm-173.12-19.91c2.3888-2.3888-3.0746-12.449-10.419-19.185-6.9928-6.4138-12.352-9.1848-12.352-6.3867 0 3.5829 9.5065 18.458 14.12 22.093 5.9327 4.6752 7.0178 5.1117 8.6511 3.4784zm234.98-18.971c0-4.1783-8.6362-1.4833-13.308 4.1532-5.833 7.0367-4.7305 7.7227 4.7168 2.9354 4.8874-2.4766 8.5916-5.5329 8.5916-7.0886zm-11.103-19.711c3.791-2.0058 12.274-4.1836 19.145-4.9149 16.328-1.7381 28.375-7.6407 29.961-14.681 0.63888-2.8352 1.6281-7.2218 2.1984-9.7479 0.57048-2.5261 2.8634-6.779 5.0957-9.4508 4.2838-5.1272 15.131-28.341 13.844-29.628-0.41506-0.41498-2.873 1.2236-5.462 3.6415-2.5892 2.4177-6.8735 5.4968-9.5209 6.8422s-7.6736 4.8967-11.169 7.892c-11.196 9.5926-23.592 19.888-35.63 29.592-13.698 11.042-23.135 20.204-23.135 22.461 0 2.7727 7.6064 1.7328 14.672-2.0058zm70.985-20.291c7.8379-8.2657 16.423-20.721 20.215-29.329 2.153-4.8873 8.7926-11.393 10.196-9.9902 0.50514 0.50519-0.69572 3.6544-2.6686 6.9981-4.3143 7.3122-2.3121 9.3896 5.2703 5.4686 6.1092-3.1592 11.089-2.1496 9.5233 1.9306-0.57123 1.4886-0.34932 2.4486 0.49314 2.1335 1.9725-0.7382 17.372-14.987 17.372-16.074 0-0.45313-3.8971-0.82377-8.6601-0.82377-5.0637 0-11.308-1.3401-15.035-3.2269-7.6376-3.8659-12.181-2.668-20.744 5.4693-10.735 10.201-23.693 27.781-26.428 35.855-4.4044 13-0.86364 13.537 10.467 1.5884zm20.9-3.6111c7.2448-3.6961 18.881-13.217 18.881-15.449 0-2.938-5.6512-3.2775-10.848-0.65176-7.181 3.6277-12.952 8.976-15.993 14.822-2.9697 5.7083-1.2609 5.9825 7.9605 1.2783zm-110.41-10.28c1.1726-1.8776 4.6448-4.5032 7.7162-5.8348 3.0715-1.3315 8.1115-4.7907 11.2-7.6871 5.1612-4.8397 5.5243-5.863 4.4857-12.637l-1.13-7.3713 4.2125 3.8623c4.9524 4.5409 7.2189 3.3803 13.286-6.8039 2.0898-3.5082 6.6862-8.6645 10.214-11.459 11.539-9.139 18.294-30.936 17.129-55.273-0.58269-12.172-1.6422-16.474-6.5403-26.554-3.8858-7.9968-6.3099-16.06-7.2321-24.057-3.1116-26.977-4.302-32.952-7.8737-39.522-4.9641-9.1307-7.8493-12.242-20.569-22.184-11.555-9.0316-12.927-11.3-6.8733-11.365 3.2461-0.0344 2.2122-1.5582-6.4437-9.495-9.5886-8.792-10.81-9.4061-17.457-8.7786-8.1152 0.76621-20.803 6.4431-28.074 12.561-4.3414 3.653-11.917 18.694-10.133 20.119 2.4933 1.9921 15.806 6.135 17.115 5.3261 0.88288-0.54574 1.6223-3.8461 1.6434-7.3344 0.0223-3.6341 1.473-8.1767 3.3983-10.638 1.8482-2.3627 3.3774-5.649 3.3985-7.3029 0.0206-1.6539 1.0782-3.0071 2.3493-3.0071 1.2712 0 3.6942-1.5283 5.3847-3.3961 4.0783-4.5065 6.957-2.5388 3.6561 2.4991-1.4199 2.1668-2.1062 4.4149-1.5254 4.9959 1.7917 1.7915 8.2765 1.1673 10.45-1.0059 3.8073-3.8073 2.3333 1.8451-2.2338 8.5662-6.2192 9.1525-5.8378 19.078 1.1637 30.29 6.0552 9.6959 11.65 16.474 13.599 16.474 0.70156 0 2.951-5.4127 4.9984-12.028 2.0476-6.6156 4.3027-12.028 5.0117-12.028 3.1464 0 3.1576 2.6626 0.0447 10.561-1.8357 4.6574-3.3377 10.695-3.3377 13.417s-1.5465 8.5568-3.4367 12.966c-1.8902 4.4096-3.4366 9.8864-3.4366 12.171 0 4.268 3.1301 5.4909 6.199 2.422 2.3251-2.3252 13.505-3.0117 13.779-0.84611 0.11856 0.94509-2.6815 2.5741-6.2236 3.62-10.487 3.0964-15.579 7.6395-14.495 12.933 0.90505 4.4213 0.75693 4.506-6.469 3.6987-8.8331-0.98667-17.687 4.4628-15.982 9.8366 0.76483 2.4096-0.4026 3.5673-5.1921 5.148-5.2741 1.7405-6.1016 2.7069-5.6511 6.5989 0.47099 4.0695 1.1743 4.5108 6.5418 4.1042 10.42-0.78923 40.24-0.29899 43.615 0.71689 6.8311 2.0562-1.3365 3.6631-14.215 2.7968-22.733-1.5295-34.832 4.4261-42.516 20.928-6.4503 13.852-4.8158 24.547 5.8767 38.455 5.9892 7.7902 14.077 28.021 14.882 37.222 0.70795 8.0992 0.60107 7.7325 2.2544 7.7325 0.71775 0 2.2644-1.5362 3.437-3.4136zm101.26-27.946c6.112-6.748 15.878-22.432 14.927-23.972-0.50378-0.81517-4.1415 0.28215-8.0839 2.4385-7.082 3.8735-11.666 10.585-14.123 20.674-1.455 5.9767 2.2489 6.4138 7.28 0.85916zm-353.4-3.9781c0.92171-2.4242 1.6757-11.788 1.6757-20.809 0-14.913-0.70572-18.493-7.7772-39.445-7.6394-22.635-10.08-29.003-16.379-42.734-6.9518-15.153-11.581-25.981-12.773-29.875-0.69008-2.2553-3.8556-7.5081-7.0345-11.673-3.1791-4.1647-6.4774-8.8183-7.3297-10.341-2.507-4.4797-6.7524-1.3659-11.592 8.503l-4.4818 9.1379 5.2327 10.219c4.3448 8.4853 5.438 9.6414 6.4441 6.8144 3.897-10.952 5.9719-14.574 8.3489-14.574 3.5772 0 3.3291 5.526-0.77153 17.183-1.8285 5.198-3.3497 11.054-3.3805 13.014-0.03093 1.9598-2.0335 10.079-4.4501 18.042-3.5972 11.853-4.1934 16.447-3.288 25.329 1.0667 10.465 1.5477 11.35 13.551 24.916 18.906 21.368 38.052 40.7 40.31 40.7 1.1111 0 2.7741-1.9835 3.6958-4.4077zm390.93-0.66105c-0.63248-1.0233-1.9524-1.3647-2.933-0.75864-1.1545 0.71345-0.97874 1.5991 0.49856 2.512 2.7575 1.7042 4.0127 0.80023 2.4345-1.7534zm-6.3239-24.311c4.793-1.6709 7.5528-5.0029 4.1226-4.9773-3.8763 0.0292-14.176 3.8259-14.176 5.2261 0 2.1551 3.399 2.0709 10.054-0.24881zm-473.39-8.02c0.44848-0.72565-4.4022-6.9116-10.779-13.747-10.317-11.06-12.289-12.42-17.897-12.42-6.7087 0-7.9188-1.6745-3.7252-5.155 1.4176-1.1765 2.5775-2.849 2.5775-3.7166 0-2.881-7.5625-12.412-22.742-28.663-8.2554-8.8377-17.148-19.497-19.761-23.687-2.6131-4.19-6.8776-10.407-9.4766-13.816-2.599-3.4085-4.7254-6.8642-4.7254-7.6794 0-0.81517-0.81707-1.4821-1.8158-1.4821-1.0178 0-0.64008 1.6785 0.85916 3.819 1.4712 2.1005 2.6995 5.7734 2.7296 8.1621 0.0292 2.3886 1.1733 5.8214 2.5406 7.628 1.386 1.8316 2.0565 4.9954 1.5156 7.1507-1.7011 6.7783 6.1992 28.37 13.157 35.959 3.466 3.7803 8.6477 10.371 11.515 14.646 2.867 4.2749 7.1866 8.8288 9.5991 10.12 2.4124 1.291 6.8524 5.4162 9.8665 9.167 3.093 3.8489 9.3101 8.6028 14.271 10.913 8.5229 3.9685 20.631 5.4935 22.291 2.8078zm301.58-8.74c4.2132-4.5104 12.263-26.357 12.263-33.281 0-4.669-15.833-21.847-20.19-21.905-2.1264-0.0275-3.8662-0.66998-3.8662-1.426 0-2.3936 4.0109-5.4987 7.1029-5.4987 1.9477 0 3.1671-1.59 3.5226-4.5929 0.96364-8.1396 4.4166-6.4472 5.6866 2.7871 1.7417 12.663 3.6666 11.988 4.9418-1.7319 0.83631-8.9989 0.48148-13.264-1.4077-16.917-3.3086-6.3984-1.4204-8.1068 2.8959-2.6196 2.7043 3.438 3.8748 3.8949 5.8276 2.2742 5.2775-4.3798 6.1877 5.4299 1.0155 10.945-3.309 3.5281-3.6448 4.9118-2.1479 8.8491 0.97584 2.5667 1.7743 6.5496 1.7743 8.8508 0 4.8718 2.0362 5.3727 5.3743 1.3221 1.297-1.5742 6.258-5.3619 11.024-8.4174 10.577-6.7804 12.061-8.5551 13.554-16.214 3.203-16.431 3.0454-17.684-3.2935-26.205-7.0854-9.5242-12.822-10.801-17.366-3.8662-3.8528 5.8801-6.3815 5.4445-4.9967-0.86054 0.8449-3.8472 0.44333-5.421-1.5817-6.198-3.1738-1.218-3.6214-5.2402-0.6918-6.2168 3.2781-1.0927-0.15808-4.7672-4.4594-4.7672-2.1737 0-8.3313-2.2089-13.684-4.9086l-9.7312-4.9086-5.0918 5.7992c-7.1893 8.1882-7.9277 13.113-4.3379 28.934 3.6152 15.934 4.0111 38.308 0.95075 53.745-1.6139 8.1416-1.6699 12.648-0.22802 18.374 1.0506 4.1728 1.9103 12.207 1.9103 17.854 0 5.6473 0.46945 11.491 1.043 12.986 1.6743 4.3632 9.145 3.2121 14.188-2.1859zm-295.32-7.15c0-0.96106-3.5145-5.1148-7.8102-9.2309-4.9093-4.7039-8.4772-9.9586-9.6058-14.147-0.98752-3.6652-4.0446-10.21-6.7936-14.544-4.0633-6.4061-5.1778-10.423-5.9587-21.479-1.835-25.98-5.4418-32.55-21.474-39.115-13.45-5.5074-12.809-5.9083-12.669 7.9241 0.15465 15.344 2.0684 26.429 5.6313 32.627 2.8799 5.0096 4.5414 5.8062 6.2714 3.0071 2.2007-3.5607 6.0148-1.6912 6.135 3.0071 0.1897 7.4211 1.8125 10.091 13.234 21.776 5.8858 6.021 10.701 11.583 10.701 12.36 0 0.77669 4.0333 5.4961 8.9626 10.487 8.4616 8.5681 13.376 11.26 13.376 7.328zm16.657-25.884c2.0998-4.2572 6.9149-18.377 8.5575-25.093 0.93494-3.8228-5.2947-19.091-10.388-25.46-2.6885-3.3619-2.9169-3.2614-10.506 4.6254-7.0096 7.2849-7.7564 8.8585-7.7478 16.324 0.01718 11.566 2.9578 20.916 8.9839 28.528 5.6576 7.1462 7.994 7.3727 11.1 1.0757zm410.72-11.61c5.4857-4.6974 10.8-14.678 10.8-20.283 0-1.6089-2.4158-8.1664-5.3684-14.572-4.8448-10.511-6.0741-11.887-12.603-14.112-10.008-3.4102-21.55-10.972-21.55-14.119 0-3.2014 4.3945-1.2095 9.3068 4.2187 3.829 4.2309 7.8765 4.7103 7.8765 0.93289 0-3.9429-4.663-12.246-7.4857-13.329-1.5436-0.59231-2.903-4.7778-3.6542-11.25-0.75847-6.5355-2.3261-11.33-4.2838-13.101-2.8801-2.6064-3.3406-2.4722-6.8577 1.9991-3.0244 3.8449-3.6006 6.3269-2.9129 12.547 4.6352 41.928 3.8185 38.7 16.744 66.178 1.7783 3.7803 4.3677 9.773 5.754 13.317 3.0433 7.7799 6.5355 8.1662 14.234 1.574zm-324.73-17.35c5.3789-9.4206 8.6413-19.869 9.9627-31.907 0.90625-8.2564 0.41429-12.192-2.4696-19.761-1.9806-5.198-3.6014-11.202-3.602-13.342-0.00052-2.527-1.9096-5.0522-5.4447-7.2022-6.0764-3.6951-10.487-3.3416-25.045 2.0077-9.9888 3.6702-15.906 2.8521-15.906-2.199 0-2.5698 1.2076-3.3208 5.3388-3.3208 4.429 0 5.1198-0.51241 4.0529-3.0071-2.9669-6.9374-2.8877-12.638 0.22355-16.076 2.938-3.2466 3.2971-3.2841 5.2944-0.55261 1.3712 1.8752 1.7728 5.6279 1.1154 10.424-1.1451 8.3545 0.2837 9.2852 6.5121 4.2417 3.7657-3.0494 3.858-3.5551 1.4791-8.1098-1.3954-2.6718-5.5414-7.8856-9.2133-11.586-11.236-11.324-23.393-28.75-23.421-33.573-0.0378-6.5589-2.3514-9.3431-6.6324-7.9842-4.3905 1.3934-4.4091 1.2559-0.80504-5.9684 2.3935-4.7979 2.5067-6.5479 0.71173-11.004-3.5892-8.9096-4.0365-11.312-2.1063-11.312 1.019 0 2.6962 3.1329 3.7272 6.9618 1.031 3.829 2.9315 7.3673 4.2231 7.8631 3.4528 1.3248 11.099-4.3024 12.289-9.0439 1.3556-5.4012-1.6833-8.7874-9.8631-10.99-7.9854-2.1501-8.5623-4.413-1.5195-5.9599 5.4971-1.2075 5.4432-0.75108 1.7286-14.606l-1.1516-4.2958-3.0464 5.8495c-1.6755 3.2171-5.1737 8.7862-7.7739 12.376-7.6827 10.606-9.3548 19.474-7.168 38.016 1.0394 8.8128 3.7662 21.415 6.0597 28.005 2.2933 6.5896 4.6948 15.526 5.3364 19.859 2.1228 14.335 4.7687 15.126 10.837 3.239 3.0545-5.9836 7.982-10.057 9.8754-8.1629 0.61275 0.61276-1.3946 4.2359-4.4608 8.0512-7.3156 9.1034-8.9276 21.559-3.7341 28.853 1.9127 2.6859 5.4923 9.1218 7.955 14.302s8.2652 13.843 12.894 19.252c6.0592 7.079 8.7532 11.892 9.618 17.183 1.1436 6.9967 7.2479 20.253 9.3135 20.224 0.53474 0 2.7012-3.0413 4.8144-6.7424zm-103.71-30.04c4.3677-5.1124 7.9411-10.866 7.9411-12.786 0-3.9953 2.6727-6.32 4.2785-3.7216 1.8458 2.9865 3.9016 1.9376 5.8387-2.9791 1.0238-2.599 2.8392-6.1006 4.0343-7.7815 1.7867-2.5131 1.7149-3.359-0.40484-4.7618-3.0677-2.0304-9.6916-1.0305-24.377 3.6798-11.639 3.7331-16.862 8.2011-16.862 14.425 0 4.821 7.987 23.221 10.08 23.221 0.84233 0 5.1048-4.1829 9.4726-9.2953zm161.44 3.5148c8.6496-3.614 14.37-11.604 15.802-22.071 0.68406-5.001 1.967-11.026 2.8509-13.389 2.229-5.9581 13.476-17.183 17.216-17.183 4.547 0 3.7556 4.2991-1.208 6.5608-2.5199 1.148-4.2958 3.3932-4.2958 5.4308 0 1.9103-1.5465 5.0199-3.4367 6.9101-3.7176 3.7176-4.7015 12.028-1.424 12.028 3.5494 0 8.2973-5.5604 8.2973-9.7172 0-2.8432 0.98203-4.0295 3.3353-4.0295 3.8685 0 6.1193-2.7005 3.566-4.2785-3.2679-2.0197-1.9881-6.34 1.5458-5.2182 5.2562 1.6683 5.5636-1.5231 0.97739-10.148-4.2364-7.9677-5.6586-16.44-2.7596-16.44 0.83047 0 2.535 2.5131 3.7882 5.5846 3.0846 7.5608 8.7109 17.064 9.585 16.19 0.39074-0.39075-0.0378-2.5502-0.95316-4.7988-0.91519-2.2486-2.1038-6.1552-2.6414-8.6815-0.53767-2.5263-3.7382-8.2095-7.112-12.63-3.5882-4.7007-6.1936-10.115-6.2769-13.044-0.16668-5.8717 1.6821-8.416 3.72-5.1186 1.8656 3.0184 4.6214 1.2346 5.6866-3.6812 0.46395-2.1404 1.4121-5.2449 2.1074-6.8988 2.3234-5.5275-3.5956-3.2983-9.9665 3.7535-4.0914 4.5285-7.2864 10.718-9.6775 18.747-2.3881 8.0191-5.8549 14.739-10.474 20.303-4.8264 5.8135-6.6371 9.408-6.0154 11.942 0.56551 2.3041-0.36703 4.7622-2.5593 6.7462-1.8969 1.7166-4.6414 7.2235-6.099 12.238-1.4577 5.0143-3.4484 9.6099-4.4238 10.213-3.0296 1.8723-11.748 16.658-11.748 19.924 0 3.7657 4.7132 4.0489 12.593 0.75641zm81.889-11.832c-0.0447-3.82-11.005-14.884-15.869-16.022-3.984-0.9315-4.7254-0.549-4.7254 2.4373 0 5.4622 3.4401 11.757 7.499 13.722 5.2055 2.5206 13.126 2.4369 13.095-0.13747zm-25.776-11.169c-0.0172-2.599-0.69111-5.7748-1.5037-7.0572-1.9106-3.0152-8.2047-1.0948-10.506 3.2057-1.364 2.5486-0.92635 3.776 2.1026 5.8977 6.0705 4.252 9.938 3.4533 9.9074-2.0462zm-285.22-0.24572c0-0.84405-1.1599-1.9795-2.5775-2.5235-1.57-0.60262-2.5775 0-2.5775 1.5345 0 1.3879 1.1599 2.5235 2.5775 2.5235s2.5775-0.6906 2.5775-1.5345zm323.43-13.23c-0.52495-11.168-5.4772-33.337-7.4469-33.337-0.68579 0-2.9256 2.7162-4.9773 6.0358-2.0517 3.3198-5.2078 6.8266-7.0135 7.793-1.8056 0.96639-3.283 2.9719-3.283 4.4565 0 4.8208 18.297 26.899 21.397 25.819 1.0564-0.36807 1.6034-4.8168 1.3236-10.767zm179.79 2.3182c0.89485-3.0715 3.937-11.086 6.7604-17.809 3.2828-7.8174 4.8115-13.909 4.2404-16.896-0.52824-2.7632-5.7132-9.4158-12.694-16.287-6.4904-6.3882-11.801-12.465-11.801-13.503 0-4.4166 3.7917-3.5686 9.4809 2.1206 8.5991 8.599 10.6 7.5729 3.984-2.0433-10.011-14.55-27.242-29.637-33.87-29.655-1.7386 0-2.0742 1.4357-1.2709 5.453 1.3719 6.8596 2.0904 7.5576 5.1574 5.012 4.7905-3.9757 4.8321 1.6157 0.14606 19.633-2.5608 9.8453-4.1812 19.138-3.6008 20.651 1.4546 3.7901 7.3532 1.7934 14.364-4.8622 8.3835-7.9593 8.7491-4.2493 0.5466 5.5476-7.6163 9.097-7.6151 9.0223-0.32597 18.729l4.3046 5.7324 2.6904-5.6074c2.771-5.7751 6.9864-8.6848 6.9864-4.8223 0 1.1992-1.4349 3.7767-3.1886 5.7277-2.6906 2.9935-3.0146 5.2416-2.0743 14.395 1.0082 9.8142 3.1676 13.951 7.3301 14.042 0.66437 0.0172 1.9401-2.4868 2.835-5.5583zm-108.95-4.2462c-2.7492-4.1956-2.6392-12.506 0.26548-20.075 1.6037-4.1792-4.4659-5.7047-7.2964-1.8338-4.1903 5.7308-1.9673 17.46 4.9538 26.137 3.1528 3.9525 4.9887 0.21633 2.0771-4.2273zm-100.75-0.0292c-0.71895-3.7332-6.5501-5.1376-6.5501-1.5778 0 2.361 2.2374 4.0963 5.7105 4.4293 0.77824 0.0739 1.1559-1.2085 0.83958-2.8516zm-88.945-18.169c6.5336-9.7844 6.9326-11.066 5.864-18.837-0.68527-4.9818-2.7641-10.196-5.1646-12.954l-4.0178-4.6163-3.4398 3.4367c-1.8919 1.8902-6.1906 8.0306-9.5527 13.646-8.5334 14.252-7.9988 26.585 1.3025 30.043 5.5571 2.066 7.3056 0.81741 15.008-10.718zm-126.93 6.2394c5.9691-2.5337 11.057-4.7359 11.307-4.8936 1.4528-0.91605-9.8498-18.334-16.173-24.923-4.4065-4.5919-9.0852-11.947-11.398-17.918-2.1577-5.5705-4.7465-10.403-5.753-10.738-2.4397-0.81328-1.6986 36.038 0.8882 44.166 1.0508 3.3016 1.9103 8.9076 1.9103 12.458 0 5.6933 0.49368 6.4551 4.1826 6.4551 2.3005 0 9.0664-2.0732 15.035-4.607zm376.7-2.8404c-0.6344-2.047-2.744-7.3947-4.6878-11.884-3.1784-7.3407-4.0967-8.1621-9.1248-8.1621-6.7336 0-8.3808 2.0828-5.4222 6.8558 1.8412 2.9703 1.7798 3.8248-0.37133 5.1662-2.1225 1.3233-1.5161 2.4976 3.4367 6.6534l6.0142 5.0466 1.0306-7.1356c0.56688-3.9245 1.1468-6.2633 1.2888-5.1974 0.14262 1.0659 1.4413 4.7701 2.8877 8.2313 2.7416 6.5616 6.9628 6.9245 4.9483 0.42546zm-106.53-7.588c5.353-8.225 10.812-26.82 12.817-43.66 1.1726-9.8474 3.6226-17.632 9.7342-30.93 5.4487-11.856 8.5404-21.202 9.2891-28.081 0.66087-6.0705 2.8435-13.266 5.3081-17.498 4.491-7.7119 3.9891-10.501-1.3731-7.6316-5.0064 2.6794-15.752 24.208-14.726 29.505 0.57152 2.9509-1.3381 8.5982-5.8659 17.348-5.2644 10.173-6.3915 13.842-5.2232 17 1.9293 5.2157 0.055 13.686-3.0298 13.686-1.7481 0-2.1185-1.3974-1.3671-5.155 0.60657-3.0323 0.3093-5.155-0.72153-5.155-0.96398 0-2.1036-3.2863-2.5326-7.3029-0.59369-5.56 0.0172-8.1853 2.538-11 4.1788-4.6568 5.9978-16.79 3.0497-20.343-5.2437-6.3183-14.32-0.66568-12.615 7.8569 0.7595 3.7968 0.11512 6.1661-2.4362 8.9547-1.9079 2.0855-4.0364 5.6573-4.7299 7.9373-1.7833 5.8619-1.4487 25.962 0.51722 31.08 0.90762 2.3627 1.2686 8.2549 0.80228 13.094-0.52941 5.4938-0.12887 9.2426 1.0678 9.9818 1.1307 0.69885 1.9154 6.4219 1.9154 13.97 0 7.2558 0.7327 12.786 1.6939 12.786 0.93168 0 3.5812-2.8997 5.8879-6.4437zm-44.023-4.4458c4.4486-4.0991 9.4415-7.9411 11.095-8.5377 4.8342-1.7439 4.6094-13.088-0.73081-36.882-1.9663-8.7609-4.134-16.274-4.817-16.697-0.68321-0.42219-3.7607 1.0905-6.839 3.3616-4.5098 3.3272-6.7159 7.3856-11.361 20.898-6.3132 18.367-7.7632 26.576-4.8725 27.581 1.0343 0.35982 3.7393-2.8498 6.0112-7.1326 4.0745-7.6804 9.0606-10.63 8.0782-4.7794-0.33714 2.0075 0.78012 3.1896 3.3612 3.5561 5.755 0.81741 4.8856 5.4652-1.0224 5.4652-2.6887 0-6.1082 1.3532-7.5986 3.0071-5.1663 5.7329-6.0025 17.613-1.2396 17.613 1.0152 0 5.4856-3.3538 9.9344-7.4529zm157.53 5.8227c1.7302-2.7995-2.821-17.362-6.9656-22.288-2.1754-2.5852-5.8545-9.6668-8.1758-15.737-2.3213-6.07-6.3355-15.587-8.9204-21.148-3.7546-8.0779-5.016-9.5467-6.2717-7.3029-2.3864 4.2644-4.8378 3.3617-4.8378-1.7814 0-2.5246-1.1477-5.8583-2.5505-7.4084-2.095-2.3148-2.1859-3.7843-0.50931-8.2263 1.8108-4.7971 1.4809-6.5805-2.9203-15.789-2.7288-5.7095-5.9352-10.381-7.1254-10.381-1.1899 0-6.9661 4.4462-12.836 9.8804-7.7124 7.1402-12.035 12.917-15.585 20.829-5.2517 11.705-6.8824 20.914-3.8924 21.982 3.5582 1.2709 13.618-7.2386 15.548-13.153 2.3605-7.23 5.8133-8.8365 5.8133-2.7046 0 3.9855 0.49797 4.3469 4.5783 3.3227 3.8456-0.96519 4.3977-0.67823 3.4496 1.7926-0.75349 1.9635 0.60296 4.7629 4.0792 8.4191 5.0678 5.3303 5.2759 5.3873 7.7364 2.1192 2.377-3.1573 2.7029-3.1841 5.4416-0.44539 2.7385 2.7385 2.5694 3.2676-2.8217 8.8298-7.8125 8.0605-6.3456 11.298 5.1193 11.298 12.055 0 10.473 3.9568-2.1312 5.3318-5.2232 0.56997-10.38 1.5821-11.46 2.2495-3.1782 1.9642-2.2699 6.0148 2.395 10.68 3.7949 3.7949 5.294 4.2077 11.599 3.1935 10.203-1.6414 14.92-4.9612 13.697-9.6388-0.67599-2.5851-0.36154-3.377 1.0054-2.5323 1.0939 0.67617 1.989 2.2608 1.989 3.5216 0 1.2607 1.1599 2.7373 2.5775 3.2813 1.4176 0.54402 2.5775 2.7273 2.5775 4.8519 0 4.8844 5.1641 18.583 7.0055 18.583 0.76088 0 1.8367-0.73355 2.3909-1.6302zm-59.112-86.005c0-1.4176 1.129-4.0785 2.5165-5.913 3.2102-4.2441 3.1738-1.4528-0.055 4.1946-1.4242 2.4914-2.4582 3.2131-2.4618 1.7183zm-222.66 67.041c5.5987-6.6015 11.351-13.933 12.783-16.293 2.4856-4.0965 2.3227-4.5833-3.6008-10.765-3.4121-3.5611-7.4687-8.9879-9.0149-12.059-4.6744-9.2869-8.4806-6.4682-10.269 7.605-1.3293 10.461 0.18919 12.094 7.6553 8.233 2.9509-1.5259 5.7755-2.3641 6.2769-1.8627 2.0348 2.035-1.5295 6.515-7.0029 8.802-5.7899 2.4192-7.9042 6.224-7.9514 14.31-0.0447 7.6643-4.3108 2.728-4.8503-5.6126-0.51051-7.8885-0.71104-8.1738-5.155-7.3292-2.5433 0.48319-6.1705 1.3688-8.0607 1.9678-2.8548 0.9047-3.985-0.25706-6.6759-6.8625-3.2298-7.9286-3.2286-7.9621 0.42958-11.62l3.6688-3.6686v6.4499c0 7.3108 2.3954 9.0245 9.068 6.4876 3.2145-1.2221 5.0277-3.6516 6.3272-8.4777 3.0268-11.241 0.91123-13.363-14.362-14.407-4.6075-0.31497-7.2902-1.531-8.5916-3.8946-1.0408-1.8902-2.0608-3.7341-2.2668-4.0975-0.20603-0.36343-2.6156 0.26737-5.3548 1.402-6.2652 2.5952-10.291 9.5202-7.8153 13.445 3.0602 4.8512 5.793 4.3818 6.9067-1.1865 2.0333-10.167 4.5018-7.8815 3.2392 2.9985-1.1183 9.6345-0.78854 11.218 4.3391 20.839 3.7803 7.0926 8.8949 13.152 16.044 19.006 5.772 4.727 11.295 8.5946 12.275 8.5946 0.97894 0 6.3608-5.4012 11.959-12.003zm210.44-9.7364c9.6012-2.673 18.972-7.0886 24.881-11.724 3.6387-2.8545 3.9575-1.7252-5.2266-18.516-3.0774-5.626-7.2302-6.0226-12.421-1.1863-4.5986 4.2843-3.4779 6.7709 3.0519 6.7709 3.8245 0 5.0289 0.9193 5.6822 4.3369 0.45605 2.3852 0.2983 4.6649-0.35054 5.0658-1.6766 1.0362-12.106-5.5622-12.106-7.6591 0-0.959-2.3567-1.7436-5.237-1.7436-6.9943 0-12.823 6.5133-15.385 17.191-2.3211 9.6754-1.187 12.802 4.062 11.198 2.0197-0.61723 7.8918-2.2969 13.049-3.7327zm-108.25-8.31c0-2.8457-0.28645-2.9935-1.6658-0.85916-0.91604 1.4176-1.6656 4.124-1.6656 6.0142 0 2.8457 0.28628 2.9935 1.6656 0.85916 0.91621-1.4176 1.6658-4.124 1.6658-6.0142zm184.62-4.6555c0.12543-6.0363-0.53406-7.6698-3.6502-9.0394-2.7645-1.2152-3.5509-2.6777-2.8792-5.3543 0.62444-2.4875-0.0326-4.0499-2.0269-4.8149-4.5347-1.7402-4.9362-0.15121-2.8274 11.19 3.531 18.987 11.045 24.281 11.384 8.0188zm-236.14 6.3961c2.6076-3.1418 1.08-10.03-3.7188-16.769-3.2987-4.6326-3.697-4.7575-6.6491-2.0859-1.7271 1.563-3.9422 5.1424-4.9225 7.9543-1.5475 4.4395-1.2331 5.6614 2.3895 9.284 4.7371 4.7371 9.7861 5.3696 12.901 1.6164zm-137.79-26.65c-0.883-2.37-1.858-9.71-2.168-16.33-0.585-12.527-1.958-18.044-4.492-18.044-3.2592 0-7.3302 11.826-8.087 23.491l-0.79937 12.321 7.5201 8.9295 7.5201 8.9293 1.0559-7.5043c0.58062-4.1274 0.33336-9.4364-0.54952-11.798zm121.34 6.7393c5.3303-6.3346 5.5956-8.4599 1.0561-8.4599-2.0189 0-4.4541 2.0527-6.0142 5.0696-5.0844 9.8323-2.1505 11.838 4.9581 3.3903zm50.321-0.17785c-3.0865-1.1255-4.6168-2.7748-4.2582-4.5898 0.59402-3.0076 8.6521-3.4556 19.597-1.0896 4.5029 0.97327 7.067 0 15.95-6.0654 8.9054-6.0789 10.4-7.8088 9.4223-10.902-1.9677-6.2231-6.1116-11.471-11.091-14.046-4.1463-2.1441-5.3854-2.1342-9.6252 0.0773-2.6766 1.396-7.3795 2.5428-10.451 2.5486-3.0715 0-5.5846 0.837-5.5846 1.847 0 1.2473 4.3371 1.4582 13.52 0.65709 9.6761-0.84404 13.878-0.6009 14.778 0.85539 0.6918 1.1192 0.75847 2.534 0.14777 3.144-0.61 0.61018-10.793 1.1798-22.63 1.2661-22.468 0.16324-24.629 0.88098-24.692 8.1908-0.0395 4.6395 4.8732 15.562 8.0908 17.987 1.5673 1.1814 4.8285 2.0869 7.2469 2.0122l4.3969-0.13575-4.8178-1.7566zm-59.041-7.5679c1.7357-2.3832 2.7904-5.2856 2.3435-6.4501-1.2472-3.2502-13.619-11.282-18.213-11.824-5.1693-0.61-6.964 3.7073-2.073 4.9863 2.4794 0.64832 3.6176 2.3184 3.6176 5.3078 0 4.1168 0.17647 4.202 3.1425 1.518 4.6259-4.1865 5.4492-3.5777 5.4492 4.0295 0 7.9359 1.3176 8.4949 5.7336 2.4325zm279.36-10.626c-8.71-9.3972-12.808-15.81-17.951-28.091-4.6278-11.051-7.1661-15.265-9.1938-15.265-2.6065 0-6.1233 19.036-5.8401 31.612 0.36154 16.049 2.6614 19.947 6.4376 10.909 3.5425-8.4782 5.5921-9.2589 10.945-4.1683 5.2758 5.0175 19.537 13.424 20.738 12.224 0.44453-0.44454-1.8663-3.6937-5.1349-7.2204zm-323.84 4.0836c4.6775-1.232 8.8013-3.1306 9.164-4.2192 1.1702-3.5102-4.9263-4.2663-11.01-1.3654-3.254 1.5518-8.0165 2.8486-10.583 2.8822l-4.6672 0.0602 4.2958 2.4557c2.3627 1.3506 4.2958 2.449 4.2958 2.4407 0-0.0172 3.8271-1.0229 8.5045-2.255zm59.345-10.925c-0.0533-9.9333-8.8731-29.647-16.338-36.515l-4.6694-4.2958 0.77016 15.278 0.76998 15.277 7.9277 7.4906c9.2221 8.7133 11.574 9.2768 11.54 2.765zm224.47-7.732c-0.77291-8.3573-2.8495-16.09-6.309-23.493-6.0422-12.93-4.3953-17.378 2.549-6.8847 4.8618 7.3467 6.7066 7.3197 8.3738-0.122 0.70984-3.1688-0.38542-5.8736-4.1749-10.31l-5.1371-6.0142-3.7654 4.3149c-2.0709 2.3732-6.6575 6.5188-10.192 9.2125-3.535 2.6935-6.0326 5.5358-5.5506 6.3157 1.829 2.9593 11.196 6.4491 14.788 5.5097 3.5829-0.93701 3.7008-0.5942 2.7002 7.8552-0.67651 5.7116-0.1409 11.882 1.5133 17.455 3.8822 13.073 6.5843 11.08 5.2048-3.8382zm-279.79-7.943c0.34092-1.0231-1.3718-8.1882-3.8061-15.923-2.4343-7.7344-4.4262-15.098-4.4262-16.363 0-3.9568-2.9328-2.5148-4.932 2.4251-2.1132 5.2215-3.1746 31.411-1.3901 34.298 1.3552 2.1929 13.587-1.5365 14.554-4.4376zm91.86 4.8455c6.014-1.67 6.4437-2.2288 6.4437-8.3748 0-5.3567-1.282-7.9066-6.8714-13.666-6.7866-6.9931-6.6355-8.9125 0.40466-5.1447 2.9023 1.5534 4.0212 1.3834 5.661-0.85917 1.1241-1.5372 2.839-2.795 3.8111-2.795 2.3711 0 4.3379 11.132 3.0239 17.115-1.5262 6.9489 2.5505 10.429 10.737 9.1661 3.537-0.54574 6.6702-1.1863 6.9623-1.4236 2.1563-1.7503-32.209-46.008-37.708-48.562-1.2011-0.55794-1.613 1.5972-5.8989 30.867-1.6147 11.027-2.4665 21.273-1.8927 22.768 1.2075 3.1468 6.2032 3.4432 15.327 0.90934zm62.245-3.2609c3.3686-6.5142 3.343-13.623-0.0619-17.387-1.4762-1.6314-2.9335-6.7183-3.2384-11.304-0.53543-8.0564-4.319-21.228-6.0966-21.224-1.6472 0-12.052 24.924-12.044 28.849 0.0172 7.9737 11.541 26.136 16.587 26.136 1.2286 0 3.4135-2.2814 4.8553-5.0696zm-127.97 1.5903c0-1.8704-7.1536-5.1124-11.281-5.1124-3.5131 0-3.0614 4.7472 0.54145 5.6889 5.6119 1.4664 10.74 1.1913 10.74-0.5765zm-86.599-9.5013c1.5061-6.0013-0.10997-21.146-2.5119-23.549-1.469-1.4688-1.961 1.7898-1.961 12.989 0 14.581 2.1749 19.716 4.4728 10.561zm33.967-26.952c-2.1125-8.1451-4.2188-12.445-6.9835-14.256-2.1771-1.4266-3.9585-1.8854-3.9585-1.0195 0 0.8657 1.0492 1.9766 2.3314 2.4687 1.2822 0.49196 2.7944 3.8609 3.3604 7.4866 0.56584 3.6257 1.846 11.901 2.8447 18.389 0.99853 6.4884 2.3861 12.674 3.0834 13.747 2.6966 4.1475 2.1938-15.743-0.67788-26.815zm53.405 18.885c-1.5051-12.719-4.0647-20.19-6.9164-20.19-3.131 0-3.1188 1.6785 0.0292 4.1065 1.9285 1.4872 2.1452 3.6123 0.98271 9.6402-1.1289 5.8537-0.88545 8.6719 1.0023 11.599 4.2216 6.5455 6.0578 4.6142 4.9017-5.155zm211.97-3.1557c4.3407-3.1921 7.2118-6.6859 7.2118-8.7755 0-2.5265 0.77549-3.1743 2.8474-2.3792 1.6431 0.63046 5.4591-0.57736 9.0212-2.8555 3.3956-2.1715 8.3002-5.0308 10.899-6.3542 5.6243-2.8636 5.8825-5.0457 1.2888-10.886-1.8902-2.4029-3.4367-4.9704-3.4367-5.7055 0-2.224-7.3213-9.2905-9.6256-9.2905-3.1841 0-8.8715 7.9564-10.191 14.257-0.63406 3.027-3.6523 8.2102-6.707 11.518-9.7014 10.505-12.998 15.793-12.998 20.852 0 6.3432 2.6651 6.2564 11.69-0.38044zm-225.81 0.86724c0.57375-1.4949 1.043-4.6826 1.043-7.0836 0-3.6858-0.4014-4.0326-2.5775-2.2266-1.4176 1.1765-2.5775 4.3642-2.5775 7.0836 0 5.3342 2.4172 6.6431 4.112 2.2266zm56.627-4.5849c2.3069-3.7236 7.2038-33.582 5.7466-35.039-1.3979-1.3979-9.7809 2.7744-9.7809 4.868 0 1.1731 1.2716 5.4624 2.8256 9.5318 3.004 7.8658 2.2897 10.854-1.7862 7.4715-1.9799-1.6431-2.8486-1.4324-4.306 1.0439-2.7127 4.6101-5.3512-0.26565-3.5473-6.5553 1.5369-5.3591-1.1042-8.7769-3.6619-4.7386-2.4777 3.912-1.762 9.824 2.1151 17.472 5.4248 10.701 8.5272 12.189 12.395 5.9458zm-119.16-4.069c0-1.4176-0.77325-2.0996-1.7183-1.5156-0.94508 0.58406-1.7183 2.2218-1.7183 3.6394s0.77325 2.0996 1.7183 1.5156c0.94508-0.58406 1.7183-2.2218 1.7183-3.6394zm175.85-5.904c2.5076-1.9725 5.3352-6.6822 6.4114-10.679 1.059-3.9327 3.3973-9.0216 5.1964-11.309 1.7991-2.2871 3.271-5.9231 3.271-8.0801 0-4.8187-6.202-19.671-8.2141-19.671-0.8047 0-3.2808 3.2863-5.5026 7.3029-2.2216 4.0166-6.037 9.7876-8.4784 12.824-14.411 17.925-14.35 17.687-6.8914 26.736 6.0683 7.3617 8.0069 7.7543 14.208 2.8768zm-174.77-5.268c3.8375-1.2941-0.71122-8.0323-6.2424-9.2472-6.8295-1.4999-7.9272-0.37632-4.4635 4.5687 1.514 2.1617 2.7528 5.4244 2.7528 7.2508 0 3.0148 0.277 3.0794 3.0071 0.70108 1.6539-1.4408 3.8796-2.9138 4.946-3.2734zm4.0752 3.642c0-0.94508-0.77325-1.7183-1.7183-1.7183-0.94508 0-1.7183 0.77325-1.7183 1.7183 0 0.94508 0.77325 1.7183 1.7183 1.7183 0.94508 0 1.7183-0.77325 1.7183-1.7183zm56.705-9.3197c0-2.8213-9.4024-11.635-10.859-10.179-1.6623 1.6623-1.4474 6.9965 0.42322 10.501 0.87618 1.641 2.0934 4.5302 2.7052 6.4204 1.0786 3.3327 1.2123 3.314 4.4213-0.61997 1.82-2.2311 3.309-4.9861 3.309-6.1222zm24.981 6.3126c-1.0518-2.7224-1.8383-6.1934-5.9674-26.337-2.3866-11.642-4.7003-12.791-9.4762-4.706-3.2083 5.4311-3.2047 5.4899 0.4887 7.9421 2.1598 1.4341 3.7207 4.2676 3.7207 6.7544 0 4.2042-0.0825 4.2302-4.4106 1.3937l-4.4108-2.8899 2.9096 4.4407c2.2328 3.4078 3.4413 3.9996 5.1947 2.5445 3.115-2.5852 5.872-0.53131 5.872 4.3745 0 5.9499 1.7396 9.49 4.6636 9.49 1.7518 0 2.2053-0.9633 1.4157-3.0071zm-52.417-3.976c1.1875-2.2189 1.3006-4.3094 0.30191-5.5846-0.87772-1.121-2.9792-5.7363-4.6699-10.256-3.7386-9.9955-6.8496-12.657-5.2064-4.4546 1.8336 9.1539 6.1002 23.842 6.9257 23.842 0.41292 0 1.6048-1.596 2.6486-3.5465zm120.66-14.404c5.8222-7.2969 6.3157-15.444 1.1044-18.233-4.6251-2.4751-5.6461-1.1757-8.3566 10.637-3.3076 14.414-0.51842 17.335 7.2522 7.5964zm-50.322-0.83803c0.97842-1.828 1.7544-5.5009 1.7245-8.1621l-0.055-4.8383-4.2415 4.8213c-4.6995 5.3418-5.6231 11.503-1.7245 11.503 1.3845 0 3.3176-1.4956 4.2958-3.3238zm-111.64-1.498c0-0.76156-1.9331-4.0047-4.2958-7.2072l-4.2958-5.8227v5.4035c0 3.3334 1.1521 6.0745 3.0071 7.155 3.6801 2.1434 5.5846 2.3043 5.5846 0.47151zm126.32-5.536c0.85797-1.3884-6.0786-9.0836-7.1809-7.9662-0.15293 0.15465 0.13059 2.4081 0.62994 5.007 0.90419 4.7067 4.4742 6.3193 6.551 2.9591zm20.406-2.6701c1.6259-4.2369 1.2278-9.3103-0.73064-9.3103-2.2177 0-4.9292 6.9934-3.8308 9.8804 1.1272 2.9629 3.3105 2.69 4.5615-0.57014zm-35.22-14.793c-2.2981-4.2941-1.3123-9.0724 1.9164-9.2884 8.0408-0.53801 8.5686-0.83958 8.5686-4.8943 0-2.3101-1.8221-6.3185-4.0492-8.9077l-4.0492-4.7075-2.7366 4.1822c-1.5052 2.3002-3.9358 8.7906-5.4016 14.423-4.4415 17.069-3.2227 22.567 3.585 16.171 3.1171-2.9284 3.564-4.3682 2.1666-6.9792zm-11.518 858.63c-0.0344-2.8352 0.32133-4.2032 0.79215-3.0397 0.47065 1.1633 0.49935 3.4831 0.0636 5.155-0.43576 1.6718-0.82084 0.71998-0.8559-2.1153zm370.85-618.16c0.0433-6.3829 2.5991-9.0625 6.8392-7.1704 3.6302 1.6197 3.6049 1.7207-1.5883 6.348-5.232 4.6617-5.277 4.6687-5.2509 0.82239zm19.537-17.566c1.5263-2.3295 2.7751-6.1501 2.7751-8.4903 0-6.0599 3.064-7.1556 5.4382-1.9448 1.7917 3.9324 1.4697 4.9954-2.8917 9.5477-5.9425 6.2027-9.1554 6.7383-5.3217 0.88735zm-10.972-11.23c0-0.94508 0.34099-1.7183 0.75775-1.7183s1.2356 0.77325 1.8198 1.7183c0.58409 0.94509 0.24311 1.7183-0.75775 1.7183s-1.8198-0.77324-1.8198-1.7183zm15.601-9.3077c-0.0746-1.8113 0.33152-2.8263 0.9025-2.2553 0.57099 0.571 0.63202 2.0531 0.13558 3.2935-0.54853 1.3707-0.9557 0.96364-1.0382-1.0382z"/>
  </g>
  <metadata>
    <rdf:RDF>
      <cc:Work>
        <dc:format>image/svg+xml</dc:format>
        <dc:type rdf:resource="http://purl.org/dc/dcmitype/StillImage"/>
        <cc:license rdf:resource="http://creativecommons.org/licenses/publicdomain/"/>
        <dc:publisher>
          <cc:Agent rdf:about="http://openclipart.org/">
            <dc:title>Openclipart</dc:title>
          </cc:Agent>
        </dc:publisher>
        <dc:title>Tree 003</dc:title>
        <dc:date>2010-09-25T13:36:32</dc:date>
        <dc:description>Some trees</dc:description>
        <dc:source>https://openclipart.org/detail/86797/tree-003-by-inky2010</dc:source>
        <dc:creator>
          <cc:Agent>
            <dc:title>inky2010</dc:title>
          </cc:Agent>
        </dc:creator>
        <dc:subject>
          <rdf:Bag>
            <rdf:li>Inky2010</rdf:li>
            <rdf:li>dark</rdf:li>
            <rdf:li>free</rdf:li>
            <rdf:li>green</rdf:li>
            <rdf:li>icon</rdf:li>
            <rdf:li>landscape</rdf:li>
            <rdf:li>silhouette</rdf:li>
            <rdf:li>tree</rdf:li>
            <rdf:li>trees</rdf:li>
          </rdf:Bag>
        </dc:subject>
      </cc:Work>
      <cc:License rdf:about="http://creativecommons.org/licenses/publicdomain/">
        <cc:permits rdf:resource="http://creativecommons.org/ns#Reproduction"/>
        <cc:permits rdf:resource="http://creativecommons.org/ns#Distribution"/>
        <cc:permits rdf:resource="http://creativecommons.org/ns#DerivativeWorks"/>
      </cc:License>
    </rdf:RDF>
  </metadata>
</svg>
